<svg width="26" height="26" viewBox="0 0 26 26" fill="none" xmlns="http://www.w3.org/2000/svg">
<path d="M13 26C20.1797 26 26 20.1797 26 13C26 5.8203 20.1797 0 13 0C5.8203 0 0 5.8203 0 13C0 20.1797 5.8203 26 13 26Z" fill="#F0F0F0"/>
<path d="M12.9984 0C7.84439 0 3.39108 2.99939 1.28833 7.34784H24.7084C22.6057 2.99939 18.1523 0 12.9984 0Z" fill="#338AF3"/>
<path d="M12.9984 26.0002C18.1523 26.0002 22.6057 23.0008 24.7084 18.6523H1.28833C3.39108 23.0008 7.84439 26.0002 12.9984 26.0002Z" fill="#338AF3"/>
<path d="M16.8826 12.9999L15.295 13.7468L16.1404 15.2844L14.4164 14.9545L14.1979 16.6961L12.9971 15.4152L11.7962 16.6961L11.5778 14.9545L9.85379 15.2843L10.6992 13.7467L9.11157 12.9999L10.6992 12.2531L9.85379 10.7155L11.5778 11.0453L11.7963 9.30371L12.9971 10.5846L14.198 9.30371L14.4164 11.0453L16.1405 10.7155L15.295 12.2531L16.8826 12.9999Z" fill="#FFDA44"/>
</svg>
