<svg width="30" height="30" viewBox="0 0 30 30" fill="none" xmlns="http://www.w3.org/2000/svg">
<g clip-path="url(#clip0_16_4073)">
<path d="M30 15C30 23.2842 23.2842 30 15 30C6.71578 30 0 23.2842 0 15C0 15.0035 15 0.00169922 15 0C23.2842 0 30 6.71578 30 15Z" fill="#0052B4"/>
<path d="M14.96 15.0001H15.0001C15.0001 14.9865 15.0001 14.9735 15.0001 14.96C14.9867 14.9734 14.9734 14.9867 14.96 15.0001Z" fill="#F0F0F0"/>
<path d="M15 7.82607C15 5.18672 15 3.45721 15 0H14.9975C6.71437 0.00134766 0 6.71648 0 14.9999H7.82607V10.593L12.233 14.9999H14.9599C14.9733 14.9866 14.9867 14.9732 15.0001 14.9598C15.0001 13.9492 15.0001 13.0475 15.0001 12.2331L10.593 7.82607H15Z" fill="#F0F0F0"/>
<path d="M7.58881 1.95654C5.24277 3.29242 3.29242 5.24277 1.95654 7.58881V15H5.86961V5.86967V5.86961H15C15 4.63545 15 3.45971 15 1.95654H7.58881Z" fill="#D80027"/>
<path d="M15 13.1554L9.67076 7.8262H7.82617C7.82617 7.82614 7.82617 7.8262 7.82617 7.8262L15 15H15C15 15 15 13.7282 15 13.1554Z" fill="#D80027"/>
<path d="M9.04637 17.6086L9.86961 19.33L11.7286 18.9003L10.8961 20.6173L12.3911 21.8028L10.5297 22.2223L10.5349 24.1304L9.04637 22.9366L7.55785 24.1304L7.56307 22.2223L5.70166 21.8028L7.19668 20.6173L6.36406 18.9003L8.22318 19.33L9.04637 17.6086Z" fill="#F0F0F0"/>
<path d="M22.458 20.8696L22.8696 21.7303L23.7991 21.5154L23.3828 22.3739L24.1304 22.9667L23.1996 23.1765L23.2022 24.1305L22.458 23.5336L21.7137 24.1305L21.7163 23.1765L20.7856 22.9667L21.5331 22.3739L21.1169 21.5154L22.0463 21.7303L22.458 20.8696Z" fill="#F0F0F0"/>
<path d="M18.6284 11.7393L19.04 12.6L19.9695 12.3851L19.5533 13.2435L20.3008 13.8363L19.3701 14.0461L19.3726 15.0001L18.6284 14.4032L17.8842 15.0001L17.8867 14.0461L16.9561 13.8363L17.7035 13.2435L17.2873 12.3851L18.2168 12.6L18.6284 11.7393Z" fill="#F0F0F0"/>
<path d="M22.458 6.52173L22.8696 7.38247L23.7991 7.16761L23.3829 8.02606L24.1303 8.6188L23.1996 8.82862L23.2022 9.78265L22.458 9.18575L21.7137 9.78265L21.7163 8.82862L20.7856 8.6188L21.5331 8.02606L21.1169 7.16761L22.0463 7.38247L22.458 6.52173Z" fill="#F0F0F0"/>
<path d="M25.8028 10.4348L26.2143 11.2956L27.1438 11.0806L26.7276 11.9391L27.4751 12.5319L26.5444 12.7417L26.547 13.6957L25.8028 13.0988L25.0585 13.6957L25.061 12.7417L24.1304 12.5319L24.8779 11.9391L24.4616 11.0806L25.3911 11.2956L25.8028 10.4348Z" fill="#F0F0F0"/>
<path d="M23.4111 15L23.7348 15.9964H24.7826L23.9349 16.6123L24.2587 17.6087L23.4111 16.9929L22.5634 17.6087L22.8872 16.6123L22.0396 15.9964H23.0873L23.4111 15Z" fill="#F0F0F0"/>
</g>
<defs>
<clipPath id="clip0_16_4073">
<rect width="30" height="30" fill="white"/>
</clipPath>
</defs>
</svg>
