<svg  viewBox="0 0 26 26" fill="none" xmlns="http://www.w3.org/2000/svg">
<path d="M12.9997 25.9995C20.1793 25.9995 25.9995 20.1793 25.9995 12.9997C25.9995 5.82018 20.1793 0 12.9997 0C5.82018 0 0 5.82018 0 12.9997C0 20.1793 5.82018 25.9995 12.9997 25.9995Z" fill="#F0F0F0"/>
<path d="M26 12.9999C26 7.84597 23.0007 3.39275 18.6523 1.29004V24.7096C23.0007 22.607 26 18.1537 26 12.9999Z" fill="#D80027"/>
<path d="M0 12.9999C0 18.1537 2.99933 22.607 7.3477 24.7097V1.29004C2.99933 3.39275 0 7.84597 0 12.9999Z" fill="#D80027"/>
<path d="M15.2615 14.6955L17.5223 13.5651L16.3919 12.9999V11.8695L14.131 12.9999L15.2615 10.7391H14.131L13.0006 9.04346L11.8702 10.7391H10.7398L11.8702 12.9999L9.60937 11.8695V12.9999L8.479 13.5651L10.7398 14.6955L10.1746 15.8259H12.4354V17.5215H13.5658V15.8259H15.8267L15.2615 14.6955Z" fill="#D80027"/>
</svg>
