<svg width="26" height="26" viewBox="0 0 26 26" fill="none" xmlns="http://www.w3.org/2000/svg">
<path d="M13 26C20.1797 26 26 20.1797 26 13C26 5.8203 20.1797 0 13 0C5.8203 0 0 5.8203 0 13C0 20.1797 5.8203 26 13 26Z" fill="#0052B4"/>
<path d="M13.0014 5.08691L13.4224 6.38229H14.7843L13.6824 7.18286L14.1033 8.47824L13.0014 7.67762L11.8995 8.47824L12.3204 7.18286L11.2185 6.38229H12.5805L13.0014 5.08691Z" fill="#FFDA44"/>
<path d="M7.40764 7.40476L8.62131 8.02307L9.58438 7.06006L9.37125 8.40525L10.5849 9.02362L9.23963 9.2367L9.02655 10.582L8.40818 9.36837L7.06299 9.5815L8.02606 8.61843L7.40764 7.40476Z" fill="#FFDA44"/>
<path d="M5.08984 12.9997L6.38522 12.5788V11.2168L7.18574 12.3187L8.48117 11.8978L7.6805 12.9997L8.48117 14.1016L7.18574 13.6808L6.38522 14.7827V13.4207L5.08984 12.9997Z" fill="#FFDA44"/>
<path d="M7.40764 18.5951L8.026 17.3815L7.06299 16.4184L8.40824 16.6316L9.0265 15.418L9.23963 16.7632L10.5848 16.9763L9.37135 17.5947L9.58438 18.9399L8.62131 17.9768L7.40764 18.5951Z" fill="#FFDA44"/>
<path d="M13.0014 20.9132L12.5805 19.6178H11.2185L12.3205 18.8172L11.8995 17.522L13.0014 18.3225L14.1033 17.522L13.6824 18.8172L14.7843 19.6178H13.4223L13.0014 20.9132Z" fill="#FFDA44"/>
<path d="M18.5973 18.5951L17.3837 17.9768L16.4206 18.9399L16.6337 17.5946L15.4202 16.9763L16.7654 16.7632L16.9784 15.418L17.5968 16.6316L18.9419 16.4184L17.9789 17.3816L18.5973 18.5951Z" fill="#FFDA44"/>
<path d="M20.9181 12.9997L19.6227 13.4207V14.7827L18.8221 13.6807L17.5269 14.1016L18.3274 12.9997L17.5269 11.8978L18.8222 12.3187L19.6227 11.2168V12.5789L20.9181 12.9997Z" fill="#FFDA44"/>
<path d="M18.5973 7.40471L17.9789 8.61838L18.942 9.58145L17.5967 9.36827L16.9784 10.5819L16.7654 9.23665L15.4202 9.02352L16.6337 8.4052L16.4206 7.06006L17.3837 8.02307L18.5973 7.40471Z" fill="#FFDA44"/>
</svg>
