<svg width="26" height="26" viewBox="0 0 26 26" fill="none" xmlns="http://www.w3.org/2000/svg">
<path d="M13 26C20.1797 26 26 20.1797 26 13C26 5.8203 20.1797 0 13 0C5.8203 0 0 5.8203 0 13C0 20.1797 5.8203 26 13 26Z" fill="#F0F0F0"/>
<path d="M2.68628 5.08545C1.66512 6.41404 0.895125 7.94535 0.446777 9.60889H7.20972L2.68628 5.08545Z" fill="#0052B4"/>
<path d="M25.549 9.60884C25.1006 7.94535 24.3306 6.41404 23.3095 5.08545L18.7861 9.60884H25.549Z" fill="#0052B4"/>
<path d="M0.446777 16.3916C0.895176 18.0551 1.66517 19.5864 2.68628 20.9149L7.20957 16.3916H0.446777Z" fill="#0052B4"/>
<path d="M20.9126 2.68731C19.584 1.66615 18.0527 0.896152 16.3892 0.447754V7.21065L20.9126 2.68731Z" fill="#0052B4"/>
<path d="M5.08374 23.3124C6.41233 24.3335 7.94364 25.1035 9.60713 25.5519V18.7891L5.08374 23.3124Z" fill="#0052B4"/>
<path d="M9.60708 0.447754C7.94359 0.896152 6.41228 1.66615 5.08374 2.68726L9.60708 7.2106V0.447754Z" fill="#0052B4"/>
<path d="M16.3892 25.5519C18.0527 25.1035 19.584 24.3335 20.9125 23.3124L16.3892 18.7891V25.5519Z" fill="#0052B4"/>
<path d="M18.7861 16.3916L23.3095 20.915C24.3306 19.5865 25.1006 18.0551 25.549 16.3916H18.7861Z" fill="#0052B4"/>
<path d="M25.89 11.3044H14.6957H14.6957V0.110043C14.1406 0.0377813 13.5747 0 13 0C12.4252 0 11.8594 0.0377813 11.3044 0.110043V11.3043V11.3043H0.110043C0.0377813 11.8594 0 12.4253 0 13C0 13.5748 0.0377813 14.1406 0.110043 14.6956H11.3043H11.3043V25.89C11.8594 25.9622 12.4252 26 13 26C13.5747 26 14.1406 25.9623 14.6956 25.89V14.6957V14.6957H25.89C25.9622 14.1406 26 13.5748 26 13C26 12.4253 25.9622 11.8594 25.89 11.3044Z" fill="#D80027"/>
<path d="M16.3894 16.3917L22.1905 22.1927C22.4573 21.926 22.7118 21.6472 22.9546 21.3581L17.9881 16.3916H16.3894V16.3917Z" fill="#D80027"/>
<path d="M9.60823 16.3916H9.60812L3.80713 22.1926C4.07383 22.4594 4.35267 22.7139 4.64172 22.9568L9.60823 17.9901V16.3916Z" fill="#D80027"/>
<path d="M9.60622 9.60882V9.60871L3.80517 3.80762C3.53837 4.07432 3.28385 4.35316 3.04102 4.64221L8.00757 9.60877H9.60622V9.60882Z" fill="#D80027"/>
<path d="M16.3894 9.60822L22.1905 3.80707C21.9238 3.54027 21.645 3.28575 21.3559 3.04297L16.3894 8.00953V9.60822Z" fill="#D80027"/>
</svg>
