<svg width="26" height="26" viewBox="0 0 26 26" fill="none" xmlns="http://www.w3.org/2000/svg">
<path d="M0 12.9971C0 14.5873 0.286051 16.1105 0.80859 17.5188L13 18.0841L25.1914 17.5189C25.714 16.1105 26 14.5873 26 12.9971C26 11.407 25.714 9.88372 25.1914 8.4754L13 7.91016L0.80859 8.47535C0.286051 9.88372 0 11.407 0 12.9971H0Z" fill="#FFDA44"/>
<path d="M13.0039 0C7.41437 0 2.64931 3.52787 0.8125 8.47828H25.1954C23.3585 3.52787 18.5935 0 13.0039 0Z" fill="#D80027"/>
<path d="M25.1953 17.5244H0.8125C2.64931 22.4748 7.41437 26.0027 13.0039 26.0027C18.5935 26.0027 23.3585 22.4748 25.1953 17.5244Z" fill="#496E2D"/>
<path d="M12.9838 8.48389L14.1061 11.938H17.7384L14.8 14.073L15.9223 17.5273L12.9838 15.3925L10.0454 17.5273L11.1678 14.073L8.22949 11.938H11.8616L12.9838 8.48389Z" fill="black"/>
</svg>
