<svg width="26" height="26" viewBox="0 0 26 26" fill="none" xmlns="http://www.w3.org/2000/svg">
<path d="M13 26C20.1797 26 26 20.1797 26 13C26 5.8203 20.1797 0 13 0C5.8203 0 0 5.8203 0 13C0 20.1797 5.8203 26 13 26Z" fill="#F0F0F0"/>
<path d="M12.9984 0C7.84439 0 3.39108 2.99939 1.28833 7.34784H24.7084C22.6057 2.99939 18.1523 0 12.9984 0Z" fill="black"/>
<path d="M12.9984 25.9997C7.84439 25.9997 3.39108 23.0003 1.28833 18.6519H24.7084C22.6057 23.0003 18.1523 25.9997 12.9984 25.9997Z" fill="#496E2D"/>
<path d="M25.3861 9.04346H0.613895C0.215668 10.2911 0 11.6203 0 13C0 14.3797 0.215668 15.7089 0.613895 16.9565H25.3861C25.7843 15.7089 26 14.3797 26 13C26 11.6203 25.7843 10.2911 25.3861 9.04346Z" fill="#A2001D"/>
<path d="M17.0453 6.00746L15.5057 5.29688L12.9972 10.9768L10.4888 5.29688L8.94922 6.00746L12.0635 13L8.94922 19.9925L10.4888 20.7031L12.9972 15.0232L15.5057 20.7031L17.0453 19.9925L13.931 13L17.0453 6.00746Z" fill="#F0F0F0"/>
<path d="M14.041 6.67736C13.445 6.0265 12.9953 5.65234 12.9953 5.65234C12.9953 5.65234 12.5457 6.02645 11.9497 6.67736V19.3229C12.5457 19.9739 12.9953 20.348 12.9953 20.348C12.9953 20.348 13.445 19.9739 14.041 19.323V6.67736Z" fill="#F0F0F0"/>
<path d="M10.1736 9.10181V16.8973C10.8034 18.0133 11.5742 18.9279 12.1519 19.5344V6.46484C11.5742 7.07122 10.8033 7.98595 10.1736 9.10181Z" fill="#A2001D"/>
<path d="M15.8255 9.10181C15.1956 7.98589 14.4249 7.07122 13.8472 6.46484V19.5344C14.4248 18.9279 15.1956 18.0133 15.8255 16.8973V9.10181Z" fill="#A2001D"/>
<path d="M15.8264 9.10205V16.8976C16.464 15.7678 16.9569 14.4317 16.9569 12.9999C16.9569 11.568 16.464 10.2319 15.8264 9.10205Z" fill="black"/>
<path d="M10.1724 9.10205V16.8976C9.53488 15.7678 9.04199 14.4317 9.04199 12.9999C9.04199 11.568 9.53488 10.2319 10.1724 9.10205Z" fill="black"/>
</svg>
