<svg width="26" height="26" viewBox="0 0 26 26" fill="none" xmlns="http://www.w3.org/2000/svg">
<path d="M26 13C26 20.1797 20.1797 26 13 26C5.82034 26 0 20.1797 0 13C0 13.0031 13 0.00142188 13 0C20.1797 0 26 5.82034 26 13Z" fill="#0052B4"/>
<path d="M12.9653 12.9996H13.0001C13.0001 12.9879 13.0001 12.9766 13.0001 12.9648C12.9885 12.9765 12.977 12.9881 12.9653 12.9996Z" fill="#F0F0F0"/>
<path d="M13 6.7826C13 4.49516 13 2.99635 13 0H12.9978C5.81912 0.00121875 0 5.821 0 13H6.7826V9.18069L10.602 13H12.9653C12.9768 12.9884 12.9885 12.9768 13.0001 12.9652C13.0001 12.0894 13.0001 11.3079 13.0001 10.602L9.18064 6.7826H13Z" fill="#F0F0F0"/>
<path d="M6.57588 1.69531C4.54265 2.85307 2.85234 4.54338 1.69458 6.57661V12.9997H5.0859V5.08674V5.08664H12.9989C12.9989 4.01703 12.9989 2.99805 12.9989 1.69531H6.57588Z" fill="#D80027"/>
<path d="M13.0018 11.4009L8.38307 6.78223C8.38307 6.78223 6.78442 6.78233 6.78442 6.78223V6.78233L13.0017 12.9996H13.0018C13.0018 12.9996 13.0018 11.8973 13.0018 11.4009Z" fill="#D80027"/>
<path d="M22.511 9.64648L22.7915 10.5101H23.6995L22.9649 11.0438L23.2456 11.9073L22.511 11.3737L21.7763 11.9073L22.0569 11.0438L21.3223 10.5101H22.2303L22.511 9.64648Z" fill="#D80027"/>
<path d="M19.2632 15.8633L19.6841 17.1587H21.0461L19.9441 17.9592L20.3651 19.2546L19.2632 18.454L18.1612 19.2546L18.5822 17.9592L17.4802 17.1587H18.8422L19.2632 15.8633Z" fill="#D80027"/>
<path d="M19.3898 5.68945L19.7406 6.76901H20.8756L19.9572 7.43602L20.308 8.51553L19.3898 7.84832L18.4715 8.51553L18.8223 7.43602L17.9041 6.76901H19.039L19.3898 5.68945Z" fill="#D80027"/>
<path d="M16.2627 9.6084L16.6835 10.9038H18.0456L16.9436 11.7043L17.3646 12.9997L16.2627 12.1992L15.1607 12.9997L15.5817 11.7043L14.4797 10.9038H15.8417L16.2627 9.6084Z" fill="#D80027"/>
</svg>
