<svg width="26" height="26" viewBox="0 0 26 26" fill="none" xmlns="http://www.w3.org/2000/svg">
<path d="M13 26C20.1797 26 26 20.1797 26 13C26 5.8203 20.1797 0 13 0C5.8203 0 0 5.8203 0 13C0 20.1797 5.8203 26 13 26Z" fill="#F0F0F0"/>
<path d="M0 13.0001C0 5.82034 5.82034 0 13 0C20.1797 0 26 5.82034 26 13.0001" fill="#D80027"/>
<path d="M7.91126 6.78264C7.91126 4.8886 9.24239 3.30636 11.0199 2.91814C10.7467 2.85852 10.4633 2.82617 10.1721 2.82617C7.98693 2.82617 6.21558 4.59752 6.21558 6.78269C6.21558 8.96786 7.98693 10.7392 10.1721 10.7392C10.4632 10.7392 10.7467 10.7069 11.0199 10.6472C9.24239 10.259 7.91126 8.67673 7.91126 6.78264Z" fill="#F0F0F0"/>
<path d="M12.9989 3.10938L13.2795 3.97291H14.1875L13.4529 4.50667L13.7335 5.37021L12.9989 4.83655L12.2643 5.37021L12.5449 4.50667L11.8103 3.97291H12.7183L12.9989 3.10938Z" fill="#F0F0F0"/>
<path d="M10.7937 4.80469L11.0742 5.66827H11.9823L11.2477 6.20198L11.5283 7.06552L10.7937 6.53186L10.059 7.06552L10.3396 6.20198L9.60498 5.66827H10.513L10.7937 4.80469Z" fill="#F0F0F0"/>
<path d="M15.1984 4.80469L15.479 5.66827H16.387L15.6523 6.20198L15.933 7.06552L15.1984 6.53186L14.4638 7.06552L14.7444 6.20198L14.0098 5.66827H14.9177L15.1984 4.80469Z" fill="#F0F0F0"/>
<path d="M14.3509 7.34766L14.6316 8.21124H15.5395L14.8049 8.74495L15.0855 9.60849L14.3509 9.07483L13.6163 9.60849L13.897 8.74495L13.1624 8.21124H14.0703L14.3509 7.34766Z" fill="#F0F0F0"/>
<path d="M11.6408 7.34766L11.9214 8.21124H12.8294L12.0948 8.74495L12.3754 9.60849L11.6408 9.07483L10.9061 9.60849L11.1868 8.74495L10.4521 8.21124H11.3602L11.6408 7.34766Z" fill="#F0F0F0"/>
</svg>
