<svg width="26" height="26" viewBox="0 0 26 26" fill="none" xmlns="http://www.w3.org/2000/svg">
<path d="M13 26C20.1797 26 26 20.1797 26 13C26 5.8203 20.1797 0 13 0C5.8203 0 0 5.8203 0 13C0 20.1797 5.8203 26 13 26Z" fill="#D80027"/>
<path d="M12.4652 10.623L13.5318 12.0929L15.2593 11.5328L14.1909 13.0014L15.2574 14.4712L13.5306 13.9089L12.4623 15.3775L12.4634 13.5616L10.7366 12.9993L12.464 12.4392L12.4652 10.623Z" fill="#F0F0F0"/>
<path d="M9.55609 16.6742C7.52708 16.6742 5.88217 15.0293 5.88217 13.0003C5.88217 10.9713 7.52708 9.32636 9.55609 9.32636C10.1887 9.32636 10.784 9.48637 11.3037 9.76795C10.4884 8.97059 9.37338 8.47852 8.14305 8.47852C5.64573 8.47852 3.62134 10.503 3.62134 13.0002C3.62134 15.4975 5.64578 17.5219 8.14305 17.5219C9.37348 17.5219 10.4884 17.0298 11.3037 16.2325C10.784 16.5142 10.1887 16.6742 9.55609 16.6742Z" fill="#F0F0F0"/>
</svg>
