<svg width="26" height="26" viewBox="0 0 26 26" fill="none" xmlns="http://www.w3.org/2000/svg">
<path d="M12.9797 25.9594C20.1482 25.9594 25.9594 20.1482 25.9594 12.9797C25.9594 5.81122 20.1482 0 12.9797 0C5.81122 0 0 5.81122 0 12.9797C0 20.1482 5.81122 25.9594 12.9797 25.9594Z" fill="#F0F0F0"/>
<path d="M3.80166 22.153C-1.26722 17.0841 -1.26722 8.86581 3.80166 3.79688C3.80131 3.79743 11.2868 12.975 11.2868 12.975L3.80166 22.153Z" fill="black"/>
<path d="M11.2289 12.9858L1.66365 6.52197C1.36709 7.03746 1.10557 7.57551 0.880859 8.13242L5.72336 12.9859L0.881011 17.8396C1.10552 18.3961 1.36679 18.9338 1.66314 19.4489L11.2289 12.9858Z" fill="#FFDA44"/>
<path d="M25.8901 11.2818H11.3269L3.84203 3.79688C3.03546 4.60344 2.33471 5.51562 1.76198 6.51096L8.21326 12.9748L1.76147 19.4377C2.3342 20.4333 3.03526 21.3458 3.84203 22.1526L11.3269 14.6677H25.8901C25.9622 14.1136 25.9999 13.5486 25.9999 12.9748C25.9999 12.401 25.9622 11.8359 25.8901 11.2818Z" fill="#2F902D"/>
<path d="M5.04126 23.2785C7.23002 24.9609 9.9698 25.9619 12.9438 25.9619C18.9408 25.9619 23.9869 21.8945 25.4764 16.3682H11.9517L5.04126 23.2785Z" fill="#0052B4"/>
<path d="M25.4764 9.59369C23.9869 4.06737 18.9408 0 12.9438 0C9.9698 0 7.23002 1.00091 5.04126 2.6833L11.9516 9.59369H25.4764Z" fill="#D80027"/>
</svg>
