<svg width="34" height="34" viewBox="0 0 34 34" fill="none" xmlns="http://www.w3.org/2000/svg">
<g clip-path="url(#clip0_210_33013)">
<mask id="mask0_210_33013" style="mask-type:luminance" maskUnits="userSpaceOnUse" x="0" y="0" width="34" height="34">
<path d="M34 0H0V34H34V0Z" fill="white"/>
</mask>
<g mask="url(#mask0_210_33013)">
<path d="M34 0H0V34H34V0Z" fill="#9886E5"/>
<path fill-rule="evenodd" clip-rule="evenodd" d="M14.6381 22.0323C13.2097 24.2211 10.8161 26.991 7.63112 26.991C6.12545 26.991 4.67773 26.3712 4.67773 23.6787C4.67773 16.8218 14.0397 6.20703 22.7261 6.20703C27.6677 6.20703 29.6366 9.63551 29.6366 13.5289C29.6366 18.5263 26.3937 24.2405 23.1701 24.2405C22.147 24.2405 21.6451 23.6787 21.6451 22.7877C21.6451 22.5553 21.6838 22.3035 21.761 22.0323C20.6607 23.9112 18.5374 25.6545 16.5491 25.6545C15.1014 25.6545 14.3679 24.7441 14.3679 23.4657C14.3679 23.0008 14.4644 22.5166 14.6381 22.0323ZM26.3748 13.3937C26.3748 14.5282 25.7055 15.0955 24.9567 15.0955C24.1966 15.0955 23.5386 14.5282 23.5386 13.3937C23.5386 12.2592 24.1966 11.692 24.9567 11.692C25.7055 11.692 26.3748 12.2592 26.3748 13.3937ZM22.1206 13.3937C22.1206 14.5282 21.4513 15.0955 20.7025 15.0955C19.9424 15.0955 19.2844 14.5282 19.2844 13.3937C19.2844 12.2592 19.9424 11.692 20.7025 11.692C21.4513 11.692 22.1206 12.2592 22.1206 13.3937Z" fill="#FFFDF8"/>
</g>
</g>
<defs>
<clipPath id="clip0_210_33013">
<rect width="34" height="34" rx="5" fill="white"/>
</clipPath>
</defs>
</svg>
