<svg width="43" height="43" viewBox="0 0 43 43" fill="none" xmlns="http://www.w3.org/2000/svg">
<g clip-path="url(#clip0_2384_13978)">
<path d="M21.5518 40.5257C21.9954 40.5257 22.3552 40.8814 22.3552 41.3203C22.3552 41.7591 21.9954 42.1148 21.5518 42.1148C21.1081 42.1148 20.7484 41.7591 20.7484 41.3203C20.7484 40.8814 21.1081 40.5257 21.5518 40.5257ZM20.679 2.56977C21.0716 2.60219 21.3887 2.89968 21.4419 3.28537L22.3974 10.2281C22.7183 12.5218 25.4847 13.5156 27.1924 11.957L36.7661 3.24317C36.997 3.03298 37.3567 3.04755 37.5694 3.27571C37.7646 3.48504 37.7705 3.80553 37.583 4.02169L29.2347 13.6517C27.6978 15.4214 28.8318 18.1848 31.1746 18.3821L38.5407 19.0922C38.9076 19.1275 39.176 19.45 39.1401 19.8125C39.1106 20.1114 38.8804 20.3529 38.58 20.3997L30.8399 21.6083C28.5927 21.9147 27.575 24.5759 29.0366 26.3048L31.7577 29.5127C31.9769 29.7711 31.9426 30.1562 31.681 30.3728C31.4594 30.5563 31.1385 30.5634 30.9088 30.3899L27.5544 27.8566C25.7443 26.4953 23.1351 27.6524 22.9438 29.9053L22.2046 38.6917C22.174 39.0547 21.8515 39.3244 21.4842 39.2943C21.1724 39.2687 20.9205 39.0326 20.8782 38.7263L19.706 30.2389C19.3919 27.9451 16.6255 26.9513 14.911 28.51L4.7265 37.7836C4.51569 37.9755 4.18728 37.9622 3.993 37.754C3.81474 37.5628 3.80933 37.2703 3.98038 37.0729L12.8688 26.8153C14.4056 25.0456 13.2785 22.2821 10.9356 22.0849L3.56788 21.3746C3.20102 21.3393 2.93264 21.0167 2.96844 20.6543C2.99795 20.3554 3.2282 20.114 3.52845 20.067L11.2635 18.8586C13.5108 18.5523 14.5354 15.8911 13.0737 14.1622L11.2213 11.9785C10.9495 11.6581 10.9921 11.1805 11.3165 10.912C11.5914 10.6843 11.9894 10.6756 12.2743 10.8909L14.549 12.6103C16.3591 13.9716 18.9683 12.8146 19.1596 10.5617L19.7715 3.32809C19.8102 2.87109 20.2165 2.53158 20.679 2.56977ZM1.08461 19.8423C1.5283 19.8423 1.88797 20.198 1.88797 20.6369C1.88797 21.0757 1.5283 21.4315 1.08461 21.4315C0.640927 21.4315 0.28125 21.0757 0.28125 20.6369C0.28125 20.198 0.640927 19.8423 1.08461 19.8423ZM41.3763 19.0355C41.82 19.0355 42.1797 19.3913 42.1797 19.8301C42.1797 20.2689 41.82 20.6246 41.3763 20.6246C40.9326 20.6246 40.5729 20.2689 40.5729 19.8301C40.5729 19.3913 40.9326 19.0355 41.3763 19.0355ZM20.5631 0.0390625C21.0067 0.0390625 21.3664 0.394805 21.3664 0.833636C21.3664 1.27247 21.0067 1.62821 20.5631 1.62821C20.1194 1.62821 19.7597 1.27247 19.7597 0.833636C19.7597 0.394805 20.1194 0.0390625 20.5631 0.0390625Z" fill="url(#paint0_linear_2384_13978)"/>
<path d="M21.0457 27.7398C25.2368 27.7398 28.6344 24.3795 28.6344 20.2342C28.6344 16.0889 25.2368 12.7285 21.0457 12.7285C16.8546 12.7285 13.457 16.0889 13.457 20.2342C13.457 24.3795 16.8546 27.7398 21.0457 27.7398Z" fill="url(#paint1_radial_2384_13978)"/>
</g>
<defs>
<linearGradient id="paint0_linear_2384_13978" x1="5.75577" y1="6.73185" x2="29.7825" y2="28.4828" gradientUnits="userSpaceOnUse">
<stop stop-color="#FFC10B"/>
<stop offset="1" stop-color="#FB3F2E"/>
</linearGradient>
<radialGradient id="paint1_radial_2384_13978" cx="0" cy="0" r="1" gradientUnits="userSpaceOnUse" gradientTransform="translate(19.3127 17.4632) rotate(67.5196) scale(11.033 11.1402)">
<stop stop-color="#FFC10B"/>
<stop offset="1" stop-color="#FB3F2E"/>
</radialGradient>
<clipPath id="clip0_2384_13978">
<rect width="42.2524" height="42.2524" fill="white" transform="translate(0.28125 0.0390625)"/>
</clipPath>
</defs>
</svg>
