<svg  viewBox="0 0 26 26" fill="none" xmlns="http://www.w3.org/2000/svg">
<path d="M13 26C20.1797 26 26 20.1797 26 13C26 5.8203 20.1797 0 13 0C5.8203 0 0 5.8203 0 13C0 20.1797 5.8203 26 13 26Z" fill="#2F902D"/>
<path d="M13.0023 5.08691L23.7414 12.9999L13.0023 20.913L2.26318 12.9999L13.0023 5.08691Z" fill="#FFDA44"/>
<path d="M13.0007 17.5219C15.498 17.5219 17.5224 15.4975 17.5224 13.0002C17.5224 10.503 15.498 8.47852 13.0007 8.47852C10.5034 8.47852 8.479 10.503 8.479 13.0002C8.479 15.4975 10.5034 17.5219 13.0007 17.5219Z" fill="#F0F0F0"/>
<path d="M10.7384 12.7173C9.95212 12.7173 9.19329 12.8369 8.479 13.0588C8.51064 15.5288 10.5218 17.5216 12.9993 17.5216C14.5313 17.5216 15.8843 16.7591 16.7022 15.5936C15.3028 13.8418 13.1497 12.7173 10.7384 12.7173Z" fill="#0052B4"/>
<path d="M17.4378 13.8666C17.4923 13.586 17.5217 13.2966 17.5217 13.0002C17.5217 10.5029 15.4972 8.47852 13 8.47852C11.1366 8.47852 9.53698 9.60591 8.84473 11.2156C9.45664 11.0888 10.0902 11.022 10.7391 11.022C13.3654 11.0219 15.7412 12.1136 17.4378 13.8666Z" fill="#0052B4"/>
</svg>
