<svg width="33" height="37" viewBox="0 0 33 37" fill="none" xmlns="http://www.w3.org/2000/svg">
<path d="M15.49 36.98C24.0449 36.98 30.98 30.0449 30.98 21.49C30.98 12.9351 24.0449 6 15.49 6C6.93511 6 0 12.9351 0 21.49C0 30.0449 6.93511 36.98 15.49 36.98Z" fill="#170636"/>
<path d="M23.4752 15.4056L19.4824 19.3984L23.4752 23.3913L27.4681 19.3984L23.4752 15.4056Z" fill="#14B23D"/>
<path d="M7.50845 15.3802L3.51562 19.373L7.50845 23.3659L11.5013 19.373L7.50845 15.3802Z" fill="#FFC100"/>
<path d="M15.5163 23.388L11.5234 27.3809L15.5163 31.3737L19.5091 27.3809L15.5163 23.388Z" fill="#14B23D"/>
<path d="M7.50781 15.3813L15.5192 23.3928L23.4803 23.3928L15.4688 15.3813L7.50781 15.3813Z" fill="url(#paint0_linear_2117_7163)"/>
<circle cx="24.8169" cy="8.8169" r="7.8169" fill="black"/>
<path d="M28.69 10.4964L27.3996 11.88C27.3717 11.9101 27.3379 11.9341 27.3003 11.9505C27.2627 11.9669 27.2221 11.9754 27.1811 11.9754H21.064C21.0348 11.9754 21.0063 11.9669 20.9819 11.9509C20.9575 11.9349 20.9383 11.9122 20.9266 11.8854C20.9149 11.8587 20.9113 11.8291 20.9162 11.8003C20.921 11.7716 20.9342 11.7449 20.954 11.7235L22.243 10.3398C22.2709 10.3098 22.3047 10.2858 22.3423 10.2694C22.3799 10.253 22.4205 10.2445 22.4615 10.2444H28.5786C28.608 10.2438 28.637 10.2519 28.6618 10.2677C28.6867 10.2836 28.7063 10.3064 28.7182 10.3333C28.7302 10.3602 28.7338 10.3901 28.7288 10.4191C28.7237 10.4481 28.7103 10.475 28.69 10.4964ZM27.3996 7.70944C27.3716 7.67953 27.3378 7.65564 27.3002 7.63923C27.2626 7.62283 27.2221 7.61426 27.1811 7.61405H21.064C21.0348 7.61407 21.0063 7.62259 20.9819 7.63858C20.9575 7.65456 20.9383 7.67732 20.9266 7.70406C20.9149 7.7308 20.9113 7.76036 20.9162 7.78913C20.921 7.81789 20.9342 7.84462 20.954 7.86602L22.243 9.25039C22.271 9.2803 22.3048 9.30419 22.3424 9.3206C22.38 9.337 22.4205 9.34557 22.4615 9.34578H28.5786C28.6077 9.34562 28.6361 9.337 28.6605 9.32096C28.6848 9.30492 28.7039 9.28215 28.7154 9.25544C28.727 9.22873 28.7306 9.19922 28.7256 9.17052C28.7208 9.14182 28.7076 9.11517 28.6878 9.09382L27.3996 7.70944ZM21.064 6.71541H27.1811C27.2221 6.71537 27.2627 6.70687 27.3003 6.69046C27.3379 6.67405 27.3717 6.65006 27.3996 6.62001L28.69 5.23637C28.7103 5.215 28.7237 5.18812 28.7288 5.1591C28.7338 5.13008 28.7302 5.10022 28.7182 5.07329C28.7063 5.04635 28.6867 5.02354 28.6618 5.00773C28.637 4.99191 28.608 4.9838 28.5786 4.98441H22.4615C22.4205 4.98445 22.3799 4.99294 22.3423 5.00936C22.3047 5.02577 22.2709 5.04975 22.243 5.07981L20.954 6.46344C20.9342 6.48484 20.921 6.51157 20.9162 6.54033C20.9113 6.5691 20.9149 6.59866 20.9266 6.6254C20.9383 6.65214 20.9575 6.6749 20.9819 6.69088C21.0063 6.70687 21.0348 6.71539 21.064 6.71541Z" fill="url(#paint1_linear_2117_7163)"/>
<defs>
<linearGradient id="paint0_linear_2117_7163" x1="9.50437" y1="13.3945" x2="13.0513" y2="27.5" gradientUnits="userSpaceOnUse">
<stop stop-color="#FFDC00"/>
<stop offset="1" stop-color="#07E58A"/>
</linearGradient>
<linearGradient id="paint1_linear_2117_7163" x1="21.5738" y1="12.1422" x2="27.988" y2="4.91086" gradientUnits="userSpaceOnUse">
<stop offset="0.08" stop-color="#9945FF"/>
<stop offset="0.3" stop-color="#8752F3"/>
<stop offset="0.5" stop-color="#5497D5"/>
<stop offset="0.6" stop-color="#43B4CA"/>
<stop offset="0.72" stop-color="#28E0B9"/>
<stop offset="0.97" stop-color="#19FB9B"/>
</linearGradient>
</defs>
</svg>
