<svg width="34" height="36" viewBox="0 0 34 36" fill="none" xmlns="http://www.w3.org/2000/svg">
<g clip-path="url(#clip0_2117_4194)">
<path d="M30.98 19.49C30.98 10.9351 24.0449 4 15.49 4C6.93511 4 0 10.9351 0 19.49C0 28.0449 6.93511 34.98 15.49 34.98C24.0449 34.98 30.98 28.0449 30.98 19.49Z" fill="#243C49"/>
<path fill-rule="evenodd" clip-rule="evenodd" d="M8.78069 11.2607H7.50391V12.5625V17.0365V18.5217C7.50391 18.5217 8.28208 18.5217 8.78069 18.5217C14.5204 18.5217 23.478 18.5217 23.478 18.5217V15.8593H9.92422V13.9231H23.478V11.2607H8.78069Z" fill="white"/>
<path fill-rule="evenodd" clip-rule="evenodd" d="M8.78069 20.458H7.50391V21.7598V26.2337V27.7189C7.50391 27.7189 8.28208 27.7189 8.78069 27.7189C14.5204 27.7189 23.478 27.7189 23.478 27.7189V25.0566H9.92422V23.1204H23.478V20.458H8.78069Z" fill="white"/>
</g>
<ellipse cx="25.8143" cy="7.81425" rx="7.81425" ry="7.81425" fill="black"/>
<path d="M29.6796 9.495L28.3896 10.8782C28.3617 10.9082 28.3279 10.9322 28.2903 10.9486C28.2528 10.965 28.2122 10.9735 28.1712 10.9735H22.0561C22.027 10.9735 21.9984 10.965 21.974 10.949C21.9496 10.933 21.9304 10.9103 21.9188 10.8836C21.9071 10.8568 21.9035 10.8273 21.9084 10.7985C21.9132 10.7698 21.9264 10.7431 21.9462 10.7217L23.2347 9.33849C23.2626 9.30844 23.2964 9.28447 23.334 9.26806C23.3716 9.25166 23.4121 9.24317 23.4531 9.24312H29.5682C29.5976 9.24252 29.6266 9.25063 29.6514 9.26644C29.6762 9.28225 29.6959 9.30505 29.7078 9.33197C29.7197 9.3589 29.7233 9.38875 29.7183 9.41776C29.7133 9.44677 29.6998 9.47365 29.6796 9.495ZM28.3896 6.70901C28.3616 6.6791 28.3278 6.65523 28.2902 6.63882C28.2527 6.62243 28.2122 6.61386 28.1712 6.61365H22.0561C22.027 6.61366 21.9984 6.62218 21.974 6.63817C21.9496 6.65415 21.9304 6.6769 21.9188 6.70363C21.9071 6.73036 21.9035 6.75991 21.9084 6.78866C21.9132 6.81742 21.9264 6.84414 21.9462 6.86553L23.2347 8.24943C23.2627 8.27934 23.2966 8.30321 23.3341 8.31962C23.3717 8.33601 23.4122 8.34458 23.4531 8.34479H29.5682C29.5973 8.34464 29.6257 8.33601 29.65 8.31998C29.6743 8.30394 29.6934 8.28119 29.705 8.25448C29.7166 8.22778 29.7201 8.19828 29.7152 8.16959C29.7103 8.1409 29.6972 8.11426 29.6774 8.09291L28.3896 6.70901ZM22.0561 5.71531H28.1712C28.2122 5.71527 28.2528 5.70678 28.2903 5.69037C28.3279 5.67397 28.3617 5.64999 28.3896 5.61994L29.6796 4.23678C29.6998 4.21541 29.7133 4.18853 29.7183 4.15953C29.7233 4.13052 29.7197 4.10067 29.7078 4.07375C29.6959 4.04682 29.6762 4.02402 29.6514 4.00821C29.6266 3.9924 29.5976 3.98429 29.5682 3.9849H23.4531C23.4121 3.98494 23.3716 3.99343 23.334 4.00984C23.2964 4.02624 23.2626 4.05022 23.2347 4.08026L21.9462 5.46343C21.9264 5.48482 21.9132 5.51154 21.9084 5.5403C21.9035 5.56905 21.9071 5.5986 21.9188 5.62533C21.9304 5.65206 21.9496 5.67481 21.974 5.69079C21.9984 5.70678 22.027 5.7153 22.0561 5.71531Z" fill="url(#paint0_linear_2117_4194)"/>
<defs>
<linearGradient id="paint0_linear_2117_4194" x1="22.5657" y1="11.1403" x2="28.9778" y2="3.91137" gradientUnits="userSpaceOnUse">
<stop offset="0.08" stop-color="#9945FF"/>
<stop offset="0.3" stop-color="#8752F3"/>
<stop offset="0.5" stop-color="#5497D5"/>
<stop offset="0.6" stop-color="#43B4CA"/>
<stop offset="0.72" stop-color="#28E0B9"/>
<stop offset="0.97" stop-color="#19FB9B"/>
</linearGradient>
<clipPath id="clip0_2117_4194">
<rect width="30.98" height="30.98" fill="white" transform="translate(0 4)"/>
</clipPath>
</defs>
</svg>
