<svg width="60" height="60" viewBox="0 0 60 60" fill="none" xmlns="http://www.w3.org/2000/svg">
<g clip-path="url(#clip0_210_33202)">
<mask id="mask0_210_33202" style="mask-type:luminance" maskUnits="userSpaceOnUse" x="0" y="0" width="60" height="60">
<path d="M60 0H0V60H60V0Z" fill="white"/>
</mask>
<g mask="url(#mask0_210_33202)">
<path d="M60 0H0V60H60V0Z" fill="#9886E5"/>
<path fill-rule="evenodd" clip-rule="evenodd" d="M25.8311 38.88C23.3103 42.7426 19.0864 47.6307 13.4658 47.6307C10.8087 47.6307 8.25391 46.5369 8.25391 41.7855C8.25391 29.685 24.7751 10.9531 40.104 10.9531C48.8245 10.9531 52.299 17.0034 52.299 23.874C52.299 32.6931 46.5762 42.7768 40.8875 42.7768C39.0821 42.7768 38.1964 41.7855 38.1964 40.2132C38.1964 39.803 38.2646 39.3586 38.4008 38.88C36.4591 42.1957 32.7121 45.2721 29.2035 45.2721C26.6486 45.2721 25.3542 43.6656 25.3542 41.4095C25.3542 40.5892 25.5245 39.7346 25.8311 38.88ZM46.5429 23.6355C46.5429 25.6376 45.3617 26.6386 44.0403 26.6386C42.6989 26.6386 41.5378 25.6376 41.5378 23.6355C41.5378 21.6335 42.6989 20.6325 44.0403 20.6325C45.3617 20.6325 46.5429 21.6335 46.5429 23.6355ZM39.0355 23.6355C39.0355 25.6376 37.8543 26.6386 36.5329 26.6386C35.1916 26.6386 34.0304 25.6376 34.0304 23.6355C34.0304 21.6335 35.1916 20.6325 36.5329 20.6325C37.8543 20.6325 39.0355 21.6335 39.0355 23.6355Z" fill="#FFFDF8"/>
</g>
</g>
<defs>
<clipPath id="clip0_210_33202">
<rect width="60" height="60" rx="5" fill="white"/>
</clipPath>
</defs>
</svg>
