<svg width="48" height="48" viewBox="0 0 48 48" fill="none" xmlns="http://www.w3.org/2000/svg">
<circle cx="24" cy="24" r="24" fill="white"/>
<path fill-rule="evenodd" clip-rule="evenodd" d="M24 45.033C35.6162 45.033 45.033 35.6162 45.033 24C45.033 12.3838 35.6162 2.96699 24 2.96699C12.3838 2.96699 2.96699 12.3838 2.96699 24C2.96699 35.6162 12.3838 45.033 24 45.033ZM24 48C37.2548 48 48 37.2548 48 24C48 10.7452 37.2548 0 24 0C10.7452 0 0 10.7452 0 24C0 37.2548 10.7452 48 24 48Z" fill="#4600FF"/>
<path d="M28.4175 12.0404C28.4175 11.091 28.4175 10.2305 28.4175 9.31077C28.9515 9.25143 29.4856 9.2811 30.0196 9.2811C30.524 9.2811 31.0581 9.2811 31.6218 9.2811C31.6218 10.2602 31.6218 11.2096 31.6218 12.1591C34.5888 13.1975 36.1316 15.2448 36.28 18.3898C35.7163 18.4491 35.2119 18.4194 34.6778 18.4194C34.1734 18.4194 33.6987 18.4194 33.1943 18.4194C33.1053 18.0634 33.046 17.737 32.9866 17.4107C32.6899 16.1348 31.5625 15.3041 30.3163 15.1557C30.1086 15.1261 29.9306 15.1557 29.7229 15.1557C28.1208 15.1557 27.023 15.9568 26.5779 17.47C26.1922 18.7458 26.6076 19.9029 27.646 20.6447C28.5065 21.2381 29.4559 21.6238 30.4053 21.9798C31.6515 22.4545 32.8976 22.9589 33.9954 23.7303C35.2712 24.6204 36.2503 25.7479 36.6954 27.2611C36.9921 28.2995 37.0217 29.3676 36.814 30.4357C36.4877 32.3049 35.4492 33.6994 33.9657 34.7676C33.3723 35.2126 32.6899 35.4796 31.9778 35.6873C31.8592 35.717 31.7702 35.7763 31.6218 35.8357C31.6218 36.7554 31.6218 37.6455 31.6218 38.6246C31.0284 38.6246 30.524 38.6246 29.99 38.6246C29.4856 38.6246 28.9515 38.6246 28.4175 38.6246C28.4175 37.6455 28.4175 36.7258 28.4175 35.7467C26.6966 35.3906 25.3021 34.4708 24.323 33.0764C23.4923 31.9192 23.0175 30.5841 23.0769 29.0709C23.5813 28.9226 24.0857 29.0116 24.59 29.0116C25.0944 28.9819 25.5691 29.0116 26.0735 29.0116C26.1922 29.4566 26.3406 29.9017 26.4296 30.3467C26.6966 31.5632 28.1504 32.7203 29.6043 32.75C30.1977 32.75 30.791 32.8093 31.3548 32.6016C32.5712 32.1566 33.3427 31.2962 33.6987 30.0797C34.1438 28.4775 33.4613 27.1127 32.2745 26.3413C31.4141 25.8072 30.524 25.3919 29.5746 25.0358C28.3878 24.5908 27.201 24.1161 26.1625 23.404C24.8274 22.5139 23.8483 21.3864 23.4923 19.7842C23.4626 19.6952 23.4032 19.6062 23.4032 19.5172C23.1659 17.381 23.5516 15.4228 25.0944 13.8206C25.7768 13.1382 26.5779 12.6338 27.4977 12.3371C27.7944 12.2778 28.0911 12.1591 28.4175 12.0404Z" fill="#4600FF"/>
<path d="M14.2947 11.1206C16.8463 17.1436 19.3682 23.0182 21.8605 28.9522C20.8517 28.9522 19.8726 28.9522 18.8045 28.9522C18.2704 28.0621 17.9738 27.0237 17.499 26.0446C15.3925 26.0446 13.2562 26.0446 11.0903 26.0446C10.675 27.0237 10.2596 28.0028 9.8442 28.9522C8.83542 28.9522 7.85631 28.9522 6.90687 28.9522C6.8772 28.8929 6.84753 28.8929 6.84753 28.8632C6.84753 28.8335 6.84753 28.8039 6.84753 28.8039C9.28047 22.9292 11.7727 17.0843 14.2947 11.1206ZM14.3243 18.4491C13.9386 19.3392 13.6123 20.0809 13.3156 20.8227C13.0189 21.5644 12.5738 22.2765 12.3958 23.1369C13.6716 23.1369 14.8287 23.1369 16.0155 23.1369C16.1045 23.1369 16.1639 23.0479 16.2232 22.9886C15.6002 21.5347 15.0068 20.0809 14.3243 18.4491Z" fill="#4600FF"/>
</svg>
