<?xml version="1.0" encoding="UTF-8"?>
<svg version="1.1" xmlns="http://www.w3.org/2000/svg" width="60" height="60">
<path d="M0 0 C6.71815434 4.01960159 11.8878012 10.02942008 14.76953125 17.328125 C17.19255144 27.02020577 16.15009456 35.82336023 11.21875 44.46484375 C7.54641475 49.69147878 3.54072056 53.01960395 -2.5625 55 C-5.45703125 55.1953125 -5.45703125 55.1953125 -8.375 55.125 C-9.35082031 55.10695312 -10.32664063 55.08890625 -11.33203125 55.0703125 C-12.43611328 55.03550781 -12.43611328 55.03550781 -13.5625 55 C-13.5625 53.02 -13.5625 51.04 -13.5625 49 C-12.4796875 49.2784375 -12.4796875 49.2784375 -11.375 49.5625 C-6.06692675 50.38820028 -2.11521159 48.71225371 2.4375 46 C7.55169736 40.73968272 10.06721808 34.28221114 10.4375 27 C9.766812 18.1060939 6.35559954 12.46250657 -0.25 6.625 C-6.96122568 3.33270061 -14.15091798 2.06531205 -21.4296875 4.11328125 C-28.33337585 6.983496 -32.41951657 11.33687513 -35.5625 18 C-37.883839 24.96401701 -37.55869358 32.83104514 -34.5 39.5 C-31.93189464 44.03108245 -29.0175056 46.37940847 -24.5625 49 C-25.5525 51.475 -25.5525 51.475 -26.5625 54 C-33.83465439 50.50936589 -39.1837463 44.92019163 -42.08203125 37.2265625 C-44.13772357 27.70018347 -43.23722423 19.05016495 -38.40234375 10.59765625 C-29.70450323 -1.68273429 -13.96607641 -6.34042733 0 0 Z M-11.5625 51 C-10.5625 54 -10.5625 54 -10.5625 54 Z " fill="#FFFFFF" transform="translate(43.5625,4)"/>
<path d="M0 0 C1.65 0 3.3 0 5 0 C5 1.32 5 2.64 5 4 C5.639375 4.20625 6.27875 4.4125 6.9375 4.625 C9 6 9 6 9.75 9.125 C9.8325 10.07375 9.915 11.0225 10 12 C7.5625 11.625 7.5625 11.625 5 11 C4.67 10.34 4.34 9.68 4 9 C2.68 9 1.36 9 0 9 C-0.33 10.65 -0.66 12.3 -1 14 C-0.13375 14.226875 0.7325 14.45375 1.625 14.6875 C5.8300345 16.32279119 7.90904965 17.68826748 11 21 C11.77533825 25.34189423 11.50177019 27.21389337 9.125 30.9375 C7 33 7 33 5 33 C5 34.32 5 35.64 5 37 C3.35 37 1.7 37 0 37 C0 35.68 0 34.36 0 33 C-0.78375 32.79375 -1.5675 32.5875 -2.375 32.375 C-5 31 -5 31 -6.3125 27.875 C-6.6528125 26.451875 -6.6528125 26.451875 -7 25 C-8.65 25 -10.3 25 -12 25 C-12.33 23.68 -12.66 22.36 -13 21 C-15.31 21.33 -17.62 21.66 -20 22 C-20.33 22.99 -20.66 23.98 -21 25 C-22.65 25 -24.3 25 -26 25 C-25.29807915 20.06678166 -23.36469225 15.74025318 -21.4375 11.1875 C-21.10814453 10.39923828 -20.77878906 9.61097656 -20.43945312 8.79882812 C-19.63041094 6.86416204 -18.81576148 4.93184247 -18 3 C-15 4 -15 4 -14.00439453 5.84179688 C-13.57296143 7.01838867 -13.57296143 7.01838867 -13.1328125 8.21875 C-12.80410156 9.06824219 -12.47539062 9.91773438 -12.13671875 10.79296875 C-11.46319221 12.59510732 -10.79649653 14.39981386 -10.13671875 16.20703125 C-9.80542969 17.05652344 -9.47414063 17.90601562 -9.1328125 18.78125 C-8.84293457 19.56564453 -8.55305664 20.35003906 -8.25439453 21.15820312 C-7.09946774 23.27424432 -7.09946774 23.27424432 -4.36669922 23.76367188 C-3.19518311 23.8806543 -3.19518311 23.8806543 -2 24 C-1.67 25.32 -1.34 26.64 -1 28 C0.98 27.67 2.96 27.34 5 27 C5.33 25.35 5.66 23.7 6 22 C4.63875 21.566875 4.63875 21.566875 3.25 21.125 C-3.46666667 18.8 -3.46666667 18.8 -6 15 C-6.4375 11.625 -6.4375 11.625 -6 8 C-3.5625 5.25 -3.5625 5.25 -1 3 C-0.67 2.01 -0.34 1.02 0 0 Z M-17 13 C-17.33 14.32 -17.66 15.64 -18 17 C-17.01 16.67 -16.02 16.34 -15 16 C-15.66 15.01 -16.32 14.02 -17 13 Z " fill="#FFFFFF" transform="translate(35,13)"/>
<path d="M0 0 C3 0 6 0 9 0 C9 1.98 9 3.96 9 6 C5.37 6 1.74 6 -2 6 C-1.34 4.02 -0.68 2.04 0 0 Z " fill="#FFFFFF" transform="translate(20,53)"/>
</svg>
