<svg width="25" height="25" viewBox="0 0 25 25" fill="none" xmlns="http://www.w3.org/2000/svg">
<path d="M12.195 24.39C18.9301 24.39 24.39 18.9301 24.39 12.195C24.39 5.45989 18.9301 0 12.195 0C5.45989 0 0 5.45989 0 12.195C0 18.9301 5.45989 24.39 12.195 24.39Z" fill="#170636"/>
<path d="M18.4814 7.40339L15.3379 10.5469L18.4814 13.6904L21.6249 10.5469L18.4814 7.40339Z" fill="#14B23D"/>
<path d="M5.90911 7.38386L2.76562 10.5273L5.90911 13.6708L9.05259 10.5273L5.90911 7.38386Z" fill="#FFC100"/>
<path d="M12.2138 13.6885L9.07031 16.832L12.2138 19.9755L15.3573 16.832L12.2138 13.6885Z" fill="#14B23D"/>
<path d="M5.90918 7.38281L12.2164 13.6901H18.484L12.1768 7.38281H5.90918Z" fill="url(#paint0_linear_1026_29083)"/>
<defs>
<linearGradient id="paint0_linear_1026_29083" x1="7.48103" y1="5.81861" x2="10.2735" y2="16.9236" gradientUnits="userSpaceOnUse">
<stop stop-color="#FFDC00"/>
<stop offset="1" stop-color="#07E58A"/>
</linearGradient>
</defs>
</svg>
