<svg width="296" height="296" viewBox="0 0 296 296" fill="none" xmlns="http://www.w3.org/2000/svg">
<circle cx="147.749" cy="148.079" r="147.5" fill="#FF6666"/>
<path d="M155.568 109.692H140.562C139.701 112.076 138.872 114.43 138.004 116.768C136.385 121.107 134.766 125.437 133.147 129.772C132.068 132.664 131.016 135.562 129.931 138.451C128.267 142.884 126.57 147.304 124.915 151.727C123.743 154.868 122.648 158.032 121.47 161.173C120.009 165.114 118.513 169.042 117.046 172.98C115.505 177.118 113.98 181.263 112.442 185.401C112.17 186.13 111.875 186.849 111.538 187.704H128.969C130.817 182.395 132.652 177.126 134.474 171.895H162.42C164.203 177.128 166.001 182.405 167.815 187.727H185.087L155.568 109.692ZM138.878 158.162C141.951 148.82 145.008 139.523 148.081 130.187C151.284 139.484 154.48 148.755 157.721 158.162H138.878Z" fill="white"/>
<path d="M200.378 264.316C200.407 265.612 200.378 266.907 200.378 268.296C199.847 268.542 199.335 268.798 198.814 269.025C195.155 270.628 191.413 272.034 187.603 273.234C183.296 274.569 178.951 275.793 174.489 276.534C171.869 276.968 169.252 277.421 166.626 277.829C164.314 278.176 161.989 278.454 159.671 278.762C159.509 278.781 159.347 278.762 159.185 278.762C154.247 279.206 149.292 279.147 144.344 279.086C141.663 279.057 138.975 278.947 136.304 278.723C134.037 278.532 131.77 278.134 129.503 277.816C127.133 277.493 124.743 277.24 122.399 276.774C119.436 276.181 116.502 275.446 113.572 274.701C107.751 273.205 102.052 271.272 96.5224 268.918C92.3902 267.149 88.359 265.154 84.4472 262.94C81.0174 261.085 77.699 259.03 74.5091 256.788C71.4868 254.596 68.5001 252.345 65.549 250.033C61.3727 246.729 57.45 243.117 53.8138 239.227C51.2038 236.458 48.7428 233.56 46.3335 230.607C43.0493 226.52 40.0087 222.244 37.2277 217.8C35.9098 215.73 34.6631 213.609 33.4682 211.463C32.2182 209.218 30.9974 206.952 29.9062 204.63C28.151 200.919 26.5319 197.153 25.0812 193.296C23.3715 188.763 21.9758 184.135 20.7226 179.466C19.9908 176.772 19.5018 173.993 18.9675 171.228C18.4904 168.724 18.0727 166.211 17.7143 163.689C17.5071 162.261 17.5265 160.804 17.3193 159.379C16.9955 157.08 17.2124 154.752 16.9372 152.475C16.6732 150.181 16.619 147.867 16.7753 145.562C16.9113 143.363 16.8951 141.161 17.0667 138.975C17.2977 136.055 17.6215 133.14 18.0382 130.232C18.8611 124.505 20.064 118.838 21.639 113.271C22.9394 108.44 24.5788 103.707 26.5449 99.1067C28.164 95.4379 29.7831 91.769 31.5738 88.194C33.2739 84.8068 35.1974 81.5363 37.1889 78.2981C39.883 73.9168 42.9626 69.814 46.0389 65.7241C47.5168 63.8137 49.0984 61.9857 50.7764 60.2483C53.6551 57.1882 56.5598 54.1508 59.5454 51.1814C62.0194 48.7301 64.7848 46.6026 67.4887 44.4038C70.8622 41.6895 74.389 39.1714 78.0517 36.8621C80.1209 35.5409 82.2419 34.2909 84.3921 33.1057C86.8305 31.7619 89.2915 30.4601 91.8011 29.2555C96.7034 26.9062 101.768 24.9117 106.956 23.2875C109.993 22.3355 113.086 21.5454 116.178 20.7973C118.652 20.2015 121.168 19.7773 123.668 19.2851C125.229 18.9613 126.787 18.6634 128.357 18.4011C129.406 18.2262 130.472 18.1323 131.531 18.0093C133.329 17.7934 135.127 17.5905 136.925 17.4005C137.032 17.4005 137.139 17.4005 137.249 17.381C142.621 16.986 148.003 16.9795 153.385 17.0961C155.509 17.1414 157.63 17.4814 159.755 17.666C161.406 17.8053 163.067 17.87 164.716 18.0449C166.364 18.2197 167.993 18.4497 169.618 18.7152C171.244 18.9807 172.856 19.2851 174.476 19.6413C177.477 20.3084 180.489 20.9625 183.465 21.7364C185.732 22.3258 187.95 23.0317 190.161 23.7992C192.949 24.7018 195.676 25.7834 198.325 27.0374C198.973 27.3612 199.688 27.6073 200.333 27.8728V35.8129L197.57 34.8414C192.814 33.1478 188.076 31.3895 183.287 29.7834C180.12 28.7212 176.898 27.7983 173.66 26.9726C171.607 26.4512 169.479 26.2084 167.381 25.8748C165.282 25.5413 163.171 25.2272 161.076 24.9487C159.751 24.7771 158.417 24.6702 157.083 24.6249C154.026 24.4889 150.966 24.3205 147.906 24.3205C145.011 24.3205 142.107 24.4274 139.218 24.6443C136.33 24.8613 133.389 25.1819 130.475 25.6158C120.84 26.9811 111.399 29.4811 102.351 33.0636C97.7778 34.877 93.3173 36.9629 88.9936 39.3101C84.7159 41.6157 80.5322 44.0994 76.6431 47.043C74.1723 48.9146 71.6563 50.7248 69.2114 52.6289C67.9874 53.5841 66.8508 54.6624 65.7206 55.731C63.2175 58.0982 60.6917 60.4459 58.2728 62.8939C55.7794 65.4799 53.4375 68.2078 51.2588 71.0639C49.0795 73.8455 47.0492 76.7178 45.0739 79.6419C42.8373 82.905 40.8136 86.3089 39.0152 89.8325C37.49 92.8926 35.8644 95.9106 34.4591 99.0225C32.7463 102.928 31.2586 106.928 30.0033 111.004C28.6819 115.096 27.6006 119.262 26.7651 123.481C26.247 126.146 25.7936 128.811 25.4698 131.505C25.2075 133.571 25.0521 135.647 24.793 137.706C24.5145 139.908 24.6149 142.1 24.5048 144.296C24.4498 145.413 24.181 146.543 24.2749 147.641C24.5372 150.429 24.4401 153.224 24.5826 156.012C24.6991 158.301 24.9064 160.59 25.2302 162.864C25.554 165.228 26.1013 167.559 26.4218 169.923C26.9491 173.552 27.7403 177.137 28.789 180.651C29.9644 184.734 31.2986 188.776 32.7201 192.781C34.3232 197.145 36.2275 201.392 38.4194 205.491C40.9996 210.469 43.9708 215.235 47.305 219.743C49.2835 222.401 51.2426 225.076 53.3345 227.644C56.6333 231.693 60.2221 235.497 64.0724 239.026C69.5804 244.035 75.5075 248.562 81.7886 252.559C86.9791 255.871 92.4046 258.799 98.0217 261.321C103.45 263.785 109.067 265.811 114.818 267.38C117.622 268.186 120.468 268.834 123.344 269.323C124.811 269.553 126.259 269.941 127.713 270.194C128.762 270.378 129.827 270.45 130.886 270.589C132.308 270.777 133.729 270.977 135.151 271.175C135.258 271.175 135.365 271.204 135.475 271.211C137.343 271.327 139.215 271.473 141.086 271.534C144.198 271.661 147.31 271.813 150.425 271.823C152.835 271.823 155.25 271.677 157.656 271.499C159.729 271.356 161.808 271.175 163.858 270.851C167.264 270.304 170.658 269.789 174.045 269.041C178.044 268.154 181.972 267.056 185.887 265.868C189.002 264.925 191.997 263.685 194.996 262.445C196.719 261.729 198.454 261.043 200.284 260.304C200.507 261.681 200.349 263.005 200.378 264.316Z" fill="white"/>
<path d="M278.428 137.12C278.296 135.682 278.244 134.235 278.059 132.803C277.8 130.802 277.473 128.811 277.136 126.819C276.696 124.2 276.353 121.554 275.734 118.976C274.608 114.113 273.239 109.309 271.631 104.583C269.849 99.3307 267.712 94.2059 265.236 89.2432C263.565 85.9532 261.813 82.6988 259.909 79.5286C258.173 76.6531 256.237 73.8909 254.291 71.1481C252.869 69.1437 251.325 67.2234 249.777 65.3194C248.229 63.4153 246.652 61.3558 244.897 59.5619C241.659 56.2492 238.307 53.0498 234.949 49.8473C233.239 48.2282 231.416 46.7159 229.638 45.1648C226.828 42.7719 223.853 40.5806 220.733 38.6075C219.675 37.9242 218.522 37.3834 217.23 36.6646C217.207 37.4482 217.175 38.0278 217.175 38.6075C217.175 61.4907 217.175 84.374 217.175 107.257C217.175 107.827 217.327 108.43 217.035 108.97C215.97 109.08 214.963 109.265 213.959 109.271C207.913 109.32 201.868 109.304 195.825 109.359C194.559 109.359 193.296 109.579 191.991 109.702C191.962 109.994 191.92 110.201 191.92 110.405C191.92 136.095 191.932 161.784 191.956 187.474C191.956 187.516 192.011 187.561 192.043 187.6C192.075 187.639 192.117 187.678 192.231 187.788H208.823C210.229 187.788 211.631 187.765 213.033 187.788C214.435 187.811 215.795 187.642 217.243 187.924V259.43C217.638 259.226 217.783 259.171 217.906 259.084C222.301 256.043 226.828 253.187 230.918 249.725C232.88 248.064 234.943 246.506 236.775 244.716C239.933 241.63 242.98 238.427 246.008 235.212C247.68 233.469 249.261 231.641 250.745 229.736C253.436 226.216 256.046 222.634 258.452 218.904C260.646 215.485 262.667 211.959 264.507 208.338C265.942 205.533 267.26 202.661 268.487 199.756C269.714 196.852 270.858 193.827 271.923 190.816C272.755 188.465 273.48 186.069 274.125 183.659C274.773 181.202 275.304 178.702 275.854 176.212C276.291 174.246 276.738 172.277 277.078 170.292C277.402 168.456 277.574 166.597 277.791 164.745C277.927 163.579 277.949 162.394 278.156 161.245C278.521 159.031 278.706 156.791 278.71 154.548C278.804 148.739 278.966 142.923 278.428 137.12ZM215.128 174.466C214.387 174.492 213.648 174.722 212.913 174.703C211.482 174.667 210.051 174.521 208.522 174.414V122.694C211.203 122.694 213.833 122.694 216.462 122.694C218.971 122.686 221.461 123.125 223.816 123.989C226.65 125.031 229.107 126.896 230.872 129.345C233.055 132.298 234.081 135.647 234.677 139.225C235.477 144.03 235.373 148.862 235.205 153.68C235.116 156.287 234.702 158.873 233.974 161.377C232.734 165.616 230.519 169.22 226.802 171.691C224.797 173.022 222.495 173.734 220.092 174.142C218.447 174.365 216.788 174.473 215.128 174.466ZM271.505 154.389C271.463 156.407 271.12 158.421 270.932 160.435C270.796 161.928 270.747 163.427 270.553 164.91C270.268 167.07 269.97 169.236 269.53 171.367C268.882 174.586 268.141 177.795 267.321 180.978C266.35 184.79 265.055 188.507 263.711 192.205C262.367 195.903 260.696 199.387 259.067 202.92C257.923 205.338 256.646 207.691 255.24 209.967C253.498 212.842 251.645 215.653 249.764 218.441C247.802 221.311 245.696 224.081 243.456 226.74C240.395 230.489 237.12 234.057 233.647 237.426C231.75 239.23 229.681 240.856 227.67 242.546C226.319 243.683 224.943 244.79 223.421 246.04V187.571C223.959 187.315 224.514 187.099 225.082 186.923C228.19 186.146 231.182 184.966 233.984 183.413C237.59 181.502 240.781 178.896 243.375 175.745C245.258 173.482 246.846 170.988 248.099 168.323C249.387 165.575 250.34 162.682 250.936 159.706C251.38 157.404 251.729 155.102 251.953 152.76C252.143 150.84 252.206 148.909 252.141 146.98C252.076 145.07 251.733 143.169 251.571 141.258C251.277 138.401 250.639 135.589 249.67 132.884C248.289 128.721 246.167 124.841 243.407 121.431C240.81 118.287 237.638 115.665 234.062 113.705C231.063 112.008 227.77 111.14 224.571 109.997C224.179 109.858 223.79 109.699 223.424 109.56V50.1128C225.639 51.978 227.709 53.84 229.901 55.54C232.243 57.3455 234.427 59.3475 236.429 61.5242C239.327 64.6847 242.345 67.7448 244.907 71.2032C246.911 73.9071 249.022 76.5365 250.943 79.2987C252.357 81.3732 253.66 83.521 254.848 85.733C256.548 88.8319 258.19 91.9633 259.731 95.1432C262.087 100.104 264.088 105.226 265.718 110.47C267.014 114.569 268.05 118.743 268.957 122.946C269.52 125.537 269.954 128.163 270.278 130.805C270.56 133.127 270.893 135.443 271.204 137.761C271.204 137.816 271.204 137.871 271.204 137.923C271.638 143.405 271.615 148.894 271.505 154.383V154.389Z" fill="white"/>
<path d="M107.714 161.543C107.753 161.82 107.766 162.101 107.753 162.381C107.452 164.214 107.193 166.057 106.801 167.87C106.053 171.165 104.601 174.258 102.542 176.937C99.7211 180.679 96.0328 183.679 91.7949 185.68C89.0133 187.03 86.0503 187.859 83.0096 188.484C79.956 189.085 76.835 189.268 73.7322 189.028C71.4497 188.887 69.1898 188.493 66.9935 187.856C65.2544 187.365 63.5522 186.752 61.8998 186.02C59.8242 185.029 57.874 183.794 56.0905 182.342C54.3047 180.884 52.7318 179.184 51.4178 177.29C50.0574 175.442 48.9032 173.45 47.9756 171.351C46.8823 168.927 46.0235 166.404 45.4109 163.816C44.8706 161.433 44.4566 159.024 44.1707 156.598C43.7011 152.404 43.9149 148.214 43.9408 144.024C43.9408 142.172 44.3876 140.326 44.5042 138.467C44.6623 136.504 45.0159 134.561 45.5599 132.668C46.622 128.681 48.0597 124.863 50.3783 121.395C52.8676 117.626 56.2389 114.52 60.1998 112.348C63.3379 110.654 66.7116 109.438 70.209 108.74C71.4195 108.534 72.6415 108.402 73.8682 108.345C75.1923 108.174 76.5257 108.084 77.8609 108.077C84.4863 108.316 90.6906 109.922 96.228 113.769C98.6472 115.459 100.642 117.685 102.057 120.275C104.647 124.912 106.266 129.931 107.756 134.996C107.846 135.406 107.913 135.821 107.957 136.239H91.7236C91.1537 134.041 90.6615 131.871 90.0236 129.747C88.8157 125.722 85.8139 123.568 81.9896 122.386C79.9897 121.765 77.8867 121.545 75.8014 121.739C70.413 122.253 66.0868 124.498 63.5157 129.51C62.0614 132.418 61.1286 135.558 60.76 138.788C60.5527 140.407 60.5527 141.994 60.4621 143.596C60.4167 144.39 60.1382 145.196 60.2257 145.97C60.5495 149.079 60.3066 152.207 60.5657 155.306C60.8571 158.735 61.1809 162.19 62.4179 165.471C63.5999 168.602 65.2643 171.361 68.1463 173.203C70.2709 174.557 72.7229 175.309 75.2412 175.379C77.1161 175.447 79.004 175.538 80.8498 175.056C83.1942 174.444 85.5128 173.715 87.1675 171.817C87.9547 170.946 88.5995 169.956 89.078 168.884C90.0657 166.539 90.9983 164.159 91.2735 161.533L107.714 161.543Z" fill="white"/>
</svg>
