<svg width="31" height="31" viewBox="0 0 31 31" fill="none" xmlns="http://www.w3.org/2000/svg">
<path d="M30.98 15.49C30.98 6.93511 24.0449 0 15.49 0C6.93511 0 0 6.93511 0 15.49C0 24.0449 6.93511 30.98 15.49 30.98C24.0449 30.98 30.98 24.0449 30.98 15.49Z" fill="#3BC77B"/>
<path d="M20.066 14.9958C21.0144 14.9958 21.8731 14.6174 22.4979 13.9976L22.9995 15.6778C22.371 16.1182 21.651 16.4106 20.8935 16.5333C20.1359 16.656 19.3605 16.6056 18.6251 16.3861C17.8898 16.1665 17.2137 15.7834 16.6474 15.2654C16.0812 14.7475 15.6394 14.1081 15.3553 13.3952H12.6994L13.2221 12.3286H15.0629C15.0068 11.9761 14.9889 11.6185 15.0093 11.2621H13.3018L13.8195 10.1955H15.1749C15.3898 9.41055 15.7901 8.68873 16.342 8.09069C16.8939 7.49265 17.5814 7.03588 18.3465 6.75879C19.1117 6.4817 19.9322 6.39238 20.7391 6.49836C21.546 6.60434 22.3156 6.90251 22.9833 7.3678L22.4494 9.01063C22.0425 8.62229 21.5471 8.33907 21.0061 8.18551C20.465 8.03196 19.8947 8.01271 19.3445 8.12944C18.7944 8.24617 18.281 8.49535 17.8489 8.85537C17.4168 9.21539 17.0791 9.67538 16.865 10.1955H22.0598L21.6603 11.2621H16.6086C16.5812 11.6192 16.6086 11.9789 16.6895 12.3286H21.4624L21.0629 13.3952H17.1425C17.4565 13.8858 17.8888 14.2895 18.3997 14.5692C18.9106 14.8489 19.4836 14.9956 20.066 14.9958ZM6.99806 16.3287C6.99823 14.8375 7.46098 13.3831 8.32253 12.166C9.18408 10.949 10.402 10.0291 11.8083 9.53335C11.7896 10.279 11.8614 11.0241 12.0224 11.7524C11.2926 12.0996 10.6565 12.6164 10.1671 13.2595C9.67767 13.9026 9.34922 14.6535 9.20915 15.4495C9.06907 16.2454 9.12143 17.0633 9.36185 17.8349C9.60226 18.6065 10.0238 19.3093 10.5912 19.8848C11.1586 20.4603 11.8554 20.8917 12.6235 21.1431C13.3916 21.3944 14.2087 21.4583 15.0065 21.3295C15.8044 21.2007 16.5598 20.8829 17.2098 20.4027C17.8598 19.9225 18.3855 19.2937 18.743 18.5689C19.4524 18.7456 20.1884 18.8365 20.9509 18.8415C20.3645 20.4275 19.2386 21.7565 17.7706 22.5956C16.3025 23.4346 14.5859 23.7302 12.9218 23.4305C11.2576 23.1308 9.75203 22.2549 8.66892 20.9564C7.58582 19.6579 6.99431 18.0196 6.99806 16.3287Z" fill="white"/>
</svg>
