<svg width="31" height="31" viewBox="0 0 31 31" fill="none" xmlns="http://www.w3.org/2000/svg">
<path d="M30.98 15.492C30.98 6.93706 24.0449 0.00195312 15.49 0.00195312C6.93511 0.00195312 0 6.93706 0 15.492C0 24.0468 6.93511 30.982 15.49 30.982C24.0449 30.982 30.98 24.0468 30.98 15.492Z" fill="#A5E5F7"/>
<path fill-rule="evenodd" clip-rule="evenodd" d="M12.0383 9.84961C9.02796 10.8869 6.86523 13.7444 6.86523 17.1071C6.86523 21.3454 10.3012 24.7813 14.5395 24.7813C17.8751 24.7813 20.7137 22.6533 21.7716 19.6806H19.49C18.5599 21.4662 16.6921 22.6854 14.5395 22.6854C11.4587 22.6854 8.96113 20.1879 8.96113 17.1071C8.96113 14.9255 10.2134 13.0364 12.0383 12.1195V9.84961Z" fill="#02010A"/>
<path d="M16.6958 6.19925H14.3145V17.8086H16.6958V13.8904L17.5425 13.0437L20.5986 17.8086H22.4927L18.6516 11.9346L19.3392 11.2471L23.4872 17.8086H25.3814L20.4479 10.1383L24.3869 6.19925L21.0204 6.19922L16.6958 10.5229V6.19925Z" fill="#02010A"/>
</svg>
