<svg width="31" height="31" viewBox="0 0 31 31" fill="none" xmlns="http://www.w3.org/2000/svg">
<path d="M30.98 15.492C30.98 6.93706 24.0449 0.00195312 15.49 0.00195312C6.93511 0.00195312 0 6.93706 0 15.492C0 24.0468 6.93511 30.982 15.49 30.982C24.0449 30.982 30.98 24.0468 30.98 15.492Z" fill="#3BC77B"/>
<path fill-rule="evenodd" clip-rule="evenodd" d="M11.4485 9.85742C8.43816 10.8948 6.27539 13.7523 6.27539 17.115C6.27539 21.3535 9.71134 24.7895 13.9498 24.7895C17.2857 24.7895 20.1245 22.6611 21.1823 19.6882H18.9007C17.9706 21.4741 16.1026 22.6935 13.9498 22.6935C10.8689 22.6935 8.37132 20.1959 8.37132 17.115C8.37132 14.9334 9.62362 13.0443 11.4485 12.1273V9.85742Z" fill="white"/>
<path fill-rule="evenodd" clip-rule="evenodd" d="M22.273 6.2041H23.3762L23.2364 7.41908C23.6353 7.49513 23.9965 7.61541 24.2712 7.74017V9.36643C23.9768 9.15541 23.5385 8.90331 23.0832 8.75157L22.7722 11.4546C22.8135 11.4817 22.855 11.5089 22.8965 11.5361C23.2021 11.7361 23.5085 11.9368 23.776 12.1472C23.955 12.2878 24.1005 12.4348 24.1899 12.5832C24.6586 13.3608 25.2755 14.9799 23.6565 16.4327C23.2537 16.7942 22.7059 16.9354 22.1405 16.9451L22.0104 18.0761H20.9598L21.0974 16.8321C20.5543 16.7115 20.0737 16.5128 19.7857 16.3271V14.6494C20.1297 14.9725 20.682 15.3008 21.2464 15.4843L21.5596 12.6538C20.6132 12.3072 19.2554 11.2022 19.907 9.10014C20.292 7.85843 21.209 7.41365 22.1466 7.34692L22.273 6.2041ZM22.0017 8.65781C21.747 8.72606 21.5278 8.8825 21.3769 9.16405C21.0454 9.7834 21.2945 10.2748 21.7738 10.7175L22.0017 8.65781ZM22.5834 13.0953L22.2931 15.6195C22.655 15.5738 22.9576 15.4019 23.1268 15.047C23.5989 14.0569 23.1606 13.4593 22.5834 13.0953Z" fill="white"/>
<path fill-rule="evenodd" clip-rule="evenodd" d="M13.7285 7.14401V17.0478H15.3131V13.1963H16.1055L17.4039 17.0478H19.1866L17.4039 12.7562C18.1009 12.2866 19.3318 10.8546 18.6804 8.88267C18.0289 6.91072 15.1077 6.90192 13.7285 7.14401ZM15.3126 8.53078C15.9435 8.40606 17.2053 8.54398 17.2053 10.0934C17.2053 11.6427 15.9435 11.9127 15.3126 11.8541V8.53078Z" fill="white"/>
</svg>
