<svg width="296" height="296" viewBox="0 0 296 296" fill="none" xmlns="http://www.w3.org/2000/svg">
<path fill-rule="evenodd" clip-rule="evenodd" d="M148.466 0.727051C229.928 0.727051 295.966 66.7649 295.966 148.227C295.966 229.689 229.928 295.727 148.466 295.727C67.0037 295.727 0.96582 229.689 0.96582 148.227C0.96582 66.7649 67.0037 0.727051 148.466 0.727051Z" fill="#2775CA"/>
<path fill-rule="evenodd" clip-rule="evenodd" d="M182.169 44.3667C178.843 43.3041 176.123 45.2783 176.123 48.7704V57.3584C176.123 59.6997 177.887 62.3647 180.086 63.1703C215.39 76.1012 240.654 110.035 240.654 149.765C240.654 189.494 215.39 223.426 180.086 236.358C177.675 237.241 176.123 239.603 176.123 242.17V250.758C176.123 254.25 178.843 256.224 182.169 255.162C226.784 240.906 259.091 199.109 259.091 149.765C259.091 100.42 226.784 58.6216 182.169 44.3667Z" fill="white"/>
<path fill-rule="evenodd" clip-rule="evenodd" d="M120.81 48.7704C120.81 45.2783 118.09 43.3041 114.764 44.3667C70.1477 58.6216 37.8406 100.42 37.8406 149.765C37.8406 199.11 70.1477 240.906 114.764 255.162C118.09 256.224 120.81 254.25 120.81 250.758V242.17C120.81 239.828 119.045 237.163 116.846 236.358C81.5422 223.426 56.2781 189.492 56.2781 149.765C56.2781 110.036 81.5422 76.1012 116.846 63.1703C119.045 62.3647 120.81 59.6997 120.81 57.3582V48.7704Z" fill="white"/>
<path d="M186.187 178.549L177.749 174.78C175.891 173.95 173.701 174.726 172.801 176.552C168.819 184.633 162.2 189.785 153.456 189.785C145.541 189.785 139.191 185.908 134.325 178.074C132.423 175.044 130.912 171.661 129.761 167.954H152.419C153.855 167.954 155.169 167.145 155.817 165.863L161.222 158.566C162.501 156.034 160.662 153.044 157.826 153.044H127.211C127.122 151.474 127.069 149.874 127.069 148.224C127.052 146.589 127.098 144.988 127.183 143.41H152.419C153.855 143.41 155.169 142.602 155.817 141.32L161.222 134.023C162.502 131.491 160.662 128.5 157.826 128.5H129.733C133.842 115.104 142.42 106.327 153.456 106.5C161.866 106.5 168.395 111.104 172.583 118.645C173.521 120.335 175.634 120.983 177.402 120.202L185.883 116.458C187.912 115.562 188.775 113.108 187.701 111.167C179.872 97.0276 168.457 89.9253 153.456 89.9253C139.768 89.9253 128.8 95.3675 120.472 106.17C115.604 112.532 112.216 119.997 110.205 128.5H97.8847C96.4484 128.5 95.1345 129.309 94.4872 130.591L89.0804 137.888C87.8019 140.42 89.6417 143.41 92.4779 143.41H108.169C108.093 144.994 108.021 146.582 108.021 148.224C108.001 149.852 108.039 151.456 108.108 153.044H97.8847C96.4484 153.044 95.1345 153.853 94.4872 155.134L89.0804 162.431C87.8019 164.963 89.6417 167.954 92.4779 167.954H110.169C115.764 191.079 131.872 206.849 153.456 206.523C168.782 206.523 180.332 198.905 188.043 183.735C189.025 181.803 188.164 179.433 186.187 178.549Z" fill="white"/>
</svg>
