<svg width="49" height="48" viewBox="0 0 49 48" fill="none" xmlns="http://www.w3.org/2000/svg">
<path d="M24.5001 48C37.7791 48 48.5431 37.2541 48.5431 24C48.5431 10.7458 37.7791 0 24.5001 0C11.2211 0 0.457092 10.7448 0.457092 24C0.457092 37.2552 11.2211 48 24.5001 48Z" fill="#132330"/>
<path d="M37.2177 38.9314C30.6722 38.9314 24.1903 39.122 17.6448 38.8678C14.3402 38.7407 12.0525 36.1352 11.9254 32.7672C11.7347 26.9842 11.7347 21.2649 11.9254 15.482C12.0525 11.9232 14.4038 9.69903 17.8354 9.25419C18.9793 9 20.1867 9 21.3306 9C26.6051 9 31.8796 9 37.0906 9C37.2177 13.1942 36.9635 13.4484 33.2777 13.4484C28.8293 13.4484 24.4445 13.5119 19.9961 13.4484C17.4541 13.3848 16.2467 14.4652 16.3102 16.9436C16.3102 21.6462 16.3102 26.3488 16.3102 31.1149C16.3102 33.5933 17.4541 34.6736 19.9961 34.6101C24.4445 34.483 28.8293 34.5465 33.2777 34.6101C37.0271 34.5465 37.0906 34.6101 37.2177 38.9314Z" fill="white"/>
<path d="M33.2777 30.2886C28.9564 30.2886 24.8893 30.2886 20.8222 30.2886C20.4409 23.4889 26.0332 27.1747 28.8293 25.5224C29.3377 23.2347 28.7022 21.8366 25.8425 22.0273C24.1903 22.1544 22.538 22.0273 20.8222 22.0273C20.6951 18.9134 21.3941 17.0069 24.8258 17.5153C26.0332 17.706 27.3677 17.5153 28.6387 17.5789C31.1806 17.6424 33.0235 18.9134 33.2777 21.4553C33.4684 24.315 33.2777 27.2383 33.2777 30.2886Z" fill="white"/>
</svg>
