<svg width="31" height="31" viewBox="0 0 31 31" fill="none" xmlns="http://www.w3.org/2000/svg">
<path d="M30.98 15.492C30.98 6.93706 24.0449 0.00195312 15.49 0.00195312C6.93511 0.00195312 0 6.93706 0 15.492C0 24.0468 6.93511 30.982 15.49 30.982C24.0449 30.982 30.98 24.0468 30.98 15.492Z" fill="#A5E5F7"/>
<path d="M22.9198 10.2718C22.7279 10.1087 20.1968 10.2948 20.1968 10.2948C19.7939 10.3735 19.7824 10.103 19.7824 10.103L19.7517 9.96858C19.7517 9.96858 19.1491 6.36292 16.4262 6.19981C16.4262 6.19981 14.5073 6.11346 12.7802 8.03431C12.7802 8.03431 11.5866 9.36221 11.343 9.90914C11.2501 10.0332 11.1123 10.1159 10.9592 10.1394C10.9592 10.1394 8.52403 11.0989 8.19013 11.3464C7.85623 11.594 7.95793 11.874 7.95793 11.874C7.96553 12.235 8.09893 12.5817 8.33509 12.8548C8.57123 13.1277 8.8953 13.3096 9.2513 13.3689C9.2513 13.3689 9.50267 13.4592 10.2894 12.5821L11.2489 11.6822C11.2489 11.6822 12.0011 13.8908 12.1144 13.9983C12.2275 14.1058 12.3312 14.2439 12.8992 14.1788C13.4672 14.1135 14.1695 13.6741 14.2213 13.0274C14.2213 13.0274 14.2808 12.8853 13.943 12.5573C13.943 12.5573 12.3772 10.6575 12.3369 10.6153C12.2967 10.5731 12.2238 10.4867 12.3696 10.3064C12.5154 10.1259 13.9546 7.88655 15.8236 7.73495C15.8236 7.73495 16.9232 7.59679 17.1266 8.93237C17.1266 8.93237 16.5835 8.75007 16.4319 8.84026C16.2803 8.93045 16.1728 9.02639 16.2228 9.43704V10.1067C16.2223 10.1125 16.2223 10.1183 16.2228 10.1241C16.2228 10.197 16.1921 10.3697 15.8082 10.2948C15.8082 10.2948 13.2695 10.103 13.0853 10.2718C12.9011 10.4406 12.9491 10.4944 13.1179 10.7189L15.6317 14.0252C15.4602 14.1486 15.3267 14.3175 15.2463 14.5129C15.1659 14.7082 15.1419 14.9222 15.1769 15.1305C15.2584 15.6206 15.6753 15.8292 15.9386 15.9132C16.0807 15.9585 16.2372 15.9253 16.3812 15.9642C16.452 15.9833 16.5147 16.0294 16.5241 16.1303C16.5471 16.3779 16.7543 17.1895 16.7428 17.3353C16.7312 17.4812 16.7831 17.5272 16.4262 17.5772C16.0692 17.627 14.0851 17.7537 13.9315 18.3736L16.0164 18.4489C16.2877 18.4586 16.5779 18.492 16.7646 18.6892C16.8588 18.7889 16.9295 18.9085 16.9711 19.0393L17.0364 19.8894C17.0364 19.8894 17.0389 19.9373 17.0364 19.9647C17.0339 19.9921 17.0244 20.0183 17.0087 20.041C16.9931 20.0635 16.9718 20.0817 16.9471 20.0936C16.9224 20.1056 16.8809 20.1139 16.8809 20.1139L16.6526 20.1255C16.6526 20.1255 15.2441 20.2022 14.9946 20.8931L16.3315 20.9341C16.6058 20.9426 16.924 20.9501 17.0826 21.174C17.1167 21.2223 17.1403 21.2787 17.1439 21.3441C17.1593 21.6241 17.1573 22.0674 17.1573 22.0674C17.1573 22.0674 17.1573 22.1979 16.904 22.1979C16.6507 22.1979 15.6912 22.4167 15.6145 22.9655C15.6145 22.9655 16.9366 22.9809 16.9577 22.9904C17.0359 23.0173 17.1046 23.0665 17.1551 23.132C17.2552 23.2619 17.2732 23.4404 17.2573 23.6037C17.253 23.6486 17.2446 23.6931 17.2324 23.7367C17.2104 23.8155 17.1522 23.9028 17.1048 23.9695C17.0713 24.0168 17.0537 24.0489 17.0336 24.1034C16.9939 24.2109 16.9419 24.4 17.0172 24.5084C17.1861 24.7002 17.5929 24.7962 17.9977 24.7866C18.4027 24.777 18.8076 24.704 18.9764 24.5084C19.0858 24.3509 18.9266 24.0229 18.9266 24.0229C18.9266 24.0229 18.8306 23.8866 18.8037 23.8521C18.7324 23.6979 18.7142 23.5245 18.7519 23.3589C18.7579 23.2764 18.7881 23.1975 18.8386 23.132C18.8891 23.0665 18.9577 23.0173 19.036 22.9904C19.0667 22.9809 20.3887 22.9655 20.3887 22.9655C20.312 22.4129 19.3487 22.1979 19.0993 22.1979C18.8498 22.1979 18.8555 22.0751 18.8555 22.0751C18.8555 22.0751 18.8555 21.6319 18.869 21.3517C18.8766 21.1914 19.0061 21.0845 19.1156 21.0223C19.2122 20.9675 19.3244 20.953 19.4353 20.95L21.0201 20.9084C20.7707 20.2099 19.3621 20.1409 19.3621 20.1409L19.1337 20.1293C19.1337 20.1293 19.0924 20.1204 19.0676 20.1084C19.0429 20.0965 19.0216 20.0783 19.0061 20.0558C18.9904 20.0331 18.9809 20.0069 18.9784 19.9795C18.9758 19.9521 18.9784 19.9048 18.9784 19.9048L19.0185 19.3809C19.0352 19.1642 19.0618 18.9382 19.1964 18.7675C19.2134 18.7458 19.2315 18.7249 19.2505 18.7048C19.4372 18.5077 19.727 18.474 19.9982 18.4643L22.0831 18.3888C21.9239 17.7691 19.9397 17.6462 19.5886 17.5925C19.2374 17.5387 19.2834 17.4965 19.272 17.3507C19.2605 17.2048 19.4639 16.3912 19.4926 16.1456C19.5012 16.072 19.5376 16.0277 19.5843 16.0017C19.7468 15.9115 19.9558 15.9734 20.1306 15.9105C20.393 15.8162 20.7616 15.604 20.8378 15.1458C20.8733 14.9377 20.8497 14.7237 20.7696 14.5284C20.6895 14.333 20.5563 14.164 20.3849 14.0405L22.8795 10.7343C23.0561 10.4944 23.1021 10.4349 22.9198 10.2718Z" fill="#02010A"/>
</svg>
