<svg width="119" height="119" viewBox="0 0 119 119" fill="none" xmlns="http://www.w3.org/2000/svg">
<path d="M114.904 38.4732C112.113 31.2179 107.917 24.5846 102.558 18.9533C97.1984 13.3221 90.7802 8.80366 83.6709 5.65694C76.5617 2.51022 68.9013 0.797081 61.1287 0.615697C53.3561 0.434313 45.6241 1.78825 38.3758 4.59992C35.432 5.74048 32.5862 7.11948 29.8669 8.72316C22.0574 13.2904 15.3989 19.5867 10.4028 27.1282C5.40675 34.6697 2.20608 43.2559 1.04668 52.2272C-0.112726 61.1984 0.799984 70.316 3.7147 78.8795C6.62941 87.4431 11.4686 95.2247 17.8604 101.627C21.5439 105.299 25.7053 108.459 30.2323 111.021C37.8724 115.423 46.4002 118.061 55.1915 118.742C63.9828 119.423 72.8153 118.13 81.0424 114.958C89.2695 111.786 96.6831 106.815 102.741 100.408C108.798 94.0016 113.346 86.3219 116.052 77.9311C117.656 72.9806 118.587 67.837 118.819 62.6385C119.213 54.4156 117.879 46.2014 114.904 38.5254V38.4732Z" fill="#B13932"/>
<path d="M114.904 38.4733C117.88 46.1493 119.214 54.3635 118.82 62.5865C116.963 65.0583 114.995 67.4442 112.921 69.7369C106.453 54.8182 96.52 41.6568 83.9459 31.3451C71.3718 21.0334 56.5193 13.8687 40.6211 10.4457C42.7297 7.49076 44.995 4.65088 47.4073 1.93821C61.1649 -0.981218 75.5126 1.09202 87.8805 7.78655C100.248 14.4811 109.828 25.3595 114.904 38.4733Z" fill="#CC4641"/>
<path d="M118.768 62.5859C118.553 67.782 117.64 72.9256 116.054 77.8785C115.572 76.4374 115.05 75.0102 114.488 73.5987L112.922 69.7364C114.994 67.4426 116.963 65.0567 118.821 62.5859H118.768Z" fill="#CC4641"/>
<path d="M114.485 73.5986L116.051 77.8784C113.357 86.2783 108.817 93.969 102.764 100.387C96.7119 106.805 89.2999 111.788 81.0714 114.971C72.8429 118.154 64.0065 119.456 55.2096 118.781C46.4127 118.107 37.8781 115.473 30.2312 111.073C29.0238 108.418 27.9608 105.7 27.0469 102.931C42.9574 104.47 59.0076 102.271 73.917 96.5073C88.8264 90.7439 102.182 81.5765 112.919 69.7363L114.485 73.5986Z" fill="#B13932"/>
<path d="M112.919 69.7371C102.182 81.5941 88.8197 90.7759 73.9003 96.5487C58.9809 102.321 42.9178 104.525 26.9946 102.984C21.7403 87.5995 20.2307 71.184 22.5912 55.0995C24.9516 39.0149 31.114 23.725 40.5671 10.498C56.4696 13.9083 71.3291 21.0616 83.9124 31.3643C96.4956 41.667 106.44 54.8219 112.919 69.7371Z" fill="#BE4137"/>
<path d="M47.407 1.9375C44.9947 4.65017 42.7294 7.49005 40.6208 10.445C37.0703 9.67538 33.4804 9.1004 29.8672 8.72259C32.5881 7.13661 35.4339 5.77509 38.3761 4.65154C41.311 3.51271 44.3305 2.60527 47.407 1.9375Z" fill="#A5322D"/>
<path d="M29.8669 8.72266C33.4801 9.10047 37.07 9.67545 40.6205 10.445C31.159 23.678 24.9918 38.9771 22.6312 55.0715C20.2707 71.166 21.7848 87.5913 27.048 102.983C23.967 102.69 20.9012 102.255 17.8604 101.678C11.4686 95.2764 6.62941 87.4948 3.7147 78.9312C0.799984 70.3677 -0.112726 61.2501 1.04668 52.2788C2.20608 43.3076 5.40675 34.7214 10.4028 27.1799C15.3989 19.6383 22.0574 13.3421 29.8669 8.77485V8.72266Z" fill="#A5322D"/>
<path d="M28.4564 106.847C28.9784 108.308 29.5526 109.717 30.179 111.074C25.6703 108.508 21.5268 105.349 17.8594 101.68C20.8993 102.249 23.9656 102.667 27.0469 102.932L28.4564 106.847Z" fill="#B13932"/>
<path d="M20 26.1563H39.8367C42.5185 26.1506 45.1941 26.4129 47.8236 26.9392C50.2253 27.3905 52.5248 28.2748 54.6099 29.5489C56.5893 30.7708 58.2243 32.4774 59.3603 34.5072C60.5609 36.5949 61.1351 39.2568 61.1351 42.4927C61.1351 46.6682 60.0389 50.1129 57.742 52.9313C55.2517 55.8283 51.7325 57.6437 47.928 57.9941L63.0666 83.2555H50.8513L37.5921 59.0901H30.1794V83.3077H20V26.1563ZM38.1141 50.3739C39.5235 50.3739 40.9852 50.3217 42.4468 50.1651C43.8301 50.0453 45.1862 49.7108 46.4664 49.1735C47.6329 48.6902 48.6441 47.8958 49.3897 46.877C50.1205 45.8331 50.5381 44.3717 50.5381 42.4406C50.6018 41.0265 50.238 39.6261 49.4941 38.4217C48.7979 37.4315 47.84 36.6544 46.7274 36.1774C45.5332 35.6549 44.2654 35.3204 42.9689 35.1857C41.6529 35.0188 40.328 34.9317 39.0015 34.9248H30.1794V50.4261H38.1141V50.3739ZM63.693 42.023H72.8806V47.8686H73.0372C74.3291 45.5986 76.301 43.7913 78.675 42.7015C81.0896 41.6311 83.7076 41.0969 86.3486 41.1357C89.0917 41.0877 91.8138 41.6214 94.3355 42.7015C96.6321 43.6873 98.6954 45.1455 100.391 46.9813C102.086 48.8388 103.383 51.0236 104.202 53.4011C105.063 55.9742 105.486 58.6735 105.455 61.3866C105.481 64.108 105.022 66.8123 104.097 69.3721C103.25 71.7519 101.956 73.9483 100.287 75.8441C98.6275 77.688 96.6002 79.1638 94.3355 80.1761C91.953 81.2318 89.3722 81.7656 86.7663 81.7419C85.13 81.7615 83.4981 81.5685 81.9115 81.1678C80.6401 80.8263 79.4135 80.3357 78.2574 79.7063C77.2679 79.1852 76.3399 78.555 75.4907 77.8274C74.8015 77.2287 74.1721 76.5645 73.6114 75.8441H73.3504V99.1221H63.693V42.0752V42.023ZM95.7972 61.3866C95.794 59.9077 95.5289 58.4411 95.0142 57.0546C94.52 55.6823 93.7569 54.4225 92.7695 53.3489C91.1053 51.6407 88.9623 50.4769 86.6232 50.011C84.2841 49.5451 81.8587 49.799 79.6668 50.7392C78.3041 51.3601 77.0794 52.2474 76.0649 53.3489C75.0775 54.4225 74.3144 55.6823 73.8202 57.0546C72.7948 59.8696 72.7948 62.9558 73.8202 65.7708C74.3131 67.1437 75.0764 68.4038 76.0649 69.4765C77.7291 71.1848 79.872 72.3486 82.2112 72.8144C84.5503 73.2803 86.9757 73.0264 89.1676 72.0862C90.5289 71.4628 91.7531 70.5759 92.7695 69.4765C93.758 68.4038 94.5213 67.1437 95.0142 65.7708C95.5289 64.3843 95.794 62.9177 95.7972 61.4388V61.3866Z" fill="white"/>
</svg>
