<svg width="48" height="48" viewBox="0 0 48 48" fill="none" xmlns="http://www.w3.org/2000/svg">
<path d="M24 48C37.2548 48 48 37.2548 48 24C48 10.7452 37.2548 0 24 0C10.7452 0 0 10.7452 0 24C0 37.2548 10.7452 48 24 48Z" fill="#0E57E7"/>
<path d="M9.19019 9.46523C10.496 9.4125 11.8014 9.37231 13.108 9.34774C13.7149 9.33594 14.3211 9.31998 14.9276 9.29417C18.8247 9.13267 18.8247 9.13267 19.741 9.66785C20.2585 10.1731 20.5016 10.7578 20.7132 11.4399C20.8575 11.8708 21.0913 12.2312 21.3339 12.6135C21.4907 12.8837 21.6472 13.154 21.8033 13.4245C21.9738 13.7183 22.1443 14.0121 22.3148 14.3059C22.4375 14.5174 22.4375 14.5174 22.5626 14.7333C22.9414 15.3855 23.3239 16.0357 23.7074 16.6852C24.0089 17.1959 24.3081 17.7078 24.6045 18.2215C24.6693 18.3332 24.7341 18.4449 24.8009 18.56C24.9256 18.7751 25.0497 18.9905 25.1732 19.2063C25.4535 19.7376 25.4535 19.7376 25.9132 20.0943C27.0095 18.0517 27.7636 15.9279 28.4199 13.708C28.478 13.5125 28.478 13.5125 28.5373 13.3131C28.904 12.0381 29.1667 10.7683 29.4562 9.46523C32.2623 9.46523 35.0684 9.46523 37.9595 9.46523C37.744 10.0039 37.6337 10.2711 37.2902 10.6892C37.2145 10.782 37.1388 10.8748 37.0608 10.9705C36.9803 11.0671 36.8998 11.1637 36.8169 11.2633C36.7342 11.3638 36.6515 11.4643 36.5663 11.5678C36.0063 12.2444 35.4319 12.906 34.8378 13.553C34.576 13.8391 34.323 14.1308 34.071 14.4255C33.224 15.396 32.3033 16.2951 31.3246 17.132C31.014 17.4026 30.7113 17.6809 30.4093 17.9612C29.6636 18.653 28.9011 19.3129 28.1077 19.9503C27.7914 20.2069 27.4849 20.4711 27.1799 20.7409C26.7635 21.0863 26.7635 21.0863 26.4801 21.0863C27.5717 22.6401 28.6746 24.1852 29.7887 25.7229C31.0158 27.4168 32.2374 29.1145 33.4511 30.818C34.2419 31.9276 35.0377 33.0334 35.8369 34.137C36.4594 34.9984 37.0734 35.8655 37.6821 36.7367C37.9693 37.1463 38.2571 37.5432 38.5745 37.9306C38.8098 38.2345 38.8098 38.2345 38.8098 38.518C37.5065 38.574 36.2036 38.6167 34.8993 38.6428C34.2935 38.6553 33.6885 38.6723 33.0831 38.6997C29.1793 38.8722 29.1793 38.8722 28.2408 38.2924C27.6982 37.7508 27.4153 37.1432 27.17 36.4256C26.9595 35.8832 26.6241 35.4242 26.2941 34.9484C25.6896 34.0157 25.092 33.0787 24.496 32.1405C23.8814 31.1735 23.2659 30.2071 22.6448 29.2441C22.584 29.1496 22.5233 29.055 22.4607 28.9576C22.0693 28.3523 21.6591 27.7642 21.2364 27.1803C19.3626 30.8025 18.4015 34.5384 17.5517 38.518C14.9795 38.518 12.4072 38.518 9.75707 38.518C10.0097 37.8863 10.3004 37.4025 10.696 36.8616C10.7595 36.7739 10.823 36.6863 10.8884 36.5959C11.9082 35.197 13.0259 33.8805 14.1504 32.5657C14.2792 32.415 14.2792 32.415 14.4106 32.2612C16.1088 30.298 17.8954 28.3249 19.8879 26.6555C20.1131 26.4628 20.3193 26.2571 20.5278 26.0465C19.9141 25.1487 19.2999 24.2512 18.6855 23.3539C18.6167 23.2534 18.548 23.1529 18.4772 23.0494C17.6262 21.8062 16.7658 20.57 15.9003 19.3368C15.2403 18.395 14.5887 17.4477 13.9415 16.4971C13.4859 15.8284 13.0249 15.1637 12.5601 14.5013C12.3118 14.1474 12.0643 13.793 11.817 13.4384C11.653 13.2035 11.4889 12.9686 11.3249 12.7337C11.2391 12.6107 11.1533 12.4878 11.0649 12.3612C10.5117 11.5704 9.94947 10.7884 9.36844 10.0177C9.19019 9.74867 9.19019 9.74867 9.19019 9.46523Z" fill="#FAFCFD"/>
</svg>
