<svg width="49" height="49" viewBox="0 0 49 49" fill="none" xmlns="http://www.w3.org/2000/svg">
<path d="M23.858 0.110352C24.603 0.110352 25.348 0.110352 26.0723 0.110352C26.0723 0.172363 26.1137 0.151692 26.1551 0.151692C26.5069 0.131022 26.8587 0.193033 27.2312 0.193033C27.2519 0.193033 27.2726 0.193033 27.2726 0.193033C27.4382 0.296385 27.6244 0.213704 27.79 0.275715C27.9142 0.317056 28.059 0.296385 28.1832 0.317055C28.3694 0.337726 28.5557 0.379067 28.742 0.420407C28.8661 0.441078 28.9903 0.441078 29.1145 0.461748C29.2386 0.503089 29.3628 0.523759 29.487 0.54443C29.7353 0.585771 29.9629 0.627111 30.2113 0.689123C30.3768 0.730463 30.5424 0.751134 30.7079 0.813145C30.8735 0.854486 31.0391 0.916497 31.2046 0.957838C31.515 1.01985 31.8254 1.1232 32.1359 1.22655C32.4463 1.3299 32.736 1.43326 33.0257 1.53661C33.3982 1.66063 33.7707 1.80532 34.1432 1.97069C34.2881 2.0327 34.4123 2.11538 34.5571 2.15672C34.8055 2.2394 35.0124 2.36342 35.2608 2.46678C35.6746 2.65281 36.0678 2.85951 36.461 3.08689C36.5231 3.10756 36.5852 3.12823 36.6266 3.16957C36.8542 3.31426 37.0819 3.45896 37.3095 3.58298C37.5372 3.72767 37.7648 3.85169 37.9924 3.99639C38.2201 4.14108 38.4477 4.30644 38.6754 4.45113C38.7788 4.51315 38.8823 4.59583 38.9858 4.67851C39.1927 4.8232 39.379 5.00923 39.5859 5.15393C39.7929 5.29862 39.9791 5.46398 40.1654 5.60868C40.2895 5.71203 40.4137 5.83605 40.5379 5.9394C40.6414 6.00141 40.7241 6.10477 40.8069 6.18745C40.8897 6.27013 40.9932 6.33214 41.0759 6.41482C41.6347 6.99359 42.2348 7.53102 42.7522 8.13046C42.9591 8.35784 43.1661 8.58521 43.3523 8.81259C43.58 9.0813 43.8076 9.35002 44.0146 9.66007C44.2215 9.94946 44.4492 10.2388 44.6561 10.5282C44.8217 10.7556 44.9872 11.0036 45.1321 11.231C45.2769 11.4584 45.4011 11.7064 45.546 11.9545C45.7322 12.2439 45.8978 12.5333 46.0633 12.8433C46.4151 13.5254 46.7463 14.2076 47.036 14.9104C47.1602 15.1997 47.2636 15.4891 47.3878 15.7992C47.5327 16.1712 47.6568 16.5433 47.781 16.9361C47.8431 17.1634 47.9052 17.3701 47.9879 17.5768C48.0914 17.8869 48.1535 18.1969 48.2363 18.507C48.2777 18.6724 48.3191 18.8377 48.3604 19.0031C48.4225 19.2305 48.4639 19.4578 48.5053 19.7059C48.526 19.8299 48.5053 19.9746 48.5467 20.0986C48.6088 20.3053 48.6088 20.5327 48.6709 20.7394C48.7123 20.8428 48.6709 20.9668 48.7122 21.0908C48.7536 21.1942 48.7329 21.3182 48.7536 21.4422C48.795 21.5869 48.7329 21.7523 48.795 21.8969C48.7743 22.207 48.8778 22.4964 48.8364 22.8064C48.8364 22.8891 48.8364 22.9511 48.8364 23.0338C48.8364 23.0545 48.8571 23.0545 48.8778 23.0752C48.8778 23.84 48.8778 24.5841 48.8778 25.3489C48.8571 25.3696 48.8364 25.3696 48.8364 25.3902C48.8364 25.659 48.8571 25.9277 48.795 26.1964C48.7743 26.3411 48.795 26.4858 48.7536 26.6305C48.7123 26.7545 48.7743 26.8992 48.7122 27.0439C48.6709 27.1679 48.7123 27.3126 48.6709 27.4366C48.6502 27.5193 48.6502 27.6226 48.6295 27.726C48.5881 27.8293 48.6295 27.9327 48.5881 28.0361C48.5674 28.1187 48.5881 28.2014 48.5467 28.2841C48.5053 28.3668 48.5674 28.4701 48.5053 28.5528C48.5053 28.8009 48.4225 29.0282 48.3811 29.2763C48.3397 29.483 48.2984 29.7104 48.2363 29.9171C48.1535 30.1651 48.0914 30.4131 48.0293 30.6612C47.9259 31.0333 47.8017 31.4053 47.6982 31.7567C47.5534 32.2115 47.4085 32.6869 47.1809 33.121C47.1602 33.3277 47.0153 33.5137 46.9532 33.7204C46.8911 33.9271 46.7877 34.1131 46.6842 34.2992C46.5807 34.5059 46.4772 34.7126 46.3738 34.9193C46.2496 35.188 46.1254 35.4774 45.9599 35.7254C45.815 35.9735 45.6701 36.2422 45.5253 36.4696C45.339 36.759 45.1735 37.0483 44.9872 37.3377C44.8424 37.5651 44.6768 37.7925 44.5319 38.0199C44.4285 38.1852 44.325 38.3299 44.2008 38.4746C43.9939 38.7433 43.7869 39.012 43.58 39.2601C43.3523 39.5288 43.1247 39.8182 42.8971 40.0869C42.7522 40.2523 42.5866 40.4176 42.4418 40.583C42.0279 41.0171 41.614 41.4718 41.138 41.8439C40.9725 41.9886 40.8276 42.1746 40.6414 42.2986C40.4965 42.402 40.3723 42.5673 40.2068 42.6707C40.1033 42.7534 39.9998 42.8567 39.8963 42.9394C39.648 43.1048 39.4411 43.2908 39.1927 43.4562C39.0065 43.6009 38.7995 43.7456 38.6133 43.8696C38.2408 44.1176 37.889 44.3657 37.5165 44.593C37.3716 44.6964 37.206 44.7791 37.0612 44.8824C36.9163 44.9651 36.7508 45.0271 36.6059 45.1305C36.4817 45.2132 36.3369 45.2752 36.2127 45.3372C36.0678 45.3992 35.9437 45.5025 35.8195 45.5645C35.6126 45.6679 35.4056 45.7713 35.1987 45.8539C34.8469 46.0193 34.4951 46.1847 34.1432 46.3294C34.0191 46.3707 33.8949 46.4534 33.7707 46.4947C33.5845 46.5361 33.4189 46.6601 33.2327 46.6807C32.8395 46.8875 32.4049 46.9701 31.991 47.1148C31.8254 47.1768 31.6185 47.2182 31.4529 47.2595C31.1839 47.3422 30.9149 47.3835 30.6459 47.4662C30.4803 47.5076 30.3147 47.5282 30.1699 47.5902C30.025 47.6316 29.8595 47.6523 29.6939 47.6936C29.549 47.7349 29.4042 47.7349 29.2593 47.7763C29.1765 47.797 29.0731 47.8383 28.9903 47.8176C28.8868 47.8176 28.804 47.8796 28.7006 47.859C28.6178 47.859 28.5143 47.8796 28.4315 47.9003C28.3281 47.921 28.2039 47.921 28.1004 47.9416C27.9969 47.9623 27.8728 47.9623 27.7693 47.983C27.6244 48.0037 27.4796 48.0037 27.314 48.0243C27.1485 48.0657 26.9829 48.0037 26.8174 48.0657C26.4862 48.045 26.1551 48.107 25.8447 48.107C25.555 48.107 25.2653 48.107 24.9755 48.107C24.6858 48.107 24.3754 48.0863 24.0857 48.107C23.7959 48.1277 23.5269 48.045 23.2372 48.0657C22.9889 48.0863 22.7405 47.983 22.4715 48.0243H22.4508C22.368 47.9623 22.2645 47.983 22.1611 47.983C22.0576 47.983 21.9748 47.9416 21.8713 47.9416C21.7679 47.921 21.6851 47.9416 21.5816 47.9003C21.4988 47.859 21.3747 47.921 21.2712 47.859C21.0436 47.8796 20.8366 47.797 20.609 47.7763C20.4848 47.7556 20.3813 47.7143 20.2572 47.7349C20.1951 47.6523 20.0916 47.7143 20.0088 47.6729C19.9467 47.6316 19.8433 47.6109 19.7812 47.6109C19.6984 47.6109 19.6156 47.5696 19.5329 47.5489C19.4708 47.5489 19.4294 47.5076 19.3673 47.5076C19.3052 47.5076 19.2431 47.4869 19.181 47.4662C19.0155 47.4249 18.8499 47.3629 18.6844 47.3215C18.2705 47.2388 17.898 47.0942 17.4841 46.9908C17.1737 46.9081 16.8839 46.7841 16.5942 46.6807C16.3666 46.5981 16.1182 46.474 15.8906 46.3914C15.4974 46.2467 15.1249 46.0813 14.7524 45.9159C14.1523 45.6472 13.5728 45.3372 13.014 45.0271C12.7243 44.8618 12.4346 44.7171 12.1656 44.531C11.6689 44.1796 11.1515 43.8696 10.6756 43.4975C10.3031 43.2081 9.93055 42.9187 9.55805 42.6293C9.3511 42.464 9.14415 42.278 8.93721 42.0919C8.70957 41.8852 8.48193 41.6785 8.25429 41.4718C7.94387 41.1824 7.65414 40.8724 7.36442 40.5623C7.11608 40.2936 6.86775 40.0249 6.64011 39.7562C6.41247 39.4874 6.20552 39.2394 5.97788 38.9707C5.85371 38.8053 5.70885 38.6606 5.60538 38.4953C5.5019 38.3299 5.37774 38.1645 5.25357 38.0199C5.1294 37.8545 5.02593 37.6891 4.92245 37.5238C4.7362 37.2344 4.54995 36.9243 4.3637 36.6349C4.23953 36.4489 4.13606 36.2629 4.03259 36.0562C3.92911 35.8495 3.80495 35.6634 3.70147 35.4567C3.45314 34.9813 3.2048 34.5059 2.97716 33.9891C2.93577 33.9064 2.87369 33.8444 2.85299 33.7618C2.77021 33.5137 2.64605 33.2657 2.54257 33.0176C2.4598 32.8109 2.37702 32.6042 2.29424 32.3768C2.12868 31.8601 1.94243 31.3433 1.79757 30.8266C1.75618 30.7025 1.73548 30.5578 1.6941 30.4338C1.61132 30.2064 1.54923 29.9584 1.50784 29.7104C1.48715 29.5243 1.38368 29.359 1.40437 29.1729C1.3009 29.0902 1.38368 28.9662 1.32159 28.8629C1.2802 28.7802 1.3009 28.6562 1.25951 28.5528C1.23881 28.4495 1.19742 28.3461 1.21812 28.2428C1.11465 28.1601 1.19742 28.0361 1.15604 27.9327C1.09395 27.8293 1.11465 27.7053 1.09395 27.602C1.05256 27.4159 1.05256 27.2299 1.05256 27.0439C1.05256 27.0232 1.05256 27.0025 1.05256 27.0025C0.969784 26.9199 1.01117 26.8165 1.01117 26.7338C0.990478 26.6511 0.969784 26.5478 0.969784 26.4651C0.949089 26.2997 0.969784 26.1344 0.928394 25.969C0.887005 25.845 0.928394 25.6796 0.928394 25.5556C0.928394 25.4109 0.887005 25.2662 0.887005 25.1215C0.887005 24.8528 0.887005 24.5841 0.887005 24.2947C0.887005 24.088 0.866311 23.8813 0.887005 23.6746C0.9077 23.4679 0.866311 23.2819 0.9077 23.0752C0.949089 22.8891 0.887005 22.6618 0.928394 22.455C0.949089 22.269 0.969784 22.1037 0.969784 21.9176V21.8969C1.05256 21.8143 1.01117 21.6902 1.01117 21.6076C0.990478 21.5042 1.05256 21.4215 1.05256 21.3182C1.05256 21.2148 1.05256 21.1321 1.09395 21.0288C1.13534 20.9254 1.09395 20.8221 1.13534 20.7187C1.17673 20.6154 1.15604 20.4914 1.17673 20.388C1.21812 20.264 1.19742 20.14 1.21812 20.0366C1.23881 19.9126 1.2802 19.7886 1.3009 19.6645C1.34229 19.4165 1.38368 19.1891 1.44576 18.9411C1.52854 18.6724 1.56993 18.507 1.61132 18.3416C1.65271 18.1763 1.71479 17.9902 1.75618 17.8249C1.79757 17.7009 1.79757 17.5562 1.85965 17.4321C1.90104 17.3081 1.94243 17.1634 1.98382 17.0394C2.0459 16.8327 2.10799 16.6467 2.17007 16.44C2.25285 16.1712 2.33563 15.9025 2.4598 15.6545C2.56327 15.4064 2.62535 15.1171 2.77021 14.869C2.8323 14.5796 2.97716 14.3316 3.08063 14.0835C3.37036 13.4634 3.68078 12.864 4.01189 12.2645C4.09467 12.1405 4.17745 11.9958 4.23953 11.8718C4.38439 11.6444 4.50856 11.4171 4.65342 11.1897C4.81898 10.921 4.98454 10.6729 5.15009 10.4249C5.31565 10.1768 5.5019 9.92879 5.68815 9.70142C5.85371 9.47404 6.01927 9.24667 6.20552 9.01929C6.30899 8.8746 6.45386 8.77125 6.53663 8.62655C6.61941 8.50253 6.72289 8.41985 6.80566 8.3165C6.88844 8.19248 7.01261 8.08912 7.11608 7.98577C7.21956 7.88242 7.30233 7.7584 7.40581 7.63437C7.50928 7.53102 7.61275 7.407 7.73692 7.30365C8.06804 6.99359 8.37845 6.6422 8.73026 6.33214C8.9786 6.12544 9.22693 5.87739 9.47527 5.67069C9.59944 5.56734 9.7236 5.46398 9.82708 5.36063C9.90985 5.27795 9.99263 5.19527 10.0961 5.15393C10.2617 5.05058 10.4065 4.92655 10.5514 4.8232C10.7376 4.67851 10.9446 4.53382 11.1308 4.40979C11.3378 4.2651 11.524 4.14108 11.731 3.99639C12.0621 3.78968 12.3932 3.58298 12.7243 3.37627C12.8692 3.29359 13.014 3.23158 13.1382 3.1489C13.3659 3.00421 13.6142 2.88018 13.8418 2.75616C14.2764 2.50812 14.7524 2.30141 15.2077 2.09471C15.4767 1.97069 15.7457 1.86733 16.0148 1.76398C16.4287 1.63996 16.7598 1.55728 17.0909 1.41259C17.2564 1.3299 17.4427 1.26789 17.6083 1.24722C17.7945 1.20588 17.9808 1.08186 18.167 1.10253C18.3326 0.999179 18.4981 0.978508 18.6637 0.937167C18.8292 0.895827 18.9948 0.813145 19.181 0.813145C19.2224 0.730463 19.3259 0.792475 19.4087 0.730463C19.4708 0.689123 19.5949 0.689123 19.6777 0.689123C19.7605 0.668452 19.8433 0.647782 19.9467 0.647782C20.0295 0.647782 20.1123 0.5651 20.1951 0.5651C20.3399 0.5651 20.4641 0.54443 20.5676 0.503089C20.6917 0.461748 20.8366 0.461748 20.9608 0.441078C21.147 0.399737 21.354 0.399737 21.5402 0.337726C21.623 0.317056 21.7058 0.358396 21.7679 0.317055C21.8506 0.275715 21.9127 0.296385 21.9748 0.296385C22.0576 0.296385 22.1197 0.255044 22.2025 0.255044C22.3473 0.234374 22.5129 0.275715 22.6577 0.213704C22.9682 0.234374 23.2579 0.131022 23.5683 0.172363C23.6511 0.172363 23.7132 0.172363 23.7959 0.172363C23.8373 0.151692 23.8373 0.131022 23.858 0.110352ZM31.4529 13.9182C31.4529 13.9595 31.4529 14.0009 31.4529 14.0215C31.2874 14.3523 31.1839 14.7036 31.0391 15.0344C30.977 15.1997 30.8942 15.3651 30.8321 15.5305C30.7079 15.8612 30.5631 16.1919 30.4389 16.5226C30.3354 16.7914 30.232 17.0394 30.1285 17.3081C30.0043 17.6595 29.8388 18.0109 29.7146 18.3623C29.6525 18.5277 29.5697 18.693 29.5077 18.8791C29.4042 19.1271 29.3214 19.3752 29.2386 19.6025C29.1765 19.7679 29.0731 19.9333 29.0317 20.1193C28.9489 20.388 28.8247 20.6361 28.7213 20.8841C28.6178 21.1528 28.5143 21.4009 28.4108 21.6696C28.266 22.021 28.1211 22.3724 27.9969 22.7444C27.9349 22.9098 27.8521 23.0752 27.79 23.2405C27.6658 23.5919 27.521 23.9226 27.3968 24.2534C27.2933 24.5014 27.1899 24.7701 27.0864 25.0182C26.9415 25.3696 26.7967 25.721 26.6725 26.093C26.6104 26.2584 26.5276 26.4238 26.4655 26.5891C26.3414 26.9199 26.1965 27.2506 26.0723 27.5813C25.9689 27.85 25.8654 28.0981 25.7619 28.3668C25.6378 28.7182 25.4722 29.0696 25.348 29.421C25.286 29.607 25.1825 29.793 25.1204 29.9791C25.079 30.1031 25.0169 30.2271 24.9548 30.3718C24.9135 30.3098 24.8721 30.2685 24.8721 30.2271C24.8514 30.0411 24.7479 29.8757 24.6651 29.6897C24.603 29.5037 24.5203 29.3176 24.4375 29.1316C24.334 28.9042 24.2305 28.6562 24.1477 28.4288C24.0236 28.0774 23.858 27.726 23.7339 27.3746C23.6718 27.2092 23.589 27.0439 23.5269 26.8578C23.4441 26.5891 23.32 26.3411 23.2165 26.093C23.113 25.8243 23.0095 25.5763 22.9061 25.3076C22.7612 24.9562 22.6163 24.6048 22.4922 24.2327C22.4301 24.0673 22.3473 23.902 22.2852 23.7366C22.1611 23.3852 22.0162 23.0338 21.8713 22.6824C21.7679 22.4344 21.6644 22.207 21.5816 21.959C21.4368 21.6076 21.2919 21.2562 21.1677 20.8841C21.1056 20.7187 21.0229 20.5534 20.9608 20.388C20.8366 20.0573 20.6917 19.7266 20.5676 19.3958C20.4641 19.1271 20.3606 18.8791 20.2572 18.6104C20.133 18.259 19.9881 17.9282 19.8433 17.5768C19.6777 17.1634 19.5122 16.75 19.3466 16.3366C18.7465 16.3366 18.1463 16.3366 17.5255 16.3366C17.5255 15.5305 17.5255 14.745 17.5255 13.9388C16.5528 13.9388 15.6009 13.9388 14.6489 13.9388C14.6075 14.6003 14.6282 34.2578 14.6696 34.4439C15.6216 34.4439 16.5735 34.4439 17.5462 34.4439C17.5462 29.3796 17.5462 24.3154 17.5462 19.2511V19.2305C17.5462 19.2305 17.5462 19.2305 17.5669 19.2098C17.5876 19.2305 17.6083 19.2718 17.6289 19.2925C17.6496 19.4165 17.7117 19.5405 17.7738 19.6645C17.8566 19.8712 17.9601 20.0573 18.0428 20.264C18.167 20.6361 18.3326 20.9668 18.4567 21.3388C18.5188 21.5042 18.6016 21.6696 18.6637 21.8349C18.7672 22.1036 18.8706 22.3724 18.9741 22.6411C19.0983 22.9098 19.2017 23.1992 19.3259 23.4679C19.4708 23.8193 19.6156 24.1707 19.7398 24.5428C19.8019 24.7081 19.8847 24.8735 19.9467 25.0388C20.0502 25.3076 20.1537 25.5763 20.2572 25.845C20.3813 26.1137 20.4848 26.4031 20.609 26.6718C20.7331 27.0025 20.878 27.3333 21.0022 27.664C21.1056 27.9327 21.2091 28.1807 21.3126 28.4495C21.3954 28.6148 21.4574 28.8009 21.5402 28.9869C21.6023 29.1729 21.6851 29.359 21.7472 29.545C21.8506 29.8137 21.9541 30.0618 22.0576 30.3305C22.1197 30.4958 22.2025 30.6819 22.2645 30.8679C22.3266 31.0539 22.4301 31.24 22.4922 31.426C22.575 31.612 22.6577 31.7981 22.7198 31.9841C22.8026 32.1908 22.8854 32.3975 22.9682 32.6042C23.0509 32.8523 23.1751 33.0796 23.2579 33.3277C23.4027 33.7204 23.5683 34.1131 23.7132 34.4852C24.5409 34.4852 25.3687 34.4852 26.1758 34.4852C26.2172 34.3819 26.2379 34.2992 26.2793 34.2165C26.3414 34.0925 26.4035 33.9685 26.4449 33.8444C26.569 33.493 26.7346 33.1416 26.8587 32.7902C26.9208 32.6249 27.0243 32.4595 27.0657 32.2735C27.1485 32.0048 27.2726 31.7567 27.3761 31.5087C27.4796 31.24 27.5831 30.9919 27.6865 30.7232C27.8314 30.3718 27.9762 30.0204 28.1004 29.6483C28.1625 29.483 28.2453 29.3176 28.3074 29.1523C28.4315 28.8009 28.5764 28.4495 28.7213 28.0981C28.804 27.912 28.8868 27.7053 28.9696 27.5193C29.1145 27.1679 29.2593 26.8165 29.3835 26.4444C29.4456 26.2791 29.5283 26.1137 29.5904 25.9483C29.7146 25.5969 29.8595 25.2662 29.9836 24.9355C30.0871 24.6875 30.1906 24.4187 30.294 24.1707C30.4389 23.8193 30.5838 23.4679 30.7079 23.0958C30.77 22.9305 30.8528 22.7651 30.9149 22.5997C31.0391 22.269 31.1632 21.9383 31.3081 21.6076C31.3909 21.4009 31.4943 21.1735 31.5771 20.9668C31.7013 20.6981 31.8048 20.4087 31.9082 20.1193C31.9703 19.9333 32.0531 19.7679 32.1152 19.5819C32.1566 19.4578 32.2186 19.3338 32.26 19.2098H32.2807C32.2807 24.274 32.2807 29.359 32.2807 34.4232C33.2741 34.4232 34.226 34.4232 35.1987 34.4232C35.1987 27.5813 35.1987 20.7394 35.1987 13.9182C35.178 13.9182 35.178 13.9182 35.1573 13.9182C33.957 13.9182 32.7153 13.9182 31.4529 13.9182ZM19.9467 11.5204C19.9467 12.3266 19.9467 13.112 19.9467 13.8975C20.5883 13.9182 22.1197 13.9182 22.2852 13.8768C22.2852 13.0914 22.2852 12.3059 22.2852 11.4997C21.5195 11.5204 20.7331 11.5204 19.9467 11.5204Z" fill="black"/>
<path d="M31.4529 13.9182C32.7153 13.9182 33.957 13.9182 35.1987 13.9182C35.1987 13.9182 35.2193 13.9181 35.24 13.9181C35.24 20.76 35.24 27.5812 35.24 34.4231C34.2674 34.4231 33.2947 34.4231 32.3221 34.4231C32.3221 29.3589 32.3221 24.274 32.3221 19.2097H32.3014C32.26 19.3337 32.1979 19.4578 32.1565 19.5818C32.0945 19.7678 32.0117 19.9332 31.9496 20.1192C31.8461 20.4086 31.7426 20.6773 31.6185 20.9667C31.5357 21.1734 31.4322 21.4008 31.3495 21.6075C31.2046 21.9382 31.0804 22.2689 30.9563 22.5997C30.8942 22.765 30.8114 22.9304 30.7493 23.0958C30.6044 23.4471 30.4596 23.7985 30.3354 24.1706C30.2319 24.4187 30.1285 24.6874 30.025 24.9354C29.8801 25.2661 29.7353 25.5969 29.6318 25.9483C29.5697 26.1136 29.4869 26.279 29.4249 26.4444C29.28 26.7958 29.1351 27.1472 29.011 27.5192C28.9282 27.7053 28.8454 27.912 28.7626 28.098C28.6178 28.4494 28.4729 28.8008 28.3487 29.1522C28.2867 29.3175 28.2039 29.4829 28.1418 29.6483C27.9969 29.9997 27.8521 30.3511 27.7279 30.7231C27.6244 30.9918 27.5209 31.2399 27.4175 31.5086C27.314 31.7566 27.2105 32.0047 27.1071 32.2734C27.045 32.4388 26.9622 32.6041 26.9001 32.7902C26.7759 33.1416 26.6104 33.493 26.4862 33.8444C26.4448 33.9684 26.3621 34.0924 26.3207 34.2164C26.2793 34.2991 26.2586 34.4025 26.2172 34.4851C25.3894 34.4851 24.5823 34.4851 23.7545 34.4851C23.6097 34.1131 23.4441 33.7203 23.2992 33.3276C23.2165 33.0796 23.0923 32.8522 23.0095 32.6041C22.9267 32.3974 22.844 32.1907 22.7612 31.984C22.6784 31.798 22.5956 31.612 22.5335 31.4259C22.4508 31.2399 22.368 31.0745 22.3059 30.8678C22.2438 30.6818 22.1817 30.4958 22.099 30.3304C21.9955 30.0617 21.892 29.8136 21.7885 29.5449C21.7058 29.3589 21.6437 29.1728 21.5816 28.9868C21.5195 28.8008 21.4367 28.6354 21.354 28.4494C21.2298 28.2013 21.147 27.9326 21.0435 27.6639C20.9194 27.3332 20.7745 27.0025 20.6503 26.6717C20.5469 26.403 20.4227 26.1136 20.2985 25.8449C20.1744 25.5762 20.0709 25.3075 19.9881 25.0388C19.926 24.8734 19.8432 24.708 19.7812 24.5427C19.6363 24.1913 19.4914 23.8192 19.3673 23.4678C19.2638 23.1991 19.1396 22.9097 19.0155 22.641C18.8913 22.3723 18.7878 22.1036 18.705 21.8349C18.643 21.6695 18.5602 21.5041 18.4981 21.3388C18.3532 20.9874 18.2084 20.636 18.0842 20.2639C18.0221 20.0572 17.898 19.8712 17.8152 19.6645C17.7738 19.5404 17.7117 19.4371 17.6703 19.2924C17.6703 19.2511 17.6289 19.2304 17.6082 19.2097C17.6082 19.2097 17.5875 19.2097 17.5875 19.2304V19.2511C17.5875 24.3153 17.5875 29.3796 17.5875 34.4438C16.6356 34.4438 15.6836 34.4438 14.711 34.4438C14.6696 34.2578 14.6696 14.6002 14.6903 13.9388C15.6422 13.9388 16.5942 13.9388 17.5668 13.9388C17.5668 14.7242 17.5668 15.5304 17.5668 16.3365C18.1877 16.3365 18.7878 16.3365 19.388 16.3365C19.5535 16.7499 19.7191 17.1633 19.8846 17.5768C20.0088 17.9282 20.1537 18.2589 20.2985 18.6103C20.402 18.879 20.5055 19.127 20.6089 19.3958C20.7331 19.7265 20.878 20.0572 21.0021 20.3879C21.0642 20.5533 21.147 20.7187 21.2091 20.884C21.354 21.2354 21.4988 21.5868 21.623 21.9589C21.7265 22.2069 21.8299 22.4343 21.9127 22.6823C22.0576 23.0337 22.2024 23.3851 22.3266 23.7365C22.3887 23.9019 22.4715 24.0673 22.5335 24.2326C22.6784 24.584 22.8233 24.9354 22.9474 25.3075C23.0509 25.5762 23.1544 25.8242 23.2579 26.093C23.3613 26.341 23.4648 26.589 23.5683 26.8578C23.6304 27.0231 23.7131 27.1885 23.7752 27.3745C23.8994 27.7259 24.0649 28.0773 24.1891 28.4287C24.2719 28.6561 24.3754 28.9041 24.4788 29.1315C24.5616 29.3175 24.6444 29.5036 24.7065 29.6896C24.7686 29.8756 24.872 30.041 24.9134 30.227C24.9134 30.2684 24.9548 30.3097 24.9962 30.3717C25.0583 30.227 25.1204 30.103 25.1618 29.979C25.2238 29.793 25.3066 29.6069 25.3894 29.4209C25.5136 29.0695 25.6584 28.7181 25.8033 28.3667C25.9068 28.098 26.0102 27.8499 26.1137 27.5812C26.2379 27.2505 26.3827 26.9198 26.5069 26.589C26.569 26.4237 26.6518 26.2583 26.7139 26.093C26.8587 25.7416 27.0036 25.3902 27.1278 25.0181C27.2312 24.7701 27.3347 24.5013 27.4382 24.2533C27.583 23.9226 27.7072 23.5918 27.8314 23.2404C27.8935 23.0751 27.9762 22.9097 28.0383 22.7444C28.1832 22.393 28.328 22.0416 28.4522 21.6695C28.5557 21.4008 28.6592 21.1527 28.7626 20.884C28.8661 20.636 28.9696 20.3879 29.073 20.1192C29.1351 19.9539 29.2179 19.7885 29.28 19.6025C29.3835 19.3544 29.4662 19.1064 29.549 18.879C29.6111 18.7136 29.6939 18.5483 29.756 18.3622C29.8801 18.0108 30.025 17.6594 30.1699 17.308C30.2733 17.0393 30.3768 16.7913 30.4803 16.5226C30.6044 16.1918 30.7493 15.8611 30.8735 15.5304C30.9356 15.365 30.9976 15.1997 31.0804 15.0343C31.2253 14.7036 31.3288 14.3522 31.4943 14.0214C31.4736 14.0008 31.4529 13.9595 31.4529 13.9182Z" fill="#E4FF3F"/>
<path d="M19.9467 11.5204C20.7331 11.5204 21.4988 11.5205 22.2852 11.5205C22.2852 12.306 22.2852 13.1121 22.2852 13.8976C22.099 13.9389 20.5883 13.9389 19.9468 13.9183C19.9468 13.1328 19.9467 12.3472 19.9467 11.5204Z" fill="#E4FF3F"/>
</svg>
