<svg width="35" height="35" viewBox="0 0 35 35" fill="none" xmlns="http://www.w3.org/2000/svg">
<path d="M35.0002 17.5C35.0015 18.9282 34.8278 20.3514 34.4829 21.739C34.4433 21.9011 34.4007 22.0631 34.3553 22.2232C32.2928 29.5937 25.5242 35 17.4987 35C9.66647 35 3.04295 29.8599 0.807395 22.7699C0.753247 22.5993 0.702 22.4272 0.653653 22.2535C-0.172664 19.3021 -0.216264 16.1928 0.526984 13.2202C0.567596 13.0573 0.610785 12.8952 0.656553 12.7342C2.7316 5.38549 9.48662 0 17.4987 0C25.8037 0 32.7569 5.78533 34.5496 13.549C34.5857 13.705 34.618 13.8629 34.6463 14.0227C34.8801 15.1677 34.9987 16.3324 35.0002 17.5Z" fill="url(#paint0_linear_860_9071)"/>
<path d="M17.4987 34.1406C25.257 34.1406 31.5463 26.8512 31.5463 17.8593C31.5463 8.86738 25.257 1.578 17.4987 1.578C9.74035 1.578 3.451 8.86738 3.451 17.8593C3.451 26.8512 9.74035 34.1406 17.4987 34.1406Z" fill="url(#paint1_linear_860_9071)"/>
<path opacity="0.15" d="M34.48 22.1854C34.4403 22.3507 34.3978 22.5161 34.3523 22.6795C33.9714 22.7008 33.5675 22.7117 33.1408 22.7124C32.9841 22.7124 32.8236 22.7124 32.6573 22.7066C29.4983 22.6408 24.6317 21.8508 19.3619 18.4656C19.2788 18.4114 19.1956 18.3602 19.1125 18.308C18.8843 18.4598 18.6561 18.6155 18.4279 18.7769C13.3253 22.4049 8.49742 23.4182 5.34521 23.6348C4.80759 23.6716 4.29995 23.6871 3.82615 23.6871C2.83972 23.6903 1.85447 23.6186 0.878929 23.4724C0.822847 23.3003 0.769665 23.1282 0.719385 22.9541C2.24534 23.198 3.79454 23.2629 5.33554 23.1475C8.42007 22.9348 13.1465 21.935 18.1475 18.3795C18.3186 18.2577 18.4888 18.1397 18.6599 18.0247C14.7042 15.633 10.2772 14.1268 5.68364 13.6096C3.97105 13.4124 2.24405 13.3716 0.524063 13.4878C0.564674 13.3215 0.607865 13.1561 0.653633 12.9918C2.3491 12.8882 4.05039 12.9341 5.73779 13.1291C10.4772 13.6619 15.041 15.2324 19.1047 17.7288C22.9118 15.255 27.2815 13.7817 31.8093 13.4453C32.7762 13.3737 33.661 13.3611 34.4394 13.3814C34.4809 13.5429 34.5196 13.7063 34.5564 13.8697C33.6454 13.8417 32.7337 13.8614 31.8248 13.9287C27.4611 14.2579 23.2469 15.6625 19.5582 18.0169C19.5795 18.0314 19.6017 18.045 19.624 18.0585C24.7855 21.377 29.5534 22.1545 32.6438 22.2231C33.3061 22.2376 33.9201 22.2212 34.48 22.1854Z" fill="white"/>
<path fill-rule="evenodd" clip-rule="evenodd" d="M25.1597 26.9047H22.535L12.6792 12.0311V26.9047H10.1574V8.66003H13.5284L17.1805 14.2722H22.6379V8.66003H25.1597V14.2722H28.5716V16.1437H25.1597V19.7308H28.5716V21.6022H25.1597V26.9047ZM20.7325 19.7308L18.3983 16.1437H22.6379V19.7308H20.7325ZM21.9503 21.6022L22.6379 22.6588V21.6022H21.9503Z" fill="white"/>
<defs>
<linearGradient id="paint0_linear_860_9071" x1="17.4987" y1="-0.631023" x2="17.4987" y2="35.5713" gradientUnits="userSpaceOnUse">
<stop stop-color="#105A3F"/>
<stop offset="1" stop-color="#25C173"/>
</linearGradient>
<linearGradient id="paint1_linear_860_9071" x1="17.4639" y1="0.654578" x2="17.5364" y2="36.6623" gradientUnits="userSpaceOnUse">
<stop offset="0.14" stop-color="#0E483B"/>
<stop offset="1" stop-color="#1DAC66" stop-opacity="0"/>
</linearGradient>
</defs>
</svg>
