<svg width="49" height="49" viewBox="0 0 49 49" fill="none" xmlns="http://www.w3.org/2000/svg">
<path d="M24.8778 48.1101C38.1326 48.1101 48.8778 37.3649 48.8778 24.1101C48.8778 10.8553 38.1326 0.110107 24.8778 0.110107C11.623 0.110107 0.877808 10.8553 0.877808 24.1101C0.877808 37.3649 11.623 48.1101 24.8778 48.1101Z" fill="#0F6EFF"/>
<path d="M14.9361 19.4946C16.5188 20.0696 17.9223 20.8563 19.3713 21.701C19.6037 21.8352 19.8361 21.9694 20.0755 22.1076C20.6444 22.4363 21.2124 22.7664 21.7802 23.0968C21.4476 25.3112 20.2988 26.9849 19.1687 28.8828C18.962 29.2406 18.7554 29.5984 18.5425 29.967C18.3387 30.3118 18.1348 30.6565 17.9248 31.0118C17.7403 31.3248 17.5559 31.6378 17.3658 31.9602C16.2687 33.4655 14.9268 34.4721 13.135 34.984C11.0631 35.2186 9.41108 34.7678 7.73173 33.5431C7.37152 32.4625 7.37152 32.4625 7.60413 31.8418C7.734 31.6148 7.86387 31.3878 7.99768 31.1539C8.21573 30.7669 8.21573 30.7669 8.43819 30.3721C8.59882 30.0961 8.75945 29.8201 8.92496 29.5357C9.08675 29.2516 9.24855 28.9674 9.41524 28.6747C9.9304 27.7734 10.4513 26.8757 10.9737 25.9786C11.1453 25.6824 11.3168 25.3862 11.4936 25.081C14.4528 19.9779 14.4528 19.9779 14.9361 19.4946Z" fill="white"/>
<path d="M39.431 13.3711C40.4797 13.7665 41.3423 14.2369 42.3127 14.8119C42.0669 16.1014 41.5328 17.0976 40.8902 18.2368C40.6735 18.6222 40.4569 19.0076 40.2337 19.4047C40.006 19.8059 39.7782 20.2071 39.5436 20.6205C39.3228 21.0133 39.102 21.4061 38.8745 21.8109C37.5362 24.1837 36.164 26.5331 34.7482 28.8604C32.2603 27.6539 29.859 26.4118 27.5438 24.898C28.6222 22.5879 29.8318 20.3443 31.0784 18.1214C31.2188 17.8589 31.3592 17.5963 31.5039 17.3258C33.2852 14.2087 35.8331 12.7298 39.431 13.3711Z" fill="white"/>
<path d="M23.221 24.1775C26.8321 25.8891 30.2428 27.8879 33.6674 29.941C32.9901 32.173 32.1137 33.2655 30.1552 34.5563C28.4158 35.1919 26.7144 35.3352 24.9451 34.6958C24.1657 34.3068 23.4248 33.8834 22.6807 33.4306C22.2949 33.2122 22.2949 33.2122 21.9012 32.9895C20.0303 31.8958 20.0303 31.8958 19.6189 30.6614C19.9086 29.9435 19.9086 29.9435 20.3717 29.1375C20.5353 28.8485 20.699 28.5594 20.8677 28.2616C21.0425 27.9614 21.2173 27.6612 21.3974 27.3519C21.6576 26.8953 21.6576 26.8953 21.923 26.4296C22.3525 25.6769 22.7852 24.9264 23.221 24.1775Z" fill="white"/>
<path d="M24.7239 13.6924C26.5567 14.5738 28.3152 15.5789 30.0653 16.613C29.8408 17.6767 29.5001 18.5133 28.9607 19.4553C28.8156 19.7107 28.6705 19.9661 28.521 20.2293C28.3694 20.4921 28.2178 20.7549 28.0616 21.0257C27.9086 21.2941 27.7556 21.5625 27.5979 21.839C27.2212 22.4993 26.8424 23.1585 26.4631 23.8174C24.9547 23.3561 23.646 22.7859 22.2784 22.0022C21.9116 21.7932 21.5447 21.5843 21.1668 21.369C20.7897 21.1517 20.4127 20.9344 20.0242 20.7105C19.6388 20.4904 19.2534 20.2703 18.8563 20.0435C17.9088 19.5021 16.9624 18.9589 16.0168 18.4141C16.2532 17.0777 16.482 16.3078 17.3901 15.2847C17.5707 15.0753 17.7514 14.8659 17.9375 14.6501C19.821 12.8989 22.3856 12.7319 24.7239 13.6924Z" fill="white"/>
</svg>
