<svg width="77" height="72" viewBox="0 0 77 72" fill="none" xmlns="http://www.w3.org/2000/svg">
<path d="M38.1108 3.25977C20.0208 3.25977 5.30078 17.9798 5.30078 36.0698C5.30078 54.1598 20.0208 68.8798 38.1108 68.8798C56.2008 68.8798 70.9208 54.1598 70.9208 36.0698C70.9308 17.9798 56.2108 3.25977 38.1108 3.25977Z" fill="#89C5BD"/>
<path d="M36.5491 49.9609V46.3909L49.2091 29.0109H36.5491V25.2209H36.5391V19.9609H40.4391V25.1409H54.9891V27.2609L43.5691 43.1409H55.0191V47.0209H40.4391V52.1909H36.5491V49.9609Z" fill="white"/>
<path d="M21.1992 25.1309H25.8492L26.9992 26.7309L36.5492 39.9809V31.7509H40.4292L40.4092 36.3909L34.8692 44.0109L32.5692 40.9109L25.1492 30.6109V47.0009H21.1992V25.1309Z" fill="white"/>
</svg>
