<svg width="48" height="48" viewBox="0 0 48 48" fill="none" xmlns="http://www.w3.org/2000/svg">
<path d="M24 48C37.3001 48 48 37.3001 48 24C48 10.6999 37.3001 0 24 0C10.6999 0 0 10.6999 0 24C0 37.3001 10.6999 48 24 48Z" fill="#008CFF"/>
<path d="M33.8876 27.7981C32.7927 27.1632 31.5576 26.981 30.335 26.94C29.3083 26.9053 27.7794 26.2481 27.7794 24.367C27.7856 23.69 28.0559 23.0415 28.5333 22.5604C29.0107 22.0792 29.658 21.8052 30.335 21.794C31.5589 21.7519 32.7927 21.5684 33.8876 20.936C34.8709 20.3668 35.6868 19.5496 36.2535 18.5651C36.8202 17.5805 37.119 16.4645 37.1178 15.3287C37.1166 14.1928 36.8165 13.0768 36.2486 12.0935C35.6806 11.1102 34.8622 10.293 33.8789 9.72512C32.8956 9.15968 31.7796 8.86084 30.6438 8.86084C29.5079 8.86084 28.3919 9.15968 27.4074 9.7276C26.424 10.2955 25.6069 11.1114 25.0377 12.0948C24.4698 13.0781 24.1697 14.1941 24.1685 15.3299C24.1685 16.5848 24.6136 17.7392 25.1865 18.8118C25.6639 19.7121 25.907 21.3848 24.264 22.331C23.67 22.662 22.9694 22.7464 22.3147 22.5666C21.66 22.3868 21.0995 21.9577 20.7572 21.37C20.1149 20.3408 19.3288 19.3698 18.25 18.7486C17.2654 18.1807 16.1494 17.8818 15.0136 17.8818C13.8777 17.8818 12.7617 18.1819 11.7772 18.7498C10.7938 19.3178 9.97667 20.1362 9.40875 21.1195C8.84083 22.1028 8.54199 23.22 8.54199 24.3559C8.54199 25.4917 8.84083 26.609 9.40875 27.5923C9.97667 28.5768 10.7938 29.394 11.7772 29.9619C12.7617 30.5298 13.8777 30.8299 15.0136 30.8299C16.1494 30.8299 17.2666 30.5311 18.25 29.9644C19.3362 29.3357 20.1137 28.3722 20.7572 27.343C21.2867 26.485 22.6036 25.4223 24.264 26.382C24.8468 26.7317 25.2708 27.2959 25.4432 27.9544C25.6156 28.6116 25.5226 29.3109 25.1853 29.9012C24.6136 30.9738 24.171 32.1282 24.171 33.3831C24.171 34.5202 24.471 35.6374 25.039 36.6207C25.6069 37.6053 26.4253 38.4224 27.4086 38.9916C28.3932 39.5595 29.5104 39.8596 30.6462 39.8596C31.7833 39.8596 32.9006 39.5608 33.8851 38.9928C34.8697 38.4249 35.6868 37.6065 36.256 36.6232C36.8252 35.6386 37.124 34.5226 37.1252 33.3856C37.1252 32.2485 36.8264 31.1325 36.2585 30.1467C35.6905 29.1621 34.8734 28.3437 33.8888 27.7758V27.7981H33.8876Z" fill="white"/>
</svg>
