<svg width="31" height="32" viewBox="0 0 31 32" fill="none" xmlns="http://www.w3.org/2000/svg">
<path d="M15.492 31.4889C24.0772 31.4889 30.984 24.5821 30.984 15.9969C30.984 7.41169 24.0772 0.504883 15.492 0.504883C6.90681 0.504883 0 7.41169 0 15.9969C0 24.5821 6.90681 31.4889 15.492 31.4889Z" fill="#2775CA"/>
<path d="M19.7551 18.4497C19.7551 16.1905 18.3996 15.4159 15.6885 15.0932C13.752 14.8349 13.3647 14.3186 13.3647 13.4148C13.3647 12.511 14.0102 11.9302 15.3012 11.9302C16.4631 11.9302 17.1086 12.3175 17.4313 13.2857C17.4959 13.4794 17.6896 13.6084 17.8832 13.6084H18.9159C19.1742 13.6084 19.3678 13.4148 19.3678 13.1567V13.0921C19.1096 11.6719 17.9477 10.5746 16.4631 10.4456V8.89639C16.4631 8.63813 16.2694 8.44448 15.9467 8.37988H14.9785C14.7202 8.37988 14.5266 8.57353 14.462 8.89639V10.381C12.5255 10.6392 11.2991 11.9302 11.2991 13.544C11.2991 15.6741 12.5901 16.5132 15.3012 16.836C17.1086 17.1587 17.6896 17.546 17.6896 18.5789C17.6896 19.6118 16.7858 20.3217 15.5594 20.3217C13.881 20.3217 13.3001 19.6116 13.1064 18.6433C13.042 18.3852 12.8483 18.256 12.6547 18.256H11.5572C11.2991 18.256 11.1055 18.4497 11.1055 18.7079V18.7725C11.3636 20.3862 12.3964 21.5481 14.5266 21.871V23.4202C14.5266 23.6782 14.7202 23.8719 15.0429 23.9365H16.0112C16.2694 23.9365 16.4631 23.7429 16.5277 23.4202V21.871C18.4642 21.5481 19.7551 20.1925 19.7551 18.4497Z" fill="white"/>
<path d="M12.21 25.2295C7.17513 23.4222 4.59308 17.8063 6.46513 12.8358C7.43338 10.1247 9.56354 8.05919 12.21 7.09094C12.4683 6.96189 12.5973 6.76824 12.5973 6.44539V5.54174C12.5973 5.28349 12.4683 5.08984 12.21 5.02539C12.1454 5.02539 12.0164 5.02539 11.9518 5.08984C5.81958 7.02634 2.46293 13.546 4.39943 19.6782C5.56133 23.293 8.33703 26.0687 11.9518 27.2306C12.21 27.3596 12.4683 27.2306 12.5327 26.9723C12.5973 26.9079 12.5973 26.8433 12.5973 26.7142V25.8104C12.5973 25.6168 12.4037 25.3587 12.21 25.2295ZM19.0524 5.08984C18.7941 4.96079 18.5359 5.08984 18.4714 5.34809C18.4068 5.41269 18.4068 5.47714 18.4068 5.60634V6.50999C18.4068 6.76824 18.6005 7.02634 18.7941 7.15554C23.829 8.96284 26.4111 14.5787 24.539 19.5492C23.5708 22.2603 21.4406 24.3258 18.7941 25.2941C18.5359 25.4231 18.4068 25.6168 18.4068 25.9396V26.8433C18.4068 27.1015 18.5359 27.2952 18.7941 27.3596C18.8587 27.3596 18.9878 27.3596 19.0524 27.2952C25.1846 25.3587 28.5413 18.839 26.6048 12.7068C25.4429 9.02744 22.6025 6.25174 19.0524 5.08984Z" fill="white"/>
</svg>
