<svg width="32" height="31" viewBox="0 0 32 31" fill="none" xmlns="http://www.w3.org/2000/svg">
<path d="M16.0006 30.971C24.5527 30.971 31.4856 24.0381 31.4856 15.486C31.4856 6.93389 24.5527 0.000976562 16.0006 0.000976562C7.44852 0.000976562 0.515625 6.93389 0.515625 15.486C0.515625 24.0381 7.44852 30.971 16.0006 30.971Z" fill="#50AF95"/>
<path fill-rule="evenodd" clip-rule="evenodd" d="M17.9625 16.2513C17.853 16.2607 17.2873 16.2995 16.0254 16.2995C15.0217 16.2995 14.3091 16.2649 14.0591 16.2513C10.1803 16.0551 7.2851 15.279 7.2851 14.3497C7.2851 13.4204 10.1803 12.6452 14.0591 12.446V15.4782C14.3127 15.4992 15.039 15.5485 16.0427 15.5485C17.2471 15.5485 17.8503 15.4908 17.9588 15.4793V12.448C21.8294 12.6463 24.7182 13.4225 24.7182 14.3497C24.7182 15.2769 21.8303 16.053 17.9588 16.2502L17.9625 16.2513ZM17.9625 12.1344V9.421H23.3642V5.2832H8.65742V9.421H14.0582V12.1334C9.6684 12.3652 6.36719 13.3648 6.36719 14.5626C6.36719 15.7604 9.6684 16.7589 14.0582 16.9918V25.6869H17.9616V16.9886C22.3413 16.7568 25.637 15.7583 25.637 14.5615C25.637 13.3648 22.344 12.3662 17.9616 12.1334L17.9625 12.1344Z" fill="white"/>
</svg>
