<svg width="49" height="49" viewBox="0 0 49 49" fill="none" xmlns="http://www.w3.org/2000/svg">
<path fill-rule="evenodd" clip-rule="evenodd" d="M24.9624 0.56958C38.2173 0.56958 48.9624 11.3147 48.9624 24.5696C48.9624 37.8245 38.2173 48.5696 24.9624 48.5696C11.7075 48.5696 0.962402 37.8245 0.962402 24.5696C0.962402 11.3147 11.7075 0.56958 24.9624 0.56958Z" fill="#1048E5"/>
<path d="M7.54181 33.8586C8.02901 33.8586 8.49503 33.8586 8.93987 33.8586C9.00342 33.8586 9.08815 33.9645 9.13051 34.028C9.80836 35.1295 10.5709 36.1675 11.4606 37.1207C14.1932 40.0228 17.5189 41.8656 21.4165 42.6706C22.8993 42.9671 24.4032 43.0731 25.9072 42.9883C30.059 42.7553 33.7448 41.2937 36.9222 38.6035C38.4685 37.3114 39.7395 35.7862 40.7775 34.0492C40.8622 33.901 40.9681 33.8374 41.1376 33.8374C41.4765 33.8586 41.8154 33.8374 42.1543 33.8374C42.2179 33.8374 42.2814 33.8374 42.4085 33.8586C41.2647 36.0192 39.8031 37.8621 38.0025 39.4296C34.7828 42.2258 31.0334 43.878 26.7969 44.2381C17.1376 45.0854 10.2108 39.1966 7.54181 33.8586Z" fill="white"/>
<path d="M7.54181 15.2822C10.3167 9.7535 17.0528 4.43664 25.886 4.83911C30.3132 5.05094 34.2532 6.61846 37.6848 9.45694C39.6124 11.0668 41.1799 12.9945 42.3874 15.261C41.879 15.261 41.4129 15.261 40.9469 15.261C40.8834 15.261 40.8198 15.1763 40.7775 15.0915C40.0996 13.9689 39.337 12.9309 38.4474 11.9777C35.8419 9.22393 32.7069 7.40222 28.9999 6.55491C27.5595 6.23717 26.0979 6.06771 24.6362 6.11008C19.9761 6.23717 15.8878 7.86824 12.435 11.0245C11.1429 12.2319 10.0626 13.5664 9.17288 15.0492C9.06696 15.2186 8.96105 15.3034 8.74922 15.2822C8.36793 15.261 7.96546 15.2822 7.54181 15.2822Z" fill="white"/>
<path d="M6.2077 30.7673C6.29243 30.3224 6.35598 29.8776 6.44071 29.4539C6.54663 28.9032 6.63136 28.3524 6.73727 27.8017C6.88555 26.8908 7.37275 26.1918 8.13533 25.7046C9.00382 25.1538 9.91468 24.6666 10.8043 24.1371C11.2492 23.8829 11.694 23.6287 12.1177 23.3321C13.0073 22.6755 13.4734 21.7434 13.7064 20.6631C13.8547 19.9641 13.9606 19.2439 14.0877 18.5448C14.1088 18.4389 14.13 18.333 14.2783 18.333C15.3798 18.333 16.5025 18.333 17.604 18.333C17.6252 18.333 17.6675 18.333 17.7099 18.3542C17.6464 18.6719 17.604 18.9685 17.5404 19.2862C17.4345 19.9429 17.3074 20.6207 17.2015 21.2774C16.9897 22.4213 16.2907 23.1838 15.3163 23.7346C14.4054 24.2642 13.4946 24.7937 12.5625 25.3021C11.2704 26.0011 10.5078 27.0815 10.2324 28.5219C10.1053 29.2209 9.97822 29.9199 9.85113 30.619C9.82994 30.6825 9.74521 30.7884 9.68167 30.7884C8.55898 30.7884 7.45748 30.7884 6.3348 30.7884C6.27125 30.8096 6.25007 30.7884 6.2077 30.7673Z" fill="white"/>
<path d="M36.6877 24.581C36.6877 23.2253 36.6877 21.8696 36.6877 20.5139C36.6877 20.3021 36.7513 20.2385 36.9631 20.2385C37.8528 20.2597 38.7213 20.2385 39.611 20.2385C40.31 20.2597 41.009 20.3868 41.6445 20.6834C42.7672 21.2129 43.3815 22.1238 43.6145 23.3312C43.8051 24.3056 43.784 25.3012 43.4874 26.2544C43.0426 27.6737 42.047 28.4998 40.6065 28.7752C40.1405 28.8599 39.6745 28.8811 39.2085 28.9022C38.4671 28.9234 37.7257 28.9022 36.9843 28.9022C36.7725 28.9022 36.7089 28.8387 36.7089 28.6269C36.6877 27.2924 36.6877 25.9367 36.6877 24.581ZM39.0178 24.5598C39.0178 25.3224 39.0178 26.0638 39.0178 26.8263C39.0178 26.9746 39.0602 27.0382 39.2297 27.0382C39.3991 27.017 39.5686 27.017 39.7381 26.9958C40.4794 26.8687 40.9666 26.4662 41.1785 25.746C41.3691 25.1317 41.3903 24.5174 41.3056 23.8819C41.2208 23.2888 41.009 22.7381 40.4583 22.4203C40.0982 22.2085 39.6957 22.1662 39.272 22.145C39.0814 22.145 39.0178 22.1873 39.039 22.378C39.0178 23.0982 39.0178 23.8396 39.0178 24.5598Z" fill="white"/>
<path d="M34.7832 21.2558C34.3595 21.7642 33.9782 22.2514 33.5969 22.6963C33.258 22.5056 32.9615 22.2938 32.6437 22.1879C31.5634 21.8489 30.5254 22.3997 30.1865 23.48C29.9535 24.2426 29.9535 24.984 30.1865 25.7466C30.4407 26.5515 31.0762 27.0175 31.9235 27.0599C32.1777 27.0599 32.4319 27.0387 32.6861 27.0175C32.8344 26.9963 32.8979 26.9116 32.8979 26.7422C32.8767 26.4244 32.8979 26.0855 32.8979 25.7254C32.6225 25.7254 32.3472 25.7254 32.0718 25.7254C31.6269 25.7254 31.6269 25.7254 31.6269 25.2805C31.6269 24.8569 31.6269 24.4544 31.6269 24.0308C31.6269 23.8825 31.6693 23.8401 31.8176 23.8401C32.8132 23.8401 33.7876 23.8401 34.7832 23.8401C34.9314 23.8401 34.9526 23.9037 34.9526 24.0308C34.9526 25.3017 34.9526 26.5727 34.9526 27.8437C34.9526 27.9284 34.8891 28.0555 34.8044 28.119C34.1053 28.691 33.2792 28.9875 32.3895 29.0511C31.6481 29.1146 30.9279 29.0087 30.2289 28.7545C29.1062 28.3309 28.3224 27.5683 27.9412 26.4244C27.4963 25.0899 27.5175 23.7554 28.1106 22.4632C28.7037 21.1923 29.7205 20.4509 31.0974 20.1755C32.3895 19.9213 33.5758 20.1755 34.5925 21.044C34.6349 21.1076 34.6984 21.1711 34.7832 21.2558Z" fill="white"/>
<path d="M19.8896 27.801C20.3344 27.2714 20.7581 26.7419 21.1817 26.2547C21.563 26.4665 21.9019 26.6783 22.2832 26.8478C22.7069 27.0384 23.1729 27.1231 23.6389 27.0172C23.766 26.996 23.8931 26.9325 23.999 26.869C24.2532 26.6995 24.2744 26.3394 24.0414 26.1487C23.8719 26.0216 23.6813 25.9157 23.4695 25.831C22.8763 25.5768 22.2409 25.3438 21.6689 25.0684C20.6945 24.6024 20.1861 23.7975 20.2285 22.7171C20.2709 21.7004 20.8216 21.0013 21.6689 20.5353C23.0882 19.7516 25.1429 20.0693 26.2868 21.2132C26.3079 21.2344 26.3079 21.2555 26.3503 21.2979C25.969 21.7639 25.5877 22.2511 25.2064 22.7383C25.1217 22.696 25.0582 22.6536 24.9946 22.6112C24.5074 22.3147 23.999 22.1028 23.4059 22.124C23.2365 22.124 23.0882 22.1664 22.9399 22.2088C22.7493 22.2723 22.6222 22.3994 22.6222 22.6112C22.601 22.8231 22.6857 23.0137 22.8975 23.0984C23.3212 23.2891 23.7448 23.4585 24.1685 23.628C24.4439 23.7339 24.6981 23.8398 24.9734 23.9457C25.8419 24.2847 26.4562 24.8778 26.6045 25.831C26.774 26.9325 26.3927 27.8222 25.4818 28.4577C24.7192 28.9872 23.8719 29.1355 22.9611 29.072C21.9231 29.0084 20.9911 28.6695 20.165 28.034C20.1226 27.9916 20.059 27.9493 20.0167 27.9069C19.932 27.8645 19.932 27.8434 19.8896 27.801Z" fill="white"/>
<path d="M13.2398 25.8099C13.261 25.7887 13.2822 25.7887 13.3034 25.7887C13.9177 25.7887 14.532 25.7251 15.1463 25.831C16.2478 26.0217 16.9256 26.7207 17.1586 27.8222C17.3493 28.7543 17.4975 29.6863 17.667 30.6183C17.6882 30.7878 17.6458 30.809 17.4975 30.809C16.4384 30.809 15.3581 30.809 14.299 30.809C14.1719 30.809 14.1083 30.7666 14.0871 30.6395C13.8118 29.0508 13.5152 27.4621 13.2398 25.8522C13.2186 25.8522 13.2186 25.831 13.2398 25.8099Z" fill="white"/>
<path d="M10.6548 23.3954C9.95576 23.3742 9.27792 23.4166 8.60007 23.2895C7.5833 23.12 6.86309 22.2515 6.67244 21.1712C6.52416 20.3027 6.37589 19.4554 6.20642 18.5869C6.18524 18.5022 6.18524 18.4386 6.18524 18.3327C6.26997 18.3327 6.3547 18.3115 6.41825 18.3115C7.4562 18.3115 8.47297 18.3115 9.51093 18.3115C9.70157 18.3115 9.76512 18.3539 9.7863 18.5445C10.0405 20.0909 10.3371 21.616 10.6124 23.1624C10.6336 23.2259 10.6336 23.2895 10.6548 23.3954Z" fill="white"/>
</svg>
