<svg width="296" height="296" viewBox="0 0 296 296" fill="none" xmlns="http://www.w3.org/2000/svg">
<circle cx="147.989" cy="148.476" r="147.5" fill="#00493D"/>
<path d="M108.573 197.305V174.728L154.476 127.508V122.418H110.456V100.604H185.141V125.814L141.684 170.214V175.47H187.024V197.293L108.573 197.305Z" fill="#FFE400"/>
<path d="M80.6118 75.7842H68.8254C50.6764 95.8329 40.626 121.911 40.626 148.954C40.626 175.997 50.6764 202.076 68.8254 222.124H80.6118C79.741 219.965 65.4452 183.277 65.4452 148.954C65.4452 114.632 79.729 77.9433 80.6118 75.7842Z" fill="#FFE400"/>
<path d="M214.984 222.124H226.771C244.922 202.076 254.971 175.997 254.971 148.954C254.971 121.911 244.922 95.8329 226.771 75.7842H214.984C215.855 77.9433 230.151 114.632 230.151 148.954C230.151 183.277 215.855 219.965 214.984 222.124Z" fill="#FFE400"/>
</svg>
