<svg width="33" height="36" viewBox="0 0 33 36" fill="none" xmlns="http://www.w3.org/2000/svg">
<path fill-rule="evenodd" clip-rule="evenodd" d="M15.49 4C24.0449 4 30.98 10.9351 30.98 19.49C30.98 28.0449 24.0449 34.98 15.49 34.98C6.9351 34.98 0 28.0449 0 19.49C0 10.9351 6.9351 4 15.49 4Z" fill="#2775CA"/>
<path fill-rule="evenodd" clip-rule="evenodd" d="M19.0294 8.58293C18.6801 8.47135 18.3945 8.67867 18.3945 9.0454V9.94728C18.3945 10.1932 18.5798 10.473 18.8106 10.5576C22.5183 11.9156 25.1714 15.4793 25.1714 19.6515C25.1714 23.8237 22.5183 27.3872 18.8106 28.7453C18.5575 28.838 18.3945 29.086 18.3945 29.3557V30.2575C18.3945 30.6243 18.6801 30.8316 19.0294 30.72C23.7148 29.2229 27.1076 24.8335 27.1076 19.6515C27.1076 14.4695 23.7148 10.0799 19.0294 8.58293Z" fill="white"/>
<path fill-rule="evenodd" clip-rule="evenodd" d="M12.5862 9.0454C12.5862 8.67867 12.3006 8.47135 11.9513 8.58293C7.26585 10.0799 3.87305 14.4694 3.87305 19.6515C3.87305 24.8336 7.26585 29.2229 11.9513 30.72C12.3006 30.8316 12.5862 30.6243 12.5862 30.2575V29.3557C12.5862 29.1097 12.4009 28.8298 12.17 28.7453C8.46246 27.3872 5.8093 23.8236 5.8093 19.6515C5.8093 15.4793 8.46246 11.9156 12.17 10.5576C12.4009 10.473 12.5862 10.1932 12.5862 9.94727V9.0454Z" fill="white"/>
<path d="M19.4502 22.6742L18.5641 22.2783C18.369 22.1912 18.139 22.2727 18.0445 22.4644C17.6263 23.3132 16.9312 23.8541 16.013 23.8541C15.1817 23.8541 14.5149 23.447 14.0039 22.6243C13.8041 22.3061 13.6454 21.9508 13.5246 21.5615H15.904C16.0548 21.5615 16.1928 21.4766 16.2609 21.3419L16.8286 20.5756C16.9628 20.3097 16.7697 19.9957 16.4719 19.9957H13.2568C13.2475 19.8309 13.2419 19.6628 13.2419 19.4896C13.2401 19.3179 13.2449 19.1497 13.2539 18.9839H15.904C16.0548 18.9839 16.1928 18.8991 16.2609 18.7645L16.8286 17.9982C16.963 17.7323 16.7697 17.4182 16.4719 17.4182H13.5217C13.9532 16.0114 14.854 15.0897 16.013 15.1078C16.8962 15.1078 17.5818 15.5913 18.0216 16.3832C18.1201 16.5607 18.342 16.6287 18.5277 16.5467L19.4184 16.1535C19.6315 16.0595 19.7221 15.8017 19.6093 15.5979C18.787 14.113 17.5883 13.3672 16.013 13.3672C14.5755 13.3672 13.4237 13.9387 12.5491 15.0732C12.0379 15.7413 11.682 16.5252 11.4709 17.4182H10.177C10.0262 17.4182 9.88821 17.5031 9.82023 17.6377L9.25243 18.404C9.11816 18.67 9.31137 18.9839 9.60922 18.9839H11.2571C11.2491 19.1504 11.2415 19.3171 11.2415 19.4896C11.2394 19.6606 11.2434 19.8289 11.2507 19.9957H10.177C10.0262 19.9957 9.88821 20.0807 9.82023 20.2152L9.25243 20.9815C9.11816 21.2474 9.31137 21.5615 9.60922 21.5615H11.4671C12.0547 23.99 13.7462 25.6462 16.013 25.612C17.6224 25.612 18.8354 24.8119 19.6452 23.2188C19.7483 23.0159 19.6579 22.7671 19.4502 22.6742Z" fill="white"/>
<circle cx="24.8169" cy="7.8169" r="7.8169" fill="black"/>
<path d="M28.69 9.49638L27.3996 10.88C27.3717 10.9101 27.3379 10.9341 27.3003 10.9505C27.2627 10.9669 27.2221 10.9754 27.1811 10.9754H21.064C21.0348 10.9754 21.0063 10.9669 20.9819 10.9509C20.9575 10.9349 20.9383 10.9122 20.9266 10.8854C20.9149 10.8587 20.9113 10.8291 20.9162 10.8003C20.921 10.7716 20.9342 10.7449 20.954 10.7235L22.243 9.33981C22.2709 9.30976 22.3047 9.28578 22.3423 9.26936C22.3799 9.25296 22.4205 9.24446 22.4615 9.24441H28.5786C28.608 9.24381 28.637 9.25192 28.6618 9.26774C28.6867 9.28356 28.7063 9.30637 28.7182 9.3333C28.7302 9.36023 28.7338 9.39009 28.7288 9.41911C28.7237 9.44813 28.7103 9.47502 28.69 9.49638ZM27.3996 6.70944C27.3716 6.67953 27.3378 6.65564 27.3002 6.63923C27.2626 6.62283 27.2221 6.61426 27.1811 6.61405H21.064C21.0348 6.61407 21.0063 6.62259 20.9819 6.63858C20.9575 6.65456 20.9383 6.67732 20.9266 6.70406C20.9149 6.7308 20.9113 6.76036 20.9162 6.78913C20.921 6.81789 20.9342 6.84462 20.954 6.86602L22.243 8.25039C22.271 8.2803 22.3048 8.30419 22.3424 8.3206C22.38 8.337 22.4205 8.34557 22.4615 8.34578H28.5786C28.6077 8.34562 28.6361 8.337 28.6605 8.32096C28.6848 8.30492 28.7039 8.28215 28.7154 8.25544C28.727 8.22873 28.7306 8.19922 28.7256 8.17052C28.7208 8.14182 28.7076 8.11517 28.6878 8.09382L27.3996 6.70944ZM21.064 5.71541H27.1811C27.2221 5.71537 27.2627 5.70687 27.3003 5.69046C27.3379 5.67405 27.3717 5.65006 27.3996 5.62001L28.69 4.23637C28.7103 4.215 28.7237 4.18812 28.7288 4.1591C28.7338 4.13008 28.7302 4.10022 28.7182 4.07329C28.7063 4.04635 28.6867 4.02354 28.6618 4.00773C28.637 3.99191 28.608 3.9838 28.5786 3.98441H22.4615C22.4205 3.98445 22.3799 3.99294 22.3423 4.00936C22.3047 4.02577 22.2709 4.04975 22.243 4.07981L20.954 5.46344C20.9342 5.48484 20.921 5.51157 20.9162 5.54033C20.9113 5.5691 20.9149 5.59866 20.9266 5.6254C20.9383 5.65214 20.9575 5.6749 20.9819 5.69088C21.0063 5.70687 21.0348 5.71539 21.064 5.71541Z" fill="url(#paint0_linear_2117_3824)"/>
<defs>
<linearGradient id="paint0_linear_2117_3824" x1="21.5738" y1="11.1422" x2="27.988" y2="3.91086" gradientUnits="userSpaceOnUse">
<stop offset="0.08" stop-color="#9945FF"/>
<stop offset="0.3" stop-color="#8752F3"/>
<stop offset="0.5" stop-color="#5497D5"/>
<stop offset="0.6" stop-color="#43B4CA"/>
<stop offset="0.72" stop-color="#28E0B9"/>
<stop offset="0.97" stop-color="#19FB9B"/>
</linearGradient>
</defs>
</svg>
