<svg width="34" height="37" viewBox="0 0 34 37" fill="none" xmlns="http://www.w3.org/2000/svg">
<g clip-path="url(#clip0_171_7161)">
<path d="M15.5118 34.9166C24.0334 34.9166 30.9415 28.0085 30.9415 19.4869C30.9415 10.9653 24.0334 4.05713 15.5118 4.05713C6.99015 4.05713 0.0820312 10.9653 0.0820312 19.4869C0.0820312 28.0085 6.99015 34.9166 15.5118 34.9166Z" fill="#005BAC"/>
<path d="M23.6788 16.594C23.1243 16.594 22.5578 16.594 22.0033 16.594C21.4608 16.594 20.9184 16.6182 20.3759 16.582C20.1469 16.5699 19.8696 16.5217 19.7009 16.3891C18.9053 15.7502 17.965 15.485 17.0007 15.2921C15.5903 15.0028 14.204 15.1475 12.8539 15.6055C12.1307 15.8466 11.4436 16.2083 10.865 16.7025C10.0212 17.4258 9.5149 18.3661 9.47874 19.4751C9.45463 20.3309 9.82831 21.1145 10.419 21.7534C11.3833 22.7901 12.5285 23.441 13.9509 23.6218C15.2166 23.7906 16.4703 23.8147 17.6998 23.4892C19.0861 23.1155 20.2313 22.3923 21.0389 21.1868C21.1474 21.018 21.1956 20.8011 21.3041 20.5118C20.9907 20.4876 20.7858 20.4635 20.5688 20.4635C18.9414 20.4635 17.3141 20.4635 15.6867 20.4635C15.3854 20.4635 15.084 20.4635 14.8068 20.1983C14.7585 20.0537 14.6862 19.8729 14.6259 19.692C14.6862 19.4992 14.7465 19.3304 14.8068 19.1737C15.1202 18.9085 15.4577 18.788 15.8555 18.788C18.7727 18.8 21.6778 18.788 24.595 18.788C24.7276 18.788 24.8722 18.8 24.9928 18.8121C25.2821 19.0652 25.2459 19.3786 25.1977 19.6679C25.0651 20.6444 24.6794 21.5123 23.9923 22.2355C23.3172 22.9709 22.4975 23.5133 21.6175 23.9473C20.3277 24.5862 18.9535 24.9599 17.5431 25.1286C16.6149 25.2492 15.6626 25.2974 14.7224 25.2492C13.4687 25.1768 12.215 25.0201 11.0217 24.5741C10.3105 24.3089 9.57517 24.0799 8.91218 23.7182C7.91165 23.1637 6.99551 22.4646 6.40485 21.452C5.93472 20.6323 5.64541 19.7403 5.86239 18.8C6.11554 17.7272 6.71826 16.8231 7.59824 16.1239C8.7193 15.2439 9.97297 14.6532 11.3351 14.2675C12.1909 14.0264 13.0468 13.8938 13.9268 13.7974C14.638 13.725 15.3371 13.6768 16.0363 13.713C17.2779 13.7853 18.4954 13.9059 19.7009 14.2795C20.8822 14.6412 21.9912 15.1234 22.9917 15.8466C23.2449 16.0274 23.4739 16.2565 23.715 16.4614C23.703 16.4976 23.6909 16.5458 23.6788 16.594Z" fill="white"/>
</g>
<circle cx="25.8169" cy="7.8169" r="7.8169" fill="black"/>
<path d="M29.69 9.49614L28.3996 10.8798C28.3717 10.9098 28.3379 10.9338 28.3003 10.9502C28.2627 10.9666 28.2221 10.9751 28.1811 10.9752H22.064C22.0348 10.9752 22.0063 10.9666 21.9819 10.9506C21.9575 10.9347 21.9383 10.9119 21.9266 10.8852C21.9149 10.8584 21.9113 10.8289 21.9162 10.8001C21.921 10.7713 21.9342 10.7446 21.954 10.7232L23.243 9.33957C23.2709 9.30951 23.3047 9.28553 23.3423 9.26912C23.3799 9.25271 23.4205 9.24421 23.4615 9.24417H29.5786C29.608 9.24357 29.637 9.25168 29.6618 9.2675C29.6867 9.28331 29.7063 9.30612 29.7182 9.33305C29.7302 9.35999 29.7338 9.38985 29.7288 9.41887C29.7237 9.44789 29.7103 9.47477 29.69 9.49614ZM28.3996 6.7092C28.3716 6.67928 28.3378 6.6554 28.3002 6.63899C28.2626 6.62259 28.2221 6.61402 28.1811 6.61381H22.064C22.0348 6.61382 22.0063 6.62234 21.9819 6.63833C21.9575 6.65432 21.9383 6.67708 21.9266 6.70382C21.9149 6.73056 21.9113 6.76012 21.9162 6.78888C21.921 6.81765 21.9342 6.84437 21.954 6.86578L23.243 8.25014C23.271 8.28006 23.3048 8.30394 23.3424 8.32035C23.38 8.33675 23.4205 8.34532 23.4615 8.34553H29.5786C29.6077 8.34538 29.6361 8.33675 29.6605 8.32072C29.6848 8.30467 29.7039 8.28191 29.7154 8.2552C29.727 8.22849 29.7306 8.19898 29.7256 8.17028C29.7208 8.14158 29.7076 8.11492 29.6878 8.09357L28.3996 6.7092ZM22.064 5.71516H28.1811C28.2221 5.71513 28.2627 5.70663 28.3003 5.69021C28.3379 5.67381 28.3717 5.64982 28.3996 5.61977L29.69 4.23613C29.7103 4.21476 29.7237 4.18787 29.7288 4.15885C29.7338 4.12983 29.7302 4.09998 29.7182 4.07304C29.7063 4.04611 29.6867 4.0233 29.6618 4.00748C29.637 3.99167 29.608 3.98355 29.5786 3.98416H23.4615C23.4205 3.98421 23.3799 3.9927 23.3423 4.00911C23.3047 4.02553 23.2709 4.04951 23.243 4.07956L21.954 5.4632C21.9342 5.4846 21.921 5.51132 21.9162 5.54009C21.9113 5.56886 21.9149 5.59841 21.9266 5.62515C21.9383 5.6519 21.9575 5.67465 21.9819 5.69064C22.0063 5.70663 22.0348 5.71515 22.064 5.71516Z" fill="url(#paint0_linear_171_7161)"/>
<defs>
<linearGradient id="paint0_linear_171_7161" x1="22.5738" y1="11.1419" x2="28.988" y2="3.91061" gradientUnits="userSpaceOnUse">
<stop offset="0.08" stop-color="#9945FF"/>
<stop offset="0.3" stop-color="#8752F3"/>
<stop offset="0.5" stop-color="#5497D5"/>
<stop offset="0.6" stop-color="#43B4CA"/>
<stop offset="0.72" stop-color="#28E0B9"/>
<stop offset="0.97" stop-color="#19FB9B"/>
</linearGradient>
<clipPath id="clip0_171_7161">
<rect width="30.98" height="30.98" fill="white" transform="translate(0 4)"/>
</clipPath>
</defs>
</svg>
