<svg width="98" height="98" viewBox="0 0 98 98" fill="none" xmlns="http://www.w3.org/2000/svg">
<path d="M71.5128 55.3078L56.3551 71.3317L32.5358 65.2686L26.4727 43.6147L43.7958 26.7246L65.4497 34.9531L71.5128 55.3078Z" stroke="#0055EE" stroke-width="0.132839"/>
<path d="M49.4266 97.3162C76.2151 97.3162 97.9314 75.5998 97.9314 48.8114C97.9314 22.023 76.2151 0.306641 49.4266 0.306641C22.6382 0.306641 0.921875 22.023 0.921875 48.8114C0.921875 75.5998 22.6382 97.3162 49.4266 97.3162Z" fill="url(#paint0_linear_2469_2265)"/>
<path opacity="0.1" d="M81.4577 16.115L37.2278 4.26367L4.76562 36.9603L16.5303 81.5075L60.7602 93.3592L93.2223 60.6622L81.4577 16.115ZM56.1308 75.9601L29.4594 68.8135L22.3672 41.9509L41.9473 22.2318L68.6188 29.3784L75.7161 56.2456L56.1308 75.9601Z" fill="white"/>
<path opacity="0.2" d="M58.4118 14.0742L23.4707 23.4366L14.0547 58.1735L39.5776 83.5484L74.5187 74.186L83.9348 39.4492L58.4118 14.0742ZM64.5267 64.2888L43.4565 69.9345L28.0674 54.6322L33.7477 33.6818L54.8179 28.036L70.2125 43.3395L64.5267 64.2888Z" fill="white"/>
<path d="M41.1979 20.4805L20.3164 41.362L28.1103 70.036L56.7844 77.8299L77.6659 56.9483L69.872 28.2744L41.1979 20.4805ZM66.4555 53.9235L53.8635 66.5155L36.5734 61.8144L31.8738 44.52L44.4658 31.9281L61.7602 36.6277L66.4555 53.9235Z" fill="white"/>
<defs>
<linearGradient id="paint0_linear_2469_2265" x1="4.86798" y1="89.2729" x2="88.8941" y2="6.26262" gradientUnits="userSpaceOnUse">
<stop offset="0.01" stop-color="#00D0D4"/>
<stop offset="0.02" stop-color="#00CCD5"/>
<stop offset="0.19" stop-color="#0097E7"/>
<stop offset="0.34" stop-color="#0070F4"/>
<stop offset="0.46" stop-color="#0059FC"/>
<stop offset="0.53" stop-color="#0050FF"/>
<stop offset="0.63" stop-color="#2D48F8"/>
<stop offset="0.89" stop-color="#9C35E7"/>
<stop offset="1" stop-color="#C92DE0"/>
</linearGradient>
</defs>
</svg>
