<svg width="33" height="38" viewBox="0 0 33 38" fill="none" xmlns="http://www.w3.org/2000/svg">
<path d="M30.98 22.4899C30.9811 23.7541 30.8274 25.0138 30.5221 26.242C30.487 26.3854 30.4494 26.5288 30.4091 26.6706C28.5835 33.1944 22.5924 37.9798 15.4887 37.9798C8.55615 37.9798 2.69343 33.4301 0.714656 27.1545C0.666727 27.0035 0.621366 26.8512 0.578572 26.6974C-0.152832 24.085 -0.191423 21.3328 0.466453 18.7017C0.5024 18.5575 0.540629 18.414 0.58114 18.2715C2.41784 11.7669 8.39696 7 15.4887 7C22.8398 7 28.9944 12.1208 30.5812 18.9927C30.6131 19.1308 30.6416 19.2706 30.6667 19.412C30.8737 20.4255 30.9786 21.4564 30.98 22.4899Z" fill="url(#paint0_linear_171_7156)"/>
<path d="M15.4888 37.2191C22.356 37.2191 27.9229 30.767 27.9229 22.8079C27.9229 14.8488 22.356 8.39673 15.4888 8.39673C8.62163 8.39673 3.05469 14.8488 3.05469 22.8079C3.05469 30.767 8.62163 37.2191 15.4888 37.2191Z" fill="url(#paint1_linear_171_7156)"/>
<path opacity="0.15" d="M30.5205 26.6372C30.4854 26.7835 30.4477 26.9299 30.4075 27.0745C30.0703 27.0934 29.7128 27.1031 29.3351 27.1036C29.1965 27.1036 29.0544 27.1036 28.9072 27.0985C26.111 27.0403 21.8034 26.3411 17.1389 23.3446C17.0653 23.2967 16.9917 23.2514 16.9181 23.2051C16.7161 23.3395 16.5141 23.4773 16.3122 23.6202C11.7957 26.8315 7.52236 27.7284 4.73222 27.9201C4.25636 27.9527 3.80702 27.9664 3.38765 27.9664C2.51452 27.9693 1.64244 27.9057 0.778949 27.7763C0.729309 27.624 0.682236 27.4717 0.63773 27.3176C1.98841 27.5335 3.35966 27.5909 4.72366 27.4888C7.45389 27.3005 11.6374 26.4155 16.064 23.2685C16.2155 23.1606 16.3661 23.0562 16.5176 22.9544C13.0162 20.8374 9.0977 19.5042 5.03178 19.0465C3.5159 18.8719 1.98727 18.8358 0.464844 18.9386C0.50079 18.7914 0.53902 18.6451 0.579531 18.4996C2.08025 18.4079 3.58612 18.4485 5.0797 18.6211C9.27473 19.0927 13.3143 20.4828 16.9113 22.6925C20.2811 20.5028 24.1489 19.1987 28.1566 18.901C29.0124 18.8376 29.7956 18.8265 30.4845 18.8445C30.5213 18.9874 30.5556 19.132 30.5881 19.2767C29.7818 19.2519 28.9748 19.2693 28.1703 19.3289C24.3078 19.6203 20.5777 20.8635 17.3127 22.9475C17.3315 22.9604 17.3512 22.9723 17.3709 22.9843C21.9395 25.9217 26.1598 26.6098 28.8952 26.6706C29.4815 26.6834 30.0249 26.6689 30.5205 26.6372Z" fill="white"/>
<path fill-rule="evenodd" clip-rule="evenodd" d="M22.2674 30.8143H19.9441L11.2204 17.6491V30.8143H8.98828V14.6653H11.9721L15.2047 19.6329H20.0352V14.6653H22.2674V19.6329H25.2877V21.2894H22.2674V24.4644H25.2875V26.1209H22.2674V30.8143ZM18.3487 24.4644L16.2826 21.2894H20.0352V24.4644H18.3487ZM19.4267 26.1209L20.0352 27.0561V26.1209H19.4267Z" fill="white"/>
<circle cx="24.8169" cy="7.8169" r="7.8169" fill="black"/>
<path d="M28.69 9.49614L27.3996 10.8798C27.3717 10.9098 27.3379 10.9338 27.3003 10.9502C27.2627 10.9666 27.2221 10.9751 27.1811 10.9752H21.064C21.0348 10.9752 21.0063 10.9666 20.9819 10.9506C20.9575 10.9347 20.9383 10.9119 20.9266 10.8852C20.9149 10.8584 20.9113 10.8289 20.9162 10.8001C20.921 10.7713 20.9342 10.7446 20.954 10.7232L22.243 9.33957C22.2709 9.30951 22.3047 9.28553 22.3423 9.26912C22.3799 9.25271 22.4205 9.24421 22.4615 9.24417H28.5786C28.608 9.24357 28.637 9.25168 28.6618 9.2675C28.6867 9.28331 28.7063 9.30612 28.7182 9.33305C28.7302 9.35999 28.7338 9.38985 28.7288 9.41887C28.7237 9.44789 28.7103 9.47477 28.69 9.49614ZM27.3996 6.7092C27.3716 6.67928 27.3378 6.6554 27.3002 6.63899C27.2626 6.62259 27.2221 6.61402 27.1811 6.61381H21.064C21.0348 6.61382 21.0063 6.62234 20.9819 6.63833C20.9575 6.65432 20.9383 6.67708 20.9266 6.70382C20.9149 6.73056 20.9113 6.76012 20.9162 6.78888C20.921 6.81765 20.9342 6.84437 20.954 6.86578L22.243 8.25014C22.271 8.28006 22.3048 8.30394 22.3424 8.32035C22.38 8.33675 22.4205 8.34532 22.4615 8.34553H28.5786C28.6077 8.34538 28.6361 8.33675 28.6605 8.32072C28.6848 8.30467 28.7039 8.28191 28.7154 8.2552C28.727 8.22849 28.7306 8.19898 28.7256 8.17028C28.7208 8.14158 28.7076 8.11492 28.6878 8.09357L27.3996 6.7092ZM21.064 5.71516H27.1811C27.2221 5.71513 27.2627 5.70663 27.3003 5.69021C27.3379 5.67381 27.3717 5.64982 27.3996 5.61977L28.69 4.23613C28.7103 4.21476 28.7237 4.18787 28.7288 4.15885C28.7338 4.12983 28.7302 4.09998 28.7182 4.07304C28.7063 4.04611 28.6867 4.0233 28.6618 4.00748C28.637 3.99167 28.608 3.98355 28.5786 3.98416H22.4615C22.4205 3.98421 22.3799 3.9927 22.3423 4.00911C22.3047 4.02553 22.2709 4.04951 22.243 4.07956L20.954 5.4632C20.9342 5.4846 20.921 5.51132 20.9162 5.54009C20.9113 5.56886 20.9149 5.59841 20.9266 5.62515C20.9383 5.6519 20.9575 5.67465 20.9819 5.69064C21.0063 5.70663 21.0348 5.71515 21.064 5.71516Z" fill="url(#paint2_linear_171_7156)"/>
<defs>
<linearGradient id="paint0_linear_171_7156" x1="15.4887" y1="6.44146" x2="15.4887" y2="38.4855" gradientUnits="userSpaceOnUse">
<stop stop-color="#105A3F"/>
<stop offset="1" stop-color="#25C173"/>
</linearGradient>
<linearGradient id="paint1_linear_171_7156" x1="15.458" y1="7.57937" x2="15.5222" y2="39.4512" gradientUnits="userSpaceOnUse">
<stop offset="0.14" stop-color="#0E483B"/>
<stop offset="1" stop-color="#1DAC66" stop-opacity="0"/>
</linearGradient>
<linearGradient id="paint2_linear_171_7156" x1="21.5738" y1="11.1419" x2="27.988" y2="3.91061" gradientUnits="userSpaceOnUse">
<stop offset="0.08" stop-color="#9945FF"/>
<stop offset="0.3" stop-color="#8752F3"/>
<stop offset="0.5" stop-color="#5497D5"/>
<stop offset="0.6" stop-color="#43B4CA"/>
<stop offset="0.72" stop-color="#28E0B9"/>
<stop offset="0.97" stop-color="#19FB9B"/>
</linearGradient>
</defs>
</svg>
