<svg width="26" height="26" viewBox="0 0 26 26" fill="none" xmlns="http://www.w3.org/2000/svg">
<path d="M13 26C20.1797 26 26 20.1797 26 13C26 5.8203 20.1797 0 13 0C5.8203 0 0 5.8203 0 13C0 20.1797 5.8203 26 13 26Z" fill="#D80027"/>
<path d="M12.4649 10.623L13.5316 12.0929L15.259 11.5328L14.1907 13.0014L15.2572 14.4712L13.5304 13.9089L12.4621 15.3775L12.4632 13.5616L10.7363 12.9993L12.4638 12.4392L12.4649 10.623Z" fill="#F0F0F0"/>
<path d="M9.55585 16.6742C7.52683 16.6742 5.88193 15.0293 5.88193 13.0003C5.88193 10.9713 7.52683 9.32636 9.55585 9.32636C10.1885 9.32636 10.7837 9.48637 11.3034 9.76795C10.4881 8.97059 9.37314 8.47852 8.14281 8.47852C5.64549 8.47852 3.62109 10.503 3.62109 13.0002C3.62109 15.4975 5.64554 17.5219 8.14281 17.5219C9.37324 17.5219 10.4882 17.0298 11.3034 16.2325C10.7837 16.5142 10.1885 16.6742 9.55585 16.6742Z" fill="#F0F0F0"/>
</svg>
