<svg width="34" height="37" viewBox="0 0 34 37" fill="none" xmlns="http://www.w3.org/2000/svg">
<g clip-path="url(#clip0_2377_12737)">
<mask id="mask0_2377_12737" style="mask-type:luminance" maskUnits="userSpaceOnUse" x="0" y="6" width="31" height="31">
<path d="M30.4506 6H0.226562V36.2241H30.4506V6Z" fill="white"/>
</mask>
<g mask="url(#mask0_2377_12737)">
<path d="M15.3386 36.2241C23.7132 36.2241 30.4506 29.4867 30.4506 21.112C30.4506 12.7374 23.7132 6 15.3386 6C6.96397 6 0.226562 12.7374 0.226562 21.112C0.226562 29.4867 6.96397 36.2241 15.3386 36.2241Z" fill="url(#paint0_linear_2377_12737)"/>
<path fill-rule="evenodd" clip-rule="evenodd" d="M10.5859 12.9062L12.5114 13.4228V27.6926C16.221 27.1879 18.1663 24.9216 18.5462 20.6775L18.5573 20.5482L14.411 19.4113V17.4297L20.5161 19.1037L20.5167 20.0775L20.5161 20.1073C20.5074 20.4373 20.4741 20.7567 20.441 21.0649C19.9491 25.6471 17.7633 27.9007 15.2407 28.9325C13.6295 29.5037 12.0778 29.774 10.5859 29.743V12.9062ZM14.4088 13.9265L18.9147 15.134V17.1364L14.4088 15.8617V13.9265Z" fill="white"/>
</g>
</g>
<circle cx="26.0435" cy="9.8169" r="7.8169" fill="black"/>
<path d="M29.9166 11.4964L28.6262 12.88C28.5982 12.9101 28.5645 12.9341 28.5269 12.9505C28.4893 12.9669 28.4487 12.9754 28.4077 12.9754H22.2906C22.2614 12.9754 22.2328 12.9669 22.2084 12.9509C22.184 12.9349 22.1648 12.9122 22.1531 12.8854C22.1415 12.8587 22.1379 12.8291 22.1427 12.8003C22.1476 12.7716 22.1608 12.7449 22.1806 12.7235L23.4696 11.3398C23.4975 11.3098 23.5313 11.2858 23.5689 11.2694C23.6064 11.253 23.647 11.2445 23.688 11.2444H29.8052C29.8346 11.2438 29.8636 11.2519 29.8884 11.2677C29.9132 11.2836 29.9329 11.3064 29.9448 11.3333C29.9567 11.3602 29.9604 11.3901 29.9553 11.4191C29.9503 11.4481 29.9368 11.475 29.9166 11.4964ZM28.6262 8.70944C28.5981 8.67953 28.5643 8.65564 28.5268 8.63923C28.4892 8.62283 28.4487 8.61426 28.4077 8.61405H22.2906C22.2614 8.61407 22.2328 8.62259 22.2084 8.63858C22.184 8.65456 22.1648 8.67732 22.1531 8.70406C22.1415 8.7308 22.1379 8.76036 22.1427 8.78913C22.1476 8.81789 22.1608 8.84462 22.1806 8.86602L23.4696 10.2504C23.4976 10.2803 23.5314 10.3042 23.569 10.3206C23.6065 10.337 23.647 10.3456 23.688 10.3458H29.8052C29.8343 10.3456 29.8627 10.337 29.887 10.321C29.9113 10.3049 29.9304 10.2822 29.942 10.2554C29.9536 10.2287 29.9571 10.1992 29.9522 10.1705C29.9473 10.1418 29.9342 10.1152 29.9144 10.0938L28.6262 8.70944ZM22.2906 7.71541H28.4077C28.4487 7.71537 28.4893 7.70687 28.5269 7.69046C28.5645 7.67405 28.5982 7.65006 28.6262 7.62001L29.9166 6.23637C29.9368 6.215 29.9503 6.18812 29.9553 6.1591C29.9604 6.13008 29.9567 6.10022 29.9448 6.07329C29.9329 6.04635 29.9132 6.02354 29.8884 6.00773C29.8636 5.99191 29.8346 5.9838 29.8052 5.98441H23.688C23.647 5.98445 23.6064 5.99294 23.5689 6.00936C23.5313 6.02577 23.4975 6.04975 23.4696 6.07981L22.1806 7.46344C22.1608 7.48484 22.1476 7.51157 22.1427 7.54033C22.1379 7.5691 22.1415 7.59866 22.1531 7.6254C22.1648 7.65214 22.184 7.6749 22.2084 7.69088C22.2328 7.70687 22.2614 7.71539 22.2906 7.71541Z" fill="url(#paint1_linear_2377_12737)"/>
<defs>
<linearGradient id="paint0_linear_2377_12737" x1="1.73777" y1="7.29532" x2="25.917" y2="36.2241" gradientUnits="userSpaceOnUse">
<stop stop-color="#BAE1EB"/>
<stop offset="0.498917" stop-color="#757EE7"/>
<stop offset="1" stop-color="#2068F7"/>
</linearGradient>
<linearGradient id="paint1_linear_2377_12737" x1="22.8003" y1="13.1422" x2="29.2146" y2="5.91086" gradientUnits="userSpaceOnUse">
<stop offset="0.08" stop-color="#9945FF"/>
<stop offset="0.3" stop-color="#8752F3"/>
<stop offset="0.5" stop-color="#5497D5"/>
<stop offset="0.6" stop-color="#43B4CA"/>
<stop offset="0.72" stop-color="#28E0B9"/>
<stop offset="0.97" stop-color="#19FB9B"/>
</linearGradient>
<clipPath id="clip0_2377_12737">
<rect width="30.98" height="30.98" fill="white" transform="translate(0.226562 6)"/>
</clipPath>
</defs>
</svg>
