<svg width="33" height="36" viewBox="0 0 33 36" fill="none" xmlns="http://www.w3.org/2000/svg">
<path d="M15.492 35.3244C24.0772 35.3244 30.984 28.4176 30.984 19.8323C30.984 11.2471 24.0772 4.34033 15.492 4.34033C6.90681 4.34033 0 11.2471 0 19.8323C0 28.4176 6.90681 35.3244 15.492 35.3244Z" fill="#2775CA"/>
<path d="M19.7551 22.2851C19.7551 20.0259 18.3996 19.2513 15.6885 18.9286C13.752 18.6704 13.3647 18.154 13.3647 17.2502C13.3647 16.3464 14.0102 15.7656 15.3012 15.7656C16.4631 15.7656 17.1086 16.1529 17.4313 17.1212C17.4959 17.3148 17.6896 17.4439 17.8832 17.4439H18.9159C19.1742 17.4439 19.3678 17.2502 19.3678 16.9921V16.9275C19.1096 15.5074 17.9477 14.4101 16.4631 14.281V12.7318C16.4631 12.4736 16.2694 12.2799 15.9467 12.2153H14.9785C14.7202 12.2153 14.5266 12.409 14.462 12.7318V14.2164C12.5255 14.4747 11.2991 15.7656 11.2991 17.3794C11.2991 19.5096 12.5901 20.3486 15.3012 20.6715C17.1086 20.9942 17.6896 21.3815 17.6896 22.4143C17.6896 23.4472 16.7858 24.1572 15.5594 24.1572C13.881 24.1572 13.3001 23.447 13.1064 22.4788C13.042 22.2207 12.8483 22.0915 12.6547 22.0915H11.5572C11.2991 22.0915 11.1055 22.2851 11.1055 22.5434V22.608C11.3636 24.2216 12.3964 25.3835 14.5266 25.7064V27.2556C14.5266 27.5137 14.7202 27.7073 15.0429 27.7719H16.0112C16.2694 27.7719 16.4631 27.5783 16.5277 27.2556V25.7064C18.4642 25.3835 19.7551 24.028 19.7551 22.2851Z" fill="white"/>
<path d="M12.21 29.0654C7.17513 27.2581 4.59308 21.6422 6.46513 16.6718C7.43338 13.9607 9.56354 11.8951 12.21 10.9269C12.4683 10.7978 12.5973 10.6042 12.5973 10.2813V9.37768C12.5973 9.11942 12.4683 8.92577 12.21 8.86133C12.1454 8.86133 12.0164 8.86133 11.9518 8.92577C5.81958 10.8623 2.46293 17.3819 4.39943 23.5141C5.56133 27.1289 8.33703 29.9046 11.9518 31.0665C12.21 31.1955 12.4683 31.0665 12.5327 30.8082C12.5973 30.7438 12.5973 30.6792 12.5973 30.5501V29.6463C12.5973 29.4527 12.4037 29.1946 12.21 29.0654ZM19.0524 8.92577C18.7941 8.79673 18.5359 8.92577 18.4714 9.18403C18.4068 9.24863 18.4068 9.31308 18.4068 9.44228V10.3459C18.4068 10.6042 18.6005 10.8623 18.7941 10.9915C23.829 12.7988 26.4111 18.4146 24.539 23.3851C23.5708 26.0962 21.4406 28.1617 18.7941 29.13C18.5359 29.259 18.4068 29.4527 18.4068 29.7755V30.6792C18.4068 30.9375 18.5359 31.1311 18.7941 31.1955C18.8587 31.1955 18.9878 31.1955 19.0524 31.1311C25.1846 29.1946 28.5413 22.6749 26.6048 16.5427C25.4429 12.8634 22.6025 10.0877 19.0524 8.92577Z" fill="white"/>
<circle cx="25.188" cy="7.8169" r="7.8169" fill="black"/>
<path d="M29.0611 9.49614L27.7707 10.8798C27.7428 10.9098 27.709 10.9338 27.6714 10.9502C27.6338 10.9666 27.5932 10.9751 27.5522 10.9752H21.4351C21.4059 10.9752 21.3774 10.9666 21.353 10.9506C21.3286 10.9347 21.3093 10.9119 21.2977 10.8852C21.286 10.8584 21.2824 10.8289 21.2873 10.8001C21.2921 10.7713 21.3053 10.7446 21.3251 10.7232L22.6141 9.33957C22.642 9.30951 22.6758 9.28553 22.7134 9.26912C22.751 9.25271 22.7915 9.24421 22.8326 9.24417H28.9497C28.9791 9.24357 29.0081 9.25168 29.0329 9.2675C29.0578 9.28331 29.0774 9.30612 29.0893 9.33305C29.1012 9.35999 29.1049 9.38985 29.0999 9.41887C29.0948 9.44789 29.0814 9.47477 29.0611 9.49614ZM27.7707 6.7092C27.7427 6.67928 27.7089 6.6554 27.6713 6.63899C27.6337 6.62259 27.5932 6.61402 27.5522 6.61381H21.4351C21.4059 6.61382 21.3774 6.62234 21.353 6.63833C21.3286 6.65432 21.3093 6.67708 21.2977 6.70382C21.286 6.73056 21.2824 6.76012 21.2873 6.78888C21.2921 6.81765 21.3053 6.84437 21.3251 6.86578L22.6141 8.25014C22.6421 8.28006 22.6759 8.30394 22.7135 8.32035C22.7511 8.33675 22.7916 8.34532 22.8326 8.34553H28.9497C28.9788 8.34538 29.0072 8.33675 29.0316 8.32072C29.0559 8.30467 29.075 8.28191 29.0865 8.2552C29.0981 8.22849 29.1017 8.19898 29.0967 8.17028C29.0918 8.14158 29.0787 8.11492 29.0589 8.09357L27.7707 6.7092ZM21.4351 5.71516H27.5522C27.5932 5.71513 27.6338 5.70663 27.6714 5.69021C27.709 5.67381 27.7428 5.64982 27.7707 5.61977L29.0611 4.23613C29.0814 4.21476 29.0948 4.18787 29.0999 4.15885C29.1049 4.12983 29.1012 4.09998 29.0893 4.07304C29.0774 4.04611 29.0578 4.0233 29.0329 4.00748C29.0081 3.99167 28.9791 3.98355 28.9497 3.98416H22.8326C22.7915 3.98421 22.751 3.9927 22.7134 4.00911C22.6758 4.02553 22.642 4.04951 22.6141 4.07956L21.3251 5.4632C21.3053 5.4846 21.2921 5.51132 21.2873 5.54009C21.2824 5.56886 21.286 5.59841 21.2977 5.62515C21.3093 5.6519 21.3286 5.67465 21.353 5.69064C21.3774 5.70663 21.4059 5.71515 21.4351 5.71516Z" fill="url(#paint0_linear_171_7157)"/>
<defs>
<linearGradient id="paint0_linear_171_7157" x1="21.9448" y1="11.1419" x2="28.3591" y2="3.91061" gradientUnits="userSpaceOnUse">
<stop offset="0.08" stop-color="#9945FF"/>
<stop offset="0.3" stop-color="#8752F3"/>
<stop offset="0.5" stop-color="#5497D5"/>
<stop offset="0.6" stop-color="#43B4CA"/>
<stop offset="0.72" stop-color="#28E0B9"/>
<stop offset="0.97" stop-color="#19FB9B"/>
</linearGradient>
</defs>
</svg>
