<svg width="33" height="37" viewBox="0 0 33 37" fill="none" xmlns="http://www.w3.org/2000/svg">
<path fill-rule="evenodd" clip-rule="evenodd" d="M15.49 6C24.0449 6 30.98 12.9351 30.98 21.49C30.98 30.0449 24.0449 36.98 15.49 36.98C6.9351 36.98 0 30.0449 0 21.49C0 12.9351 6.9351 6 15.49 6Z" fill="#50AF95"/>
<path fill-rule="evenodd" clip-rule="evenodd" d="M17.4506 22.2565C17.3411 22.2659 16.7752 22.3048 15.5129 22.3048C14.5089 22.3048 13.796 22.2701 13.5459 22.2565C9.66589 22.0603 6.76978 21.2839 6.76978 20.3543C6.76978 19.4247 9.66589 18.6493 13.5459 18.45V21.4832C13.7997 21.5042 14.5262 21.5535 15.5302 21.5535C16.735 21.5535 17.3384 21.4958 17.447 21.4843V18.4521C21.3188 18.6504 24.2085 19.4268 24.2085 20.3543C24.2085 21.2818 21.3197 22.0582 17.447 22.2555L17.4506 22.2565ZM17.4506 18.1384V15.424H22.854V11.2849H8.14253V15.424H13.545V18.1373C9.15384 18.3692 5.85156 19.3691 5.85156 20.5673C5.85156 21.7655 9.15384 22.7643 13.545 22.9972V31.6952H17.4497V22.9941C21.8308 22.7622 25.1276 21.7634 25.1276 20.5662C25.1276 19.3691 21.8336 18.3702 17.4497 18.1373L17.4506 18.1384Z" fill="white"/>
<circle cx="24.8169" cy="7.8169" r="7.8169" fill="black"/>
<path d="M28.69 9.49614L27.3996 10.8798C27.3717 10.9098 27.3379 10.9338 27.3003 10.9502C27.2627 10.9666 27.2221 10.9751 27.1811 10.9752H21.064C21.0348 10.9752 21.0063 10.9666 20.9819 10.9506C20.9575 10.9347 20.9383 10.9119 20.9266 10.8852C20.9149 10.8584 20.9113 10.8289 20.9162 10.8001C20.921 10.7713 20.9342 10.7446 20.954 10.7232L22.243 9.33957C22.2709 9.30951 22.3047 9.28553 22.3423 9.26912C22.3799 9.25271 22.4205 9.24421 22.4615 9.24417H28.5786C28.608 9.24357 28.637 9.25168 28.6618 9.2675C28.6867 9.28331 28.7063 9.30612 28.7182 9.33305C28.7302 9.35999 28.7338 9.38985 28.7288 9.41887C28.7237 9.44789 28.7103 9.47477 28.69 9.49614ZM27.3996 6.7092C27.3716 6.67928 27.3378 6.6554 27.3002 6.63899C27.2626 6.62259 27.2221 6.61402 27.1811 6.61381H21.064C21.0348 6.61382 21.0063 6.62234 20.9819 6.63833C20.9575 6.65432 20.9383 6.67708 20.9266 6.70382C20.9149 6.73056 20.9113 6.76012 20.9162 6.78888C20.921 6.81765 20.9342 6.84437 20.954 6.86578L22.243 8.25014C22.271 8.28006 22.3048 8.30394 22.3424 8.32035C22.38 8.33675 22.4205 8.34532 22.4615 8.34553H28.5786C28.6077 8.34538 28.6361 8.33675 28.6605 8.32072C28.6848 8.30467 28.7039 8.28191 28.7154 8.2552C28.727 8.22849 28.7306 8.19898 28.7256 8.17028C28.7208 8.14158 28.7076 8.11492 28.6878 8.09357L27.3996 6.7092ZM21.064 5.71516H27.1811C27.2221 5.71513 27.2627 5.70663 27.3003 5.69021C27.3379 5.67381 27.3717 5.64982 27.3996 5.61977L28.69 4.23613C28.7103 4.21476 28.7237 4.18787 28.7288 4.15885C28.7338 4.12983 28.7302 4.09998 28.7182 4.07304C28.7063 4.04611 28.6867 4.0233 28.6618 4.00748C28.637 3.99167 28.608 3.98355 28.5786 3.98416H22.4615C22.4205 3.98421 22.3799 3.9927 22.3423 4.00911C22.3047 4.02553 22.2709 4.04951 22.243 4.07956L20.954 5.4632C20.9342 5.4846 20.921 5.51132 20.9162 5.54009C20.9113 5.56886 20.9149 5.59841 20.9266 5.62515C20.9383 5.6519 20.9575 5.67465 20.9819 5.69064C21.0063 5.70663 21.0348 5.71515 21.064 5.71516Z" fill="url(#paint0_linear_171_7159)"/>
<defs>
<linearGradient id="paint0_linear_171_7159" x1="21.5738" y1="11.1419" x2="27.988" y2="3.91061" gradientUnits="userSpaceOnUse">
<stop offset="0.08" stop-color="#9945FF"/>
<stop offset="0.3" stop-color="#8752F3"/>
<stop offset="0.5" stop-color="#5497D5"/>
<stop offset="0.6" stop-color="#43B4CA"/>
<stop offset="0.72" stop-color="#28E0B9"/>
<stop offset="0.97" stop-color="#19FB9B"/>
</linearGradient>
</defs>
</svg>
