<svg width="33" height="37" viewBox="0 0 33 37" fill="none" xmlns="http://www.w3.org/2000/svg">
<mask id="mask0_171_7611" style="mask-type:luminance" maskUnits="userSpaceOnUse" x="0" y="5" width="31" height="32">
<path d="M30.9738 5.22192L0 5.22192L0 36.1957L30.9738 36.1957L30.9738 5.22192Z" fill="white"/>
</mask>
<g mask="url(#mask0_171_7611)">
<path d="M15.4869 36.1957C24.04 36.1957 30.9738 29.262 30.9738 20.7088C30.9738 12.1556 24.04 5.22192 15.4869 5.22192C6.93371 5.22192 0 12.1556 0 20.7088C0 29.262 6.93371 36.1957 15.4869 36.1957Z" fill="#122A5F"/>
<path fill-rule="evenodd" clip-rule="evenodd" d="M24.015 20.7104C24.015 16.0061 20.2014 12.1926 15.4972 12.1926L15.4972 9.09521C16.2991 9.09521 17.082 9.17648 17.8381 9.3312C23.1309 10.4143 27.1124 15.0973 27.1124 20.7104C27.1124 27.1252 21.9121 32.3255 15.4972 32.3255C10.4399 32.3255 6.1375 29.0934 4.54297 24.5821L7.90819 24.5821C9.31804 27.3401 12.1871 29.2282 15.4972 29.2282C20.2014 29.2282 24.015 25.4146 24.015 20.7104ZM5.22176 15.29C7.16923 18.9741 11.04 21.4847 15.4972 21.4847L15.4972 18.3873C11.6799 18.3873 8.44899 15.8761 7.3665 12.4156C6.51178 13.2535 5.78602 14.2225 5.22176 15.29ZM8.67669 11.3076C9.33937 14.4666 12.1413 16.8387 15.4972 16.8387C17.6355 16.8387 19.3689 18.5721 19.3689 20.7104C19.3689 22.8487 17.6355 24.5821 15.4972 24.5821L9.70169 24.5821C10.9519 26.4498 13.081 27.6795 15.4972 27.6795C19.3461 27.6795 22.4663 24.5593 22.4663 20.7104C22.4663 16.8615 19.3461 13.7413 15.4972 13.7413C13.359 13.7413 11.6255 12.0078 11.6255 9.86956L11.6255 9.75616C10.5631 10.1316 9.57167 10.6573 8.67669 11.3076Z" fill="white"/>
</g>
<ellipse cx="25.1862" cy="7.81508" rx="7.81508" ry="7.81508" fill="black"/>
<path d="M29.0515 9.49632L27.7614 10.8796C27.7335 10.9097 27.6997 10.9337 27.6621 10.9501C27.6245 10.9665 27.584 10.975 27.543 10.975H21.4272C21.3981 10.975 21.3695 10.9665 21.3451 10.9505C21.3207 10.9345 21.3015 10.9118 21.2899 10.885C21.2782 10.8583 21.2746 10.8287 21.2795 10.8C21.2843 10.7712 21.2975 10.7445 21.3173 10.7231L22.606 9.33979C22.6339 9.30974 22.6677 9.28576 22.7052 9.26935C22.7428 9.25295 22.7834 9.24445 22.8244 9.24441H28.9401C28.9695 9.24381 28.9985 9.25192 29.0233 9.26773C29.0481 9.28354 29.0678 9.30635 29.0797 9.33327C29.0916 9.3602 29.0953 9.39005 29.0902 9.41906C29.0852 9.44808 29.0717 9.47496 29.0515 9.49632ZM27.7614 6.71003C27.7334 6.68012 27.6995 6.65624 27.662 6.63984C27.6244 6.62344 27.5839 6.61487 27.543 6.61466H21.4272C21.3981 6.61468 21.3695 6.62319 21.3451 6.63918C21.3207 6.65516 21.3015 6.67791 21.2899 6.70465C21.2782 6.73138 21.2746 6.76094 21.2795 6.78969C21.2843 6.81845 21.2975 6.84517 21.3173 6.86657L22.606 8.25061C22.634 8.28052 22.6678 8.3044 22.7054 8.32081C22.7429 8.3372 22.7834 8.34577 22.8244 8.34598H28.9401C28.9692 8.34583 28.9976 8.3372 29.0219 8.32117C29.0463 8.30513 29.0653 8.28237 29.0769 8.25567C29.0885 8.22896 29.092 8.19946 29.0871 8.17077C29.0822 8.14207 29.0691 8.11543 29.0493 8.09408L27.7614 6.71003ZM21.4272 5.71623H27.543C27.584 5.71619 27.6245 5.70769 27.6621 5.69128C27.6997 5.67488 27.7335 5.6509 27.7614 5.62085L29.0515 4.23754C29.0717 4.21617 29.0852 4.18929 29.0902 4.16028C29.0953 4.13126 29.0916 4.10142 29.0797 4.07449C29.0678 4.04756 29.0481 4.02475 29.0233 4.00894C28.9985 3.99313 28.9695 3.98502 28.9401 3.98563H22.8244C22.7834 3.98567 22.7428 3.99416 22.7052 4.01057C22.6677 4.02698 22.6339 4.05096 22.606 4.081L21.3173 5.46432C21.2975 5.48571 21.2843 5.51243 21.2795 5.54119C21.2746 5.56995 21.2782 5.5995 21.2899 5.62624C21.3015 5.65297 21.3207 5.67572 21.3451 5.6917C21.3695 5.70769 21.3981 5.71621 21.4272 5.71623Z" fill="url(#paint0_linear_171_7611)"/>
<defs>
<linearGradient id="paint0_linear_171_7611" x1="21.9369" y1="11.1417" x2="28.3496" y2="3.91209" gradientUnits="userSpaceOnUse">
<stop offset="0.08" stop-color="#9945FF"/>
<stop offset="0.3" stop-color="#8752F3"/>
<stop offset="0.5" stop-color="#5497D5"/>
<stop offset="0.6" stop-color="#43B4CA"/>
<stop offset="0.72" stop-color="#28E0B9"/>
<stop offset="0.97" stop-color="#19FB9B"/>
</linearGradient>
</defs>
</svg>
