<svg width="34" height="37" viewBox="0 0 34 37" fill="none" xmlns="http://www.w3.org/2000/svg">
<circle cx="15.49" cy="21.49" r="15.49" fill="#00493D"/>
<path d="M11.3516 26.6181V24.2472L16.1722 19.2882V18.7538H11.5493V16.4629H19.3925V19.1104L14.8288 23.7731V24.3251H19.5903V26.6169L11.3516 26.6181Z" fill="#FFE400"/>
<path d="M8.41403 13.8562H7.17626C5.27031 15.9617 4.21484 18.7003 4.21484 21.5403C4.21484 24.3803 5.27031 27.119 7.17626 29.2244H8.41403C8.32258 28.9977 6.82128 25.1448 6.82128 21.5403C6.82128 17.9358 8.32132 14.0829 8.41403 13.8562Z" fill="#FFE400"/>
<path d="M22.5234 29.2246H23.7612C25.6674 27.1192 26.7227 24.3805 26.7227 21.5405C26.7227 18.7006 25.6674 15.9619 23.7612 13.8564H22.5234C22.6149 14.0832 24.1162 17.9361 24.1162 21.5405C24.1162 25.145 22.6149 28.9979 22.5234 29.2246Z" fill="#FFE400"/>
<circle cx="25.8169" cy="9.8169" r="7.8169" fill="black"/>
<path d="M29.69 11.4961L28.3996 12.8798C28.3717 12.9098 28.3379 12.9338 28.3003 12.9502C28.2627 12.9666 28.2221 12.9751 28.1811 12.9752H22.064C22.0348 12.9752 22.0063 12.9666 21.9819 12.9506C21.9575 12.9347 21.9383 12.9119 21.9266 12.8852C21.9149 12.8584 21.9113 12.8289 21.9162 12.8001C21.921 12.7713 21.9342 12.7446 21.954 12.7232L23.243 11.3396C23.2709 11.3095 23.3047 11.2855 23.3423 11.2691C23.3799 11.2527 23.4205 11.2442 23.4615 11.2442H29.5786C29.608 11.2436 29.637 11.2517 29.6618 11.2675C29.6867 11.2833 29.7063 11.3061 29.7182 11.3331C29.7302 11.36 29.7338 11.3898 29.7288 11.4189C29.7237 11.4479 29.7103 11.4748 29.69 11.4961ZM28.3996 8.7092C28.3716 8.67928 28.3378 8.6554 28.3002 8.63899C28.2626 8.62259 28.2221 8.61402 28.1811 8.61381H22.064C22.0348 8.61382 22.0063 8.62234 21.9819 8.63833C21.9575 8.65432 21.9383 8.67708 21.9266 8.70382C21.9149 8.73056 21.9113 8.76012 21.9162 8.78888C21.921 8.81765 21.9342 8.84437 21.954 8.86578L23.243 10.2501C23.271 10.2801 23.3048 10.3039 23.3424 10.3204C23.38 10.3368 23.4205 10.3453 23.4615 10.3455H29.5786C29.6077 10.3454 29.6361 10.3368 29.6605 10.3207C29.6848 10.3047 29.7039 10.2819 29.7154 10.2552C29.727 10.2285 29.7306 10.199 29.7256 10.1703C29.7208 10.1416 29.7076 10.1149 29.6878 10.0936L28.3996 8.7092ZM22.064 7.71516H28.1811C28.2221 7.71513 28.2627 7.70663 28.3003 7.69021C28.3379 7.67381 28.3717 7.64982 28.3996 7.61977L29.69 6.23613C29.7103 6.21476 29.7237 6.18787 29.7288 6.15885C29.7338 6.12983 29.7302 6.09998 29.7182 6.07304C29.7063 6.04611 29.6867 6.0233 29.6618 6.00748C29.637 5.99167 29.608 5.98355 29.5786 5.98416H23.4615C23.4205 5.98421 23.3799 5.9927 23.3423 6.00911C23.3047 6.02553 23.2709 6.04951 23.243 6.07956L21.954 7.4632C21.9342 7.4846 21.921 7.51132 21.9162 7.54009C21.9113 7.56886 21.9149 7.59841 21.9266 7.62515C21.9383 7.6519 21.9575 7.67465 21.9819 7.69064C22.0063 7.70663 22.0348 7.71515 22.064 7.71516Z" fill="url(#paint0_linear_171_7162)"/>
<defs>
<linearGradient id="paint0_linear_171_7162" x1="22.5738" y1="13.1419" x2="28.988" y2="5.91061" gradientUnits="userSpaceOnUse">
<stop offset="0.08" stop-color="#9945FF"/>
<stop offset="0.3" stop-color="#8752F3"/>
<stop offset="0.5" stop-color="#5497D5"/>
<stop offset="0.6" stop-color="#43B4CA"/>
<stop offset="0.72" stop-color="#28E0B9"/>
<stop offset="0.97" stop-color="#19FB9B"/>
</linearGradient>
</defs>
</svg>
