<svg width="32" height="32" viewBox="0 0 32 32" fill="none" xmlns="http://www.w3.org/2000/svg">
<path fill-rule="evenodd" clip-rule="evenodd" d="M15.9932 0C7.15932 0 0 7.1661 0 16C0 24.8339 7.1661 32 16 32C24.8339 32 32 24.8339 32 16C32 7.1661 24.8339 0 15.9932 0ZM14.6373 20.5288L14.6237 20.5492C14.2712 21.1729 14.0881 21.4847 13.8373 21.722C13.5661 21.9797 13.2407 22.1695 12.8814 22.278C12.5559 22.3661 12.1898 22.3661 11.4576 22.3661H8.35254C7.70169 22.3661 7.37627 22.3661 7.17966 22.2373C6.96949 22.1017 6.8339 21.8712 6.82034 21.6203C6.80678 21.3898 6.96949 21.1051 7.29492 20.5424L14.9627 7.03051C15.2881 6.45424 15.4576 6.16949 15.661 6.06102C15.8847 5.94576 16.1559 5.94576 16.3797 6.06102C16.5898 6.16949 16.7525 6.45424 17.078 7.03051L18.6508 9.78305L18.6576 9.79661C19.0102 10.4136 19.1864 10.7254 19.2678 11.0508C19.3559 11.4102 19.3559 11.7831 19.2678 12.1424C19.1932 12.4746 19.0102 12.7864 18.6508 13.4102L14.6373 20.5288ZM24.9356 22.2373C24.739 22.3661 24.4068 22.3661 23.7492 22.3661H19.3017C18.6441 22.3661 18.3186 22.3661 18.122 22.2373C17.9119 22.1017 17.7763 21.8644 17.7627 21.6136C17.7492 21.3831 17.9119 21.1051 18.2373 20.5424L18.2441 20.5288L20.4678 16.7186C20.7932 16.1559 20.9559 15.878 21.1661 15.7695C21.3898 15.6542 21.6542 15.6542 21.878 15.7695C22.0814 15.8712 22.2373 16.1424 22.5559 16.6712L22.5831 16.7119L24.8136 20.522C24.8203 20.5424 24.8339 20.5559 24.8475 20.5763C25.1593 21.1119 25.3153 21.3831 25.3017 21.6068C25.2814 21.8644 25.1458 22.0949 24.9356 22.2373Z" fill="white"/>
</svg>
