<svg width="38" height="32" viewBox="0 0 38 32" fill="none" xmlns="http://www.w3.org/2000/svg">
<path d="M27.7461 22.5304L36.2759 17.5785C36.7494 17.3154 37.0125 16.8419 37.0125 16.3157V6.41199C37.0125 5.88581 36.7494 5.41226 36.2759 5.14917L27.7461 0.197314C27.2725 -0.0657714 26.7463 -0.0657714 26.2728 0.197314L17.7371 5.14917C17.2635 5.41226 17.0005 5.88581 17.0005 6.41199V24.0563L10.9963 27.5349L4.99205 24.0563V17.1576L10.9963 13.679L14.9484 15.9415V11.3054L11.7329 9.46378C11.5224 9.35855 11.2593 9.25331 10.9963 9.25331C10.7332 9.25331 10.4701 9.30593 10.2596 9.46378L1.72394 14.4215C1.25039 14.6846 0.987305 15.1581 0.987305 15.6843V25.588C0.987305 26.1142 1.25039 26.5877 1.72394 26.8508L10.2538 31.8027C10.7273 32.0658 11.2535 32.0658 11.7271 31.8027L20.2569 26.8508C20.7304 26.5877 20.9935 26.1142 20.9935 25.588V7.94373L21.0988 7.89111L27.0036 4.46515L33.0078 7.94373V14.8424L27.0036 18.3152L23.0514 16.0526V20.6888L26.2669 22.5304C26.7405 22.7935 27.2667 22.7935 27.7461 22.5304Z" fill="white"/>
</svg>
