<svg width="24" height="24" viewBox="0 0 24 24" fill="none" xmlns="http://www.w3.org/2000/svg">
<ellipse cx="12" cy="12" rx="12" ry="12" fill="black"/>
<path d="M17.9411 14.5789L15.9601 16.7029C15.9172 16.7491 15.8654 16.7859 15.8076 16.8111C15.75 16.8363 15.6877 16.8493 15.6247 16.8494H6.23407C6.18928 16.8494 6.14547 16.8363 6.10801 16.8117C6.07054 16.7872 6.04105 16.7523 6.02313 16.7112C6.00522 16.6702 5.99966 16.6248 6.00714 16.5806C6.01463 16.5365 6.03482 16.4954 6.06526 16.4626L8.044 14.3385C8.08685 14.2924 8.13874 14.2556 8.19645 14.2304C8.25414 14.2052 8.31642 14.1921 8.37938 14.1921H17.77C17.8152 14.1911 17.8597 14.2036 17.8978 14.2279C17.9359 14.2522 17.9661 14.2872 17.9843 14.3285C18.0027 14.3699 18.0083 14.4157 18.0005 14.4602C17.9928 14.5048 17.9721 14.5461 17.9411 14.5789ZM15.9601 10.3005C15.9171 10.2546 15.8652 10.2179 15.8075 10.1928C15.7498 10.1676 15.6876 10.1544 15.6247 10.1541H6.23407C6.18928 10.1541 6.14547 10.1672 6.10801 10.1918C6.07054 10.2163 6.04105 10.2512 6.02313 10.2923C6.00522 10.3333 5.99966 10.3787 6.00714 10.4229C6.01463 10.467 6.03482 10.508 6.06526 10.5409L8.044 12.6661C8.08701 12.712 8.13894 12.7487 8.1966 12.7739C8.25427 12.7991 8.31647 12.8122 8.37938 12.8125H17.77C17.8147 12.8123 17.8583 12.7991 17.8957 12.7744C17.933 12.7498 17.9623 12.7149 17.9801 12.6739C17.9979 12.6328 18.0033 12.5875 17.9957 12.5435C17.9882 12.4994 17.9681 12.4585 17.9377 12.4257L15.9601 10.3005ZM6.23407 8.77456H15.6247C15.6877 8.7745 15.75 8.76146 15.8076 8.73626C15.8654 8.71107 15.9172 8.67425 15.9601 8.62811L17.9411 6.50404C17.9721 6.47123 17.9928 6.42996 18.0005 6.38541C18.0083 6.34086 18.0027 6.29503 17.9843 6.25368C17.9661 6.21233 17.9359 6.17732 17.8978 6.15304C17.8597 6.12876 17.8152 6.1163 17.77 6.11724H8.37938C8.31642 6.1173 8.25414 6.13034 8.19645 6.15554C8.13874 6.18073 8.08685 6.21755 8.044 6.26369L6.06526 8.38775C6.03482 8.42061 6.01463 8.46164 6.00714 8.5058C5.99966 8.54995 6.00522 8.59533 6.02313 8.63638C6.04105 8.67743 6.07054 8.71237 6.10801 8.73691C6.14547 8.76146 6.18928 8.77454 6.23407 8.77456Z" fill="url(#paint0_linear_4052_26826)"/>
<defs>
<linearGradient id="paint0_linear_4052_26826" x1="7.01662" y1="17.1054" x2="16.8634" y2="6.00433" gradientUnits="userSpaceOnUse">
<stop offset="0.08" stop-color="#9945FF"/>
<stop offset="0.3" stop-color="#8752F3"/>
<stop offset="0.5" stop-color="#5497D5"/>
<stop offset="0.6" stop-color="#43B4CA"/>
<stop offset="0.72" stop-color="#28E0B9"/>
<stop offset="0.97" stop-color="#19FB9B"/>
</linearGradient>
</defs>
</svg>
