<svg width="38" height="32" viewBox="0 0 38 32" fill="none" xmlns="http://www.w3.org/2000/svg">
<path d="M32.5588 4.19532L27.9957 6.51528L6.00471 17.7156C5.92277 17.1574 5.89204 16.5787 5.89204 16.0051C5.9074 8.77379 11.7816 2.91499 19.0129 2.91499C21.2355 2.91499 23.4326 3.4937 25.3838 4.57942L27.9906 3.253L28.3747 3.05839C21.2202 -2.14488 11.2182 -0.541905 6.03032 6.59723C4.04836 9.33201 2.97288 12.6301 2.97288 16.0051C2.97288 16.4046 2.98825 16.8194 3.01898 17.224C3.11628 18.3916 2.49148 19.4978 1.43649 20.0407L0.0690918 20.7423V24.0046L4.12006 21.9407L5.43112 21.2698L6.72682 20.6143L29.9008 8.80452L32.5076 7.47809L37.885 4.7433V1.45541L32.5588 4.19532Z" fill="white"/>
<path d="M37.9003 8L8.03788 23.2052L5.43112 24.5316L0.0690918 27.2716V30.5338L5.40039 27.8298L9.9635 25.5098L31.9852 14.289C32.0671 14.8677 32.0979 15.4413 32.0979 16.02C32.0979 23.2513 26.2237 29.1101 18.9924 29.1101C16.7544 29.1101 14.542 28.5314 12.5907 27.4303L12.432 27.5123L9.59988 28.9513C16.7544 34.1341 26.7563 32.5516 31.9596 25.3971C33.9467 22.6624 35.017 19.3796 35.017 16.0046C35.017 15.5898 35.0017 15.1903 34.9709 14.7704C34.8736 13.6027 35.4984 12.4965 36.5534 11.9537L37.9311 11.2469V8H37.9003Z" fill="white"/>
</svg>
